<?xml version="1.0" standalone="no"?>
<!DOCTYPE svg PUBLIC "-//W3C//DTD SVG 1.1//EN" "http://www.w3.org/Graphics/SVG/1.1/DTD/svg11.dtd" >
<svg>
<metadata>
Created by FontForge 20090622 at Thu Apr 28 20:03:15 2016
 By deploy user
Copyright (C) 2002, 2007 Hoefler &#38; Co. http://www.typography.com
</metadata>
<defs>
<font id="ChronicleDeck-SemiItalic" horiz-adv-x="745" >
  <font-face 
    font-family="Chronicle Deck Semi"
    font-weight="375"
    font-style="italic"
    font-stretch="normal"
    units-per-em="1000"
    panose-1="0 0 0 0 0 0 0 0 0 0"
    ascent="800"
    descent="-200"
    x-height="461"
    cap-height="678"
    bbox="-188 -307 1128 1134"
    underline-thickness="50"
    underline-position="-50"
    slope="-12"
    unicode-range="U+0020-U+FB04"
  />
<missing-glyph horiz-adv-x="500" 
d="M0 -200v1000h500v-1000h-500zM71 750l179 -390l179 390h-358zM50 -76l172 376l-172 376v-752zM450 676l-172 -376l172 -376v752zM250 240l-179 -390h358z" />
    <glyph glyph-name="f_f" unicode="ff" horiz-adv-x="615" 
d="M402 705q47 0 80 -17t45 -45q57 70 152 70q57 0 89.5 -24.5t32.5 -63.5q0 -28 -16 -46.5t-42 -18.5q-27 0 -42.5 15.5t-15.5 41.5q0 30 23 53q-11 16 -36 16q-69 0 -101 -140l-20 -88h121l-9 -33h-117l-74 -336q-35 -162 -83.5 -226t-130.5 -64q-51 0 -77.5 19.5
t-26.5 51.5q0 24 17.5 42t41.5 18t38 -15.5t14 -37.5q0 -32 -23 -47q12 -4 19 -4q53 0 80 123l106 476h-190l-70 -317q-37 -171 -88 -240t-140 -69q-53 0 -82 21.5t-29 56.5q0 26 17 43.5t42 17.5t40 -16t15 -39q0 -30 -26 -50q12 -7 29 -7q30 0 53.5 37.5t44.5 134.5
l96 427h-112l9 33h108l7 27q30 119 88 169.5t143 50.5zM453 458l7 30q8 34 18 63h-2q-27 0 -42.5 15.5t-15.5 40.5q0 32 22 54q-10 17 -44 17q-41 0 -69.5 -34t-46.5 -113l-17 -73h190z" />
    <glyph glyph-name="fi" unicode="fi" horiz-adv-x="592" 
d="M257 425l-70 -328q-36 -168 -86 -233t-140 -65q-54 0 -83 21t-29 57q0 26 17.5 43.5t42.5 17.5t39.5 -16t14.5 -39q0 -30 -26 -50q12 -7 29 -7q31 0 53.5 33t43.5 128l96 438h-112l9 33h108l7 27q51 228 241 228q68 0 110.5 -29t42.5 -69q0 -27 -17 -45.5t-42 -18.5
q-28 0 -43.5 16t-15.5 42q0 32 24 54q-6 9 -23.5 16t-38.5 7q-47 0 -78 -36t-51 -120l-17 -72h166l130 5l-109 -350q-10 -33 -10 -46q0 -22 21.5 -29.5t74.5 -4.5v-21q-47 -20 -108 -20q-91 0 -91 71q0 20 8 46l99 316h-187z" />
    <glyph glyph-name="fl" unicode="fl" horiz-adv-x="592" 
d="M257 425l-70 -328q-36 -168 -86 -233t-140 -65q-54 0 -83 21t-29 57q0 26 17.5 43.5t42.5 17.5t39.5 -16t14.5 -39q0 -30 -26 -50q12 -7 29 -7q31 0 53.5 33t43.5 128l96 438h-112l9 33h108l7 29q52 226 235 226q59 0 100 -26l102 23l13 -5l-172 -594q-7 -30 -7 -42
q0 -22 21 -29t78 -5v-20q-55 -22 -112 -22q-90 0 -90 71q0 19 8 48l94 313h-184zM450 458l26 97q-43 9 -43 55q0 31 24 55q-13 21 -55 21q-43 0 -72.5 -35.5t-49.5 -117.5l-17 -75h187z" />
    <glyph glyph-name="f_f_i" unicode="ffi" horiz-adv-x="869" 
d="M701 713q67 0 109.5 -29t42.5 -69q0 -27 -16.5 -45.5t-41.5 -18.5q-28 0 -44 16t-16 42q0 32 24 54q-15 23 -61 23q-47 0 -78.5 -36t-51.5 -120l-17 -72h166l131 5l-109 -350q-10 -33 -10 -46q0 -22 21.5 -29.5t74.5 -4.5v-21q-50 -20 -109 -20q-90 0 -90 71q0 20 8 46
l99 316h-187l-74 -336q-35 -162 -83.5 -226t-130.5 -64q-51 0 -77.5 19.5t-26.5 51.5q0 24 17.5 42t41.5 18t38 -15.5t14 -37.5q0 -32 -23 -47q12 -4 19 -4q53 0 80 123l106 476h-190l-70 -317q-37 -171 -88 -240t-140 -69q-53 0 -82 21.5t-29 56.5q0 26 17 43.5t42 17.5
t40 -16t15 -39q0 -30 -26 -50q12 -7 29 -7q30 0 53.5 37.5t44.5 134.5l96 427h-112l9 33h108l7 27q30 119 88 169.5t143 50.5q48 0 82 -18.5t45 -47.5q63 74 172 74zM460 487q8 39 19 64h-3q-27 0 -42.5 15.5t-15.5 40.5q0 32 22 54q-10 17 -44 17q-41 0 -69.5 -34
t-46.5 -113l-17 -73h190z" />
    <glyph glyph-name="f_f_l" unicode="ffl" horiz-adv-x="880" 
d="M164 458l7 27q30 119 88 169.5t143 50.5q48 0 81.5 -18t44.5 -47q61 73 166 73q61 0 100 -26l103 23l12 -5l-171 -595q-8 -26 -8 -41q0 -22 21.5 -29.5t77.5 -4.5v-21q-57 -21 -111 -21q-91 0 -91 71q0 20 8 47l94 314h-183l-74 -336q-35 -162 -83.5 -226t-130.5 -64
q-51 0 -77.5 19.5t-26.5 51.5q0 24 17.5 42t41.5 18t38 -15.5t14 -37.5q0 -32 -23 -47q12 -4 19 -4q53 0 80 123l106 476h-190l-70 -317q-37 -171 -88 -240t-140 -69q-53 0 -82 21.5t-29 56.5q0 26 17 43.5t42 17.5t40 -16t15 -39q0 -30 -26 -50q12 -7 29 -7q30 0 53.5 37.5
t44.5 134.5l96 427h-112l9 33h108zM739 458l25 97q-20 4 -31 19t-11 36q0 32 23 55q-13 21 -55 21q-43 0 -72 -35t-49 -118l-18 -75h188zM460 487q7 30 19 64h-3q-27 0 -42.5 15.5t-15.5 40.5q0 32 22 54q-10 17 -44 17q-41 0 -69.5 -34t-46.5 -113l-17 -73h190z" />
    <glyph glyph-name="f_b" unicode="fb" horiz-adv-x="838" 
d="M535 400l3 -3q76 71 147 71q55 0 88.5 -40.5t33.5 -111.5q0 -74 -37.5 -148t-107.5 -125t-152 -51q-102 0 -172 59l60 204l43 170h-184l-70 -328q-36 -168 -86 -233t-140 -65q-54 0 -83 21t-29 57q0 26 17.5 43.5t42.5 17.5t39.5 -16t14.5 -39q0 -30 -26 -50q12 -7 29 -7
q31 0 53.5 33t43.5 128l96 438h-112l9 33h108l7 29q52 226 235 226q59 0 100 -26l104 23l12 -5zM449 458l25 97q-41 11 -41 55q0 31 24 55q-13 21 -55 21q-43 0 -72.5 -35.5t-49.5 -117.5l-17 -75h186zM525 20q49 0 90 46t62.5 112.5t21.5 132.5q0 100 -75 100
q-47 0 -98 -48l-76 -299q20 -44 75 -44z" />
    <glyph glyph-name="f_h" unicode="fh" horiz-adv-x="853" 
d="M257 425l-70 -328q-36 -168 -86 -233t-140 -65q-54 0 -83 21t-29 57q0 26 17 43.5t42 17.5t40 -16t15 -39q0 -30 -26 -50q12 -7 29 -7q31 0 53.5 33t42.5 128l97 438h-112l9 33h108l7 29q52 226 235 226q59 0 100 -26l104 23l12 -5l-94 -327l3 -3q99 91 182 91
q46 0 71 -24.5t25 -68.5q0 -28 -12 -64l-65 -200q-10 -35 -10 -48q0 -20 18.5 -26.5t67.5 -4.5v-21q-40 -16 -99 -16q-88 0 -88 62q0 22 10 49l63 194q10 31 10 54q0 51 -56 51q-53 0 -128 -61l-84 -342h-113l51 162l67 263h-184zM449 458l25 97q-41 11 -41 55q0 31 24 55
q-13 21 -55 21q-43 0 -72.5 -35.5t-49.5 -117.5l-17 -75h186z" />
    <glyph glyph-name="f_j" unicode="fj" horiz-adv-x="580" 
d="M257 425l-70 -328q-36 -168 -86 -233t-140 -65q-54 0 -83 21t-29 57q0 26 17.5 43.5t42.5 17.5t39.5 -16t14.5 -39q0 -30 -26 -50q12 -7 29 -7q31 0 53.5 33t43.5 128l96 438h-112l9 33h108l7 27q51 228 241 228q68 0 110.5 -29t42.5 -69q0 -27 -17 -45.5t-42 -18.5
q-28 0 -43.5 16t-15.5 42q0 32 24 54q-6 9 -23.5 16t-38.5 7q-47 0 -78 -36t-51 -120l-17 -72h166l128 5l-111 -437q-31 -122 -75.5 -174.5t-123.5 -52.5q-50 0 -77.5 20.5t-27.5 51.5q0 25 16.5 42.5t41.5 17.5q24 0 38 -16t14 -38q0 -31 -22 -46q12 -5 18 -5
q25 0 43.5 26.5t36.5 98.5l116 474h-187z" />
    <glyph glyph-name="f_k" unicode="fk" horiz-adv-x="826" 
d="M257 425l-70 -328q-36 -168 -86 -233t-140 -65q-54 0 -83 21t-29 57q0 26 17.5 43.5t42.5 17.5t39.5 -16t14.5 -39q0 -30 -26 -50q12 -7 29 -7q31 0 53.5 33t43.5 128l96 438h-112l9 33h108l7 29q52 226 235 226q59 0 100 -26l104 23l12 -5l-120 -434h36q23 0 43.5 20.5
t37 49.5l34 57.5t43.5 49t58 20.5q31 0 49 -18.5t18 -45.5q0 -31 -17 -50.5t-44 -19.5q-53 0 -53 50q0 21 11 35q-26 -5 -64 -69t-66 -82v-4q70 -4 98 -29.5t28 -73.5q0 -13 -3.5 -48.5t-3.5 -52.5q0 -19 15 -26.5t65 -7.5v-20q-35 -14 -98 -14q-52 0 -69.5 15.5t-17.5 51.5
q0 21 3.5 58.5t3.5 48.5q0 45 -17.5 63.5t-59.5 18.5h-35l-61 -248h-113l51 162l67 263h-184zM449 458l25 97q-41 11 -41 55q0 31 24 55q-13 21 -55 21q-43 0 -72.5 -35.5t-49.5 -117.5l-17 -75h186z" />
    <glyph glyph-name="f_f_b" unicode="ffb" horiz-adv-x="1127" 
d="M695 713q61 0 100 -26l104 23l13 -5l-88 -305l4 -3q76 71 146 71q55 0 88.5 -40.5t33.5 -111.5q0 -74 -37.5 -148t-107.5 -125t-151 -51q-102 0 -173 59l61 204l43 171l-184 -1l-74 -336q-35 -162 -83.5 -226t-130.5 -64q-51 0 -77.5 19.5t-26.5 51.5q0 24 17.5 42
t41.5 18t38 -15.5t14 -37.5q0 -32 -23 -47q12 -4 19 -4q53 0 80 123l106 476h-190l-70 -317q-37 -171 -88 -240t-140 -69q-53 0 -82 21.5t-29 56.5q0 26 17 43.5t42 17.5t40 -16t15 -39q0 -30 -26 -50q12 -7 29 -7q30 0 53.5 37.5t44.5 134.5l96 427h-112l9 33h108l7 27
q30 119 88 169.5t143 50.5q48 0 81.5 -18t44.5 -47q61 73 166 73zM815 20q49 0 90 46t62.5 112.5t21.5 132.5q0 100 -76 100q-47 0 -97 -48l-76 -299q20 -44 75 -44zM739 459l25 96q-41 11 -41 55q0 32 23 55q-13 21 -55 21q-43 0 -72 -35t-49 -118l-18 -75zM461 487
q7 30 19 64h-3q-27 0 -42.5 15.5t-15.5 40.5q0 32 22 54q-10 17 -44 17q-41 0 -69.5 -34t-46.5 -113l-17 -73h190z" />
    <glyph glyph-name="f_f_h" unicode="ffh" horiz-adv-x="1142" 
d="M164 458l7 27q30 119 88 169.5t143 50.5q48 0 81.5 -18t44.5 -47q61 73 166 73q61 0 100 -26l104 23l13 -5l-94 -327l3 -3q99 91 182 91q46 0 70.5 -24.5t24.5 -68.5q0 -31 -11 -64l-65 -201q-10 -29 -10 -47q0 -20 19 -26.5t67 -4.5v-21q-45 -17 -100 -17q-87 0 -87 63
q0 20 9 49l63 194q10 31 10 54q0 51 -55 51q-54 0 -129 -61l-84 -342h-112l51 162l66 263h-183l-74 -336q-35 -162 -83.5 -226t-130.5 -64q-51 0 -77.5 19.5t-26.5 51.5q0 24 17.5 42t41.5 18t38 -15.5t14 -37.5q0 -32 -23 -47q12 -4 19 -4q53 0 80 123l106 476h-190
l-70 -317q-37 -171 -88 -240t-140 -69q-53 0 -82 21.5t-29 56.5q0 26 17 43.5t42 17.5t40 -16t15 -39q0 -30 -26 -50q12 -7 29 -7q30 0 53.5 37.5t44.5 134.5l96 427h-112l9 33h108zM738 458l25 97q-41 11 -41 55q0 32 23 55q-13 21 -55 21q-43 0 -72 -35t-49 -118l-18 -75
h187zM460 487q7 30 19 64h-3q-27 0 -42.5 15.5t-15.5 40.5q0 32 22 54q-10 17 -44 17q-41 0 -69.5 -34t-46.5 -113l-17 -73h190z" />
    <glyph glyph-name="f_f_j" unicode="ffj" horiz-adv-x="868" 
d="M164 458l7 27q30 119 88 169.5t143 50.5q48 0 82 -18.5t45 -47.5q63 74 172 74q67 0 109.5 -29t42.5 -69q0 -27 -16.5 -45.5t-41.5 -18.5q-28 0 -44 16t-16 42q0 32 24 54q-15 23 -61 23q-47 0 -78.5 -36t-51.5 -120l-17 -72h167l128 5l-111 -437q-31 -122 -76 -174.5
t-125 -52.5q-50 0 -77 20t-27 52q0 24 16.5 42t40.5 18q25 0 39 -16t14 -38q0 -32 -23 -46q15 -5 19 -5q25 0 43.5 26.5t36.5 98.5l116 474h-186l-74 -336q-35 -162 -83.5 -226t-130.5 -64q-51 0 -77.5 19.5t-26.5 51.5q0 24 17.5 42t41.5 18t38 -15.5t14 -37.5
q0 -32 -23 -47q12 -4 19 -4q53 0 80 123l106 476h-190l-70 -317q-37 -171 -88 -240t-140 -69q-53 0 -82 21.5t-29 56.5q0 26 17 43.5t42 17.5t40 -16t15 -39q0 -30 -26 -50q12 -7 29 -7q30 0 53.5 37.5t44.5 134.5l96 427h-112l9 33h108zM460 487q8 39 19 64h-3
q-27 0 -42.5 15.5t-15.5 40.5q0 32 22 54q-10 17 -44 17q-41 0 -69.5 -34t-46.5 -113l-17 -73h190z" />
    <glyph glyph-name="f_f_k" unicode="ffk" horiz-adv-x="1114" 
d="M164 458l7 27q30 119 88 169.5t143 50.5q48 0 81.5 -18t44.5 -47q61 73 166 73q61 0 100 -26l104 23l13 -5l-121 -434h37q27 0 52.5 31t43.5 67.5t49.5 67.5t69.5 31q32 0 50 -18.5t18 -45.5q0 -31 -17 -50.5t-44 -19.5q-24 0 -39 12.5t-15 37.5q0 18 11 35
q-20 -4 -40 -33t-42.5 -65.5t-46.5 -52.5v-4q69 -4 97 -29.5t28 -73.5q0 -13 -3 -48.5t-3 -52.5q0 -19 14.5 -26.5t65.5 -7.5v-20q-37 -14 -98 -14q-52 0 -70 15.5t-18 51.5q0 21 4 58.5t4 48.5q0 45 -18 63.5t-60 18.5h-35l-61 -248h-112l51 162l66 263h-183l-74 -336
q-35 -162 -83.5 -226t-130.5 -64q-51 0 -77.5 19.5t-26.5 51.5q0 24 17.5 42t41.5 18t38 -15.5t14 -37.5q0 -32 -23 -47q12 -4 19 -4q53 0 80 123l106 476h-190l-70 -317q-37 -171 -88 -240t-140 -69q-53 0 -82 21.5t-29 56.5q0 26 17 43.5t42 17.5t40 -16t15 -39
q0 -30 -26 -50q12 -7 29 -7q30 0 53.5 37.5t44.5 134.5l96 427h-112l9 33h108zM738 458l25 97q-41 11 -41 55q0 32 23 55q-13 21 -55 21q-43 0 -72 -35t-49 -118l-18 -75h187zM460 487q7 30 19 64h-3q-27 0 -42.5 15.5t-15.5 40.5q0 32 22 54q-10 17 -44 17q-41 0 -69.5 -34
t-46.5 -113l-17 -73h190z" />
    <glyph glyph-name=".notdef" horiz-adv-x="500" 
d="M0 -200v1000h500v-1000h-500zM71 750l179 -390l179 390h-358zM50 -76l172 376l-172 376v-752zM450 676l-172 -376l172 -376v752zM250 240l-179 -390h358z" />
    <glyph glyph-name=".null" horiz-adv-x="0" 
 />
    <glyph glyph-name="nonmarkingreturn" horiz-adv-x="333" 
 />
    <glyph glyph-name="space" unicode=" " horiz-adv-x="184" 
 />
    <glyph glyph-name="exclam" unicode="!" horiz-adv-x="269" 
d="M139 188l-25 6q17 91 35.5 245t29.5 195q19 70 72 70q27 0 42 -17.5t15 -47.5q0 -29 -23.5 -90.5t-69.5 -169t-76 -191.5zM90 -16q-29 0 -49.5 19.5t-20.5 47.5t20.5 48t49.5 20t49 -19.5t20 -47.5t-20.5 -48t-48.5 -20z" />
    <glyph glyph-name="quotedbl" unicode="&#x22;" horiz-adv-x="429" 
d="M110 416l-19 11l46 102q44 96 65 125.5t48 29.5q20 0 33 -13t13 -30q0 -21 -21 -50.5t-84 -93.5zM299 416l-19 11l46 102q43 96 64 125.5t49 29.5q19 0 32 -13t13 -30q0 -21 -21 -51t-83 -93z" />
    <glyph glyph-name="numbersign" unicode="#" horiz-adv-x="685" 
d="M384 685l-65 -213h191l65 213h40l-65 -213h141l-2 -35h-149l-71 -231h151l-3 -35h-158l-65 -213h-40l64 213h-190l-65 -213h-40l64 213h-140l3 35h148l70 231h-150l3 35h158l65 213h40zM309 437l-71 -231h191l70 231h-190z" />
    <glyph glyph-name="dollar" unicode="$" horiz-adv-x="557" 
d="M220 -67l-37 6l22 82q-78 11 -125.5 45.5t-47.5 84.5q0 32 20.5 56t55.5 24q25 0 40.5 -16.5t15.5 -39.5q0 -49 -54 -66q9 -19 39 -35t67 -24l65 233l-1 1q-80 35 -117.5 69t-37.5 90q0 74 66 128.5t174 54.5q3 0 8 -0.5t7 -0.5l20 74l38 -5l-19 -73q66 -11 109 -45.5
t43 -77.5q0 -31 -19 -53t-48 -22q-26 0 -42 15t-16 39q0 20 13 37.5t35 24.5q-25 40 -86 54l-61 -220q38 -17 60.5 -30t47.5 -32.5t36.5 -44.5t11.5 -57q0 -74 -64 -133t-171 -59h-24zM407 157q0 36 -23.5 62t-70.5 50l-63 -225h18q66 0 102.5 32.5t36.5 80.5zM221 494
q0 -35 22.5 -58t71.5 -47l58 208q-2 0 -6 0.5t-6 0.5q-60 0 -99.5 -28.5t-40.5 -75.5z" />
    <glyph glyph-name="percent" unicode="%" horiz-adv-x="816" 
d="M407 600q39 -21 95 -21q95 0 188 89h40l-549 -694h-57l512 618l-3 3q-71 -51 -158 -51q-32 0 -58 5v-1q0 -53 -27.5 -115t-80.5 -109.5t-113 -47.5q-58 0 -88.5 32.5t-30.5 86.5q0 90 75 174.5t167 84.5q66 0 88 -54zM568 -14q-58 0 -88.5 32.5t-30.5 86.5q0 90 75 174.5
t167 84.5q47 0 72.5 -28t25.5 -80q0 -51 -27.5 -113t-80.5 -109.5t-113 -47.5zM581 17q44 0 86 42t65 97.5t23 100.5q0 67 -51 67q-62 0 -119 -83t-57 -157q0 -67 53 -67zM383 559q-43 13 -82 49q-55 -20 -99.5 -95.5t-44.5 -138.5q0 -67 52 -67q45 0 86.5 42t64.5 97.5
t23 101.5v11z" />
    <glyph glyph-name="ampersand" unicode="&#x26;" horiz-adv-x="701" 
d="M344 375q112 65 112 176q0 34 -16.5 52.5t-45.5 19.5q-38 0 -68.5 -33.5t-30.5 -85.5q0 -60 49 -129zM254 321q-120 -62 -120 -169q0 -49 27.5 -79t77.5 -30q60 0 129 66q-33 110 -114 212zM447 195q105 164 183 164q35 0 54 -18.5t19 -51.5q0 -26 -18 -46t-44 -20
q-24 0 -41.5 15t-17.5 37q0 11 4 20l-2 4q-52 -25 -126 -129q23 -71 48 -96.5t59 -25.5q32 0 71 30l13 -16q-72 -79 -137 -79q-104 0 -136 103q-92 -103 -195 -103q-80 0 -120.5 42t-40.5 97q0 76 56.5 132t164.5 85q-40 66 -40 120q0 80 62 134.5t137 54.5q68 0 107 -33
t39 -82q0 -105 -189 -177q63 -78 90 -161z" />
    <glyph glyph-name="quotesingle" unicode="'" horiz-adv-x="240" 
d="M110 416l-19 11l46 102q44 96 65 125.5t48 29.5q20 0 33 -13t13 -30q0 -21 -21 -50.5t-84 -93.5z" />
    <glyph glyph-name="parenleft" unicode="(" horiz-adv-x="375" 
d="M299 -162q-100 51 -162.5 144t-62.5 215q0 100 40.5 194t106.5 163t146.5 118.5t163.5 70.5l7 -21q-106 -39 -188 -127.5t-125.5 -202.5t-43.5 -235q0 -195 133 -300z" />
    <glyph glyph-name="parenright" unicode=")" horiz-adv-x="375" 
d="M-124 -161l-7 21q106 39 188 127.5t125.5 202.5t43.5 235q0 195 -133 301l15 18q100 -51 162.5 -144t62.5 -214q0 -100 -40.5 -194t-106.5 -163.5t-146.5 -119t-163.5 -70.5z" />
    <glyph glyph-name="asterisk" unicode="*" horiz-adv-x="430" 
d="M363 362q-15 -6 -29.5 2t-22.5 28q-12 28 -15 123l-13 3q-53 -89 -69 -102q-36 -30 -60 -2q-23 28 12 58q22 19 111 53v12q-102 23 -119 34q-39 25 -20 57t59 6q22 -15 85 -89l11 4q-9 100 -4 124q11 45 47 37q16 -4 23.5 -18.5t2.5 -35.5q-7 -30 -61 -110l8 -8
q97 40 117 42q46 3 49 -34t-43 -40q-22 -2 -121 22l-7 -9q68 -78 76 -99q16 -44 -17 -58z" />
    <glyph glyph-name="plus" unicode="+" horiz-adv-x="542" 
d="M376 534l-53 -198h196l-10 -40h-197l-53 -200h-44l53 200h-198l11 40h198l53 198h44z" />
    <glyph glyph-name="comma" unicode="," horiz-adv-x="244" 
d="M-63 -149l-8 21q125 52 150 116l-5 3q-28 -1 -45.5 16.5t-17.5 43.5q0 29 19.5 48.5t48.5 19.5t49 -22t20 -56q0 -56 -52.5 -105t-158.5 -85z" />
    <glyph glyph-name="hyphen" unicode="-" horiz-adv-x="356" 
d="M47 227l15 57h259l-15 -57h-259z" />
    <glyph glyph-name="period" unicode="." horiz-adv-x="244" 
d="M80 -16q-29 0 -49.5 19.5t-20.5 47.5t20.5 48t49.5 20t49 -19.5t20 -47.5t-20 -48t-49 -20z" />
    <glyph glyph-name="slash" unicode="/" horiz-adv-x="444" 
d="M-120 -209l330 467l326 467h46l-330 -467l-326 -467h-46z" />
    <glyph glyph-name="zero" unicode="0" horiz-adv-x="604" 
d="M161 157q0 -141 94 -141q69 0 125.5 83t84 188.5t27.5 195.5q0 140 -95 140q-52 0 -98 -48.5t-75 -121.5t-46 -152t-17 -144zM603 417q0 -69 -24.5 -143.5t-67 -139.5t-111 -107t-147.5 -42q-94 0 -149 63.5t-55 174.5q0 55 15 114t45 115.5t71 101.5t98 72.5t121 27.5
q94 0 149 -63.5t55 -173.5z" />
    <glyph glyph-name="one" unicode="1" horiz-adv-x="423" 
d="M-16 0l5 24q72 3 99 12.5t34 35.5l120 453q12 45 -6.5 62t-97.5 18l7 24l243 18l-154 -575q-7 -26 16 -35.5t96 -12.5l-6 -24h-356z" />
    <glyph glyph-name="two" unicode="2" horiz-adv-x="548" 
d="M-7 0l17 74l221 156q115 80 162 143t47 138q0 113 -102 113q-37 0 -69.5 -17t-50.5 -46q54 -17 54 -73q0 -29 -20 -51.5t-52 -22.5t-52 21t-20 55q0 67 68 115.5t160 48.5q96 0 148.5 -42t52.5 -107q0 -71 -65.5 -135t-235.5 -172l-159 -103l-1 -6h228q53 0 80 20t67 84
l22 -2l-55 -191h-445z" />
    <glyph glyph-name="three" unicode="3" horiz-adv-x="549" 
d="M218 314l9 30q121 3 176 52q49 45 49 123q0 48 -27.5 77t-82.5 29q-70 0 -110 -46q46 -18 46 -65q0 -28 -18 -49t-49 -21q-30 0 -50 20t-20 49q0 61 62.5 101t156.5 40q99 0 152 -40.5t53 -104.5q0 -67 -65 -117.5t-198 -63.5l-1 -6q98 -9 146.5 -49t48.5 -100
q0 -81 -72.5 -134.5t-184.5 -53.5q-95 0 -154.5 40t-59.5 99q0 35 20.5 58t53.5 23q29 0 47 -19.5t18 -46.5q0 -53 -50 -73q13 -21 45 -36.5t72 -15.5q64 0 102 38q49 47 49 134q0 60 -39 90t-125 38z" />
    <glyph glyph-name="four" unicode="4" horiz-adv-x="573" 
d="M550 198h-138l-34 -131q-7 -23 11.5 -32t70.5 -11l-6 -24h-298l6 24q52 1 75 11t29 32l35 131h-285l14 51l419 395l80 -3l-99 -377h136zM386 541l-292 -277h224l74 275z" />
    <glyph glyph-name="five" unicode="5" horiz-adv-x="543" 
d="M220 -15q-86 0 -140 38t-54 97q0 33 21 58t55 25q30 0 47 -19t17 -46q0 -53 -48 -74q25 -50 105 -50q78 0 120 68.5t42 154.5q0 122 -112 122q-70 0 -143 -47l-20 12l95 316h381l-41 -97h-330l-61 -191q81 42 151 42q91 0 142.5 -43t51.5 -119q0 -99 -79 -173t-200 -74z
" />
    <glyph glyph-name="six" unicode="6" horiz-adv-x="558" 
d="M249 -15q-95 0 -147.5 59.5t-51.5 153.5q0 193 147 318.5t388 142.5l-1 -26q-309 -51 -397 -289l5 -3q74 88 170 88q76 0 119.5 -46t43.5 -121q0 -107 -79 -192t-197 -85zM247 15q70 0 118.5 88t48.5 185q0 54 -21 81.5t-58 27.5q-69 0 -124.5 -78t-55.5 -179
q0 -125 92 -125z" />
    <glyph glyph-name="seven" unicode="7" horiz-adv-x="519" 
d="M40 -10v17l471 538h-252q-48 0 -72 -21t-63 -94l-23 1l60 209h430l7 -25l-261 -356l-184 -269h-113z" />
    <glyph glyph-name="eight" unicode="8" horiz-adv-x="550" 
d="M246 -15q-104 0 -159.5 43t-55.5 109q0 63 49.5 109t140.5 72q-90 61 -90 138q0 80 68.5 139t167.5 59q92 0 144 -42.5t52 -104.5q0 -113 -176 -167q55 -34 83 -69.5t28 -86.5q0 -88 -75.5 -143.5t-176.5 -55.5zM256 297q-4 1 -7 4q-56 -26 -87.5 -69t-31.5 -92
q0 -55 34 -89.5t89 -34.5q58 0 96 34.5t38 97.5q0 46 -30.5 77.5t-100.5 71.5zM240 498q0 -42 28.5 -74t90.5 -68q50 28 78 71t28 91q0 49 -27 77.5t-77 28.5q-51 0 -86 -34.5t-35 -91.5z" />
    <glyph glyph-name="nine" unicode="9" horiz-adv-x="555" 
d="M362 654q94 0 146.5 -59.5t52.5 -154.5q-1 -192 -147.5 -317.5t-387.5 -142.5v26q313 54 396 286l-5 3q-68 -84 -167 -84q-77 0 -121 46t-44 122q0 107 79.5 191t197.5 84zM362 625q-46 0 -85 -43t-59.5 -105t-20.5 -122q0 -112 82 -112q68 0 121.5 77t53.5 179
q0 59 -23 92.5t-69 33.5z" />
    <glyph glyph-name="colon" unicode=":" horiz-adv-x="249" 
d="M82 -16q-29 0 -49 19.5t-20 47.5t20 48t49 20t49 -19.5t20 -47.5t-20 -48t-49 -20zM157 275q-29 0 -49.5 19.5t-20.5 47.5t20.5 48t49.5 20t49 -20t20 -48t-20.5 -47.5t-48.5 -19.5z" />
    <glyph glyph-name="semicolon" unicode=";" horiz-adv-x="249" 
d="M157 275q-29 0 -49.5 19.5t-20.5 47.5t20.5 48t49.5 20t49 -20t20 -48t-20.5 -47.5t-48.5 -19.5zM-61 -149l-8 21q127 53 150 116l-5 3q-28 -1 -45.5 16.5t-17.5 43.5q0 29 19.5 48.5t48.5 19.5t49 -22t20 -56q0 -56 -52.5 -105t-158.5 -85z" />
    <glyph glyph-name="less" unicode="&#x3c;" horiz-adv-x="538" 
d="M428 95l-329 203l10 37l434 203l-13 -49l-382 -176l292 -175z" />
    <glyph glyph-name="equal" unicode="=" horiz-adv-x="538" 
d="M476 199h-429l10 40h429zM526 393h-429l10 40h429z" />
    <glyph glyph-name="greater" unicode="&#x3e;" horiz-adv-x="538" 
d="M155 538l329 -203l-10 -37l-434 -203l13 49l382 176l-292 175z" />
    <glyph glyph-name="question" unicode="?" horiz-adv-x="467" 
d="M202 190l-35 7l37 140q106 25 157.5 85.5t51.5 140.5q0 55 -29 84t-82 29q-38 0 -67.5 -16.5t-43.5 -40.5q24 -8 37 -27t13 -41q1 -26 -17.5 -45.5t-48.5 -19.5t-49 20t-19 50q-1 60 57 104t143 44q100 0 158.5 -48t58.5 -121q0 -85 -76 -142.5t-212 -78.5zM153 -16
q-29 0 -49 19.5t-20 47.5t20 48t49 20t49 -19.5t20 -47.5t-20 -48t-49 -20z" />
    <glyph glyph-name="at" unicode="@" horiz-adv-x="899" 
d="M447 -146q-171 0 -276 100.5t-105 267.5q0 198 132.5 330t331.5 132q145 0 241 -86.5t96 -222.5q0 -142 -77.5 -228.5t-176.5 -86.5q-57 0 -86 22t-30 61l-5 1q-60 -75 -127 -75q-52 0 -81.5 32.5t-29.5 90.5q0 104 74 194.5t166 90.5q70 0 91 -63h5l20 55l92 9l-59 -140
l-52 -143q-11 -31 -11 -51q0 -49 53 -49q73 0 136 79t63 198q0 122 -86 202.5t-221 80.5q-184 0 -304 -125t-120 -307q0 -150 94.5 -245t255.5 -95q135 0 257 85l15 -24q-128 -90 -276 -90zM408 118q45 0 93 71l67 177q-2 38 -19 59t-45 21q-62 0 -109 -88.5t-47 -165.5
q0 -74 60 -74z" />
    <glyph glyph-name="A" unicode="A" horiz-adv-x="683" 
d="M-56 0l6 24q54 11 87.5 41t80.5 106l320 517h62l81 -578q6 -48 21 -63.5t67 -22.5l-6 -24h-303l6 24q66 3 83.5 19.5t11.5 62.5l-18 150h-230l-61 -102q-42 -69 -34.5 -94t69.5 -36l-7 -24h-236zM439 286l-33 280h-7l-169 -280h209z" />
    <glyph glyph-name="B" unicode="B" horiz-adv-x="666" 
d="M293 371h63q94 0 143.5 49.5t49.5 124.5q0 53 -31.5 78t-104.5 25h-46zM201 30h98q100 0 146.5 54.5t46.5 139.5q0 116 -156 116h-51zM147 653l6 25h268q130 0 189.5 -39.5t59.5 -102.5q0 -69 -61 -116.5t-174 -62.5l-1 -4q186 -26 186 -152q0 -82 -84.5 -141.5
t-241.5 -59.5h-322l7 25q63 2 86 12.5t30 36.5l142 530q6 25 -11 35.5t-79 13.5z" />
    <glyph glyph-name="C" unicode="C" horiz-adv-x="682" 
d="M330 -17q-120 0 -195 78.5t-75 202.5q0 79 30.5 156t83 138t131.5 98.5t169 37.5q92 0 168 -50l50 48h27l-63 -237h-27q-28 117 -62 163.5t-98 46.5q-77 0 -144 -66t-103.5 -161.5t-36.5 -188.5q0 -103 50 -159.5t138 -56.5q131 0 247 160l25 -15q-135 -195 -315 -195z
" />
    <glyph glyph-name="D" unicode="D" horiz-adv-x="746" 
d="M95 74l141 530q7 25 -10 35.5t-80 13.5l7 25h257q166 0 248 -77t82 -199q0 -73 -29.5 -149t-87.5 -134q-121 -119 -314 -119h-337l7 25q63 2 86 12.5t30 36.5zM202 30h112q106 0 181 75q61 61 92 159t31 187q0 197 -195 197h-57z" />
    <glyph glyph-name="E" unicode="E" horiz-adv-x="674" 
d="M153 678h558l-51 -206h-28q-13 104 -38 139t-107 35h-121l-73 -273h56q56 0 82.5 18.5t68.5 89.5h25l-67 -262h-25q-6 80 -21 101.5t-69 21.5h-58l-83 -310h138q50 0 86.5 10.5t66.5 37t51.5 57t53.5 85.5h30l-64 -222h-592l7 25q63 2 86 12.5t30 36.5l141 530
q7 25 -10 35.5t-80 13.5z" />
    <glyph glyph-name="F" unicode="F" horiz-adv-x="639" 
d="M306 0h-334l7 25q63 2 86 12.5t30 36.5l141 530q7 25 -10 35.5t-80 13.5l7 25h555l-51 -211h-27q-13 104 -40 141.5t-109 37.5h-115l-76 -285h60q56 0 80.5 17t66.5 87h25l-68 -257h-24q-6 80 -20.5 101t-67.5 21h-61l-68 -255q-7 -27 12 -37t88 -13z" />
    <glyph glyph-name="G" unicode="G" horiz-adv-x="719" 
d="M721 692l-61 -226h-27q-33 114 -65.5 156.5t-96.5 42.5q-60 0 -114.5 -40.5t-91.5 -103.5t-58.5 -139t-21.5 -149q0 -102 47 -161t125 -59q67 0 117 36l51 192q6 26 -11 37.5t-81 14.5l7 25h292l-7 -25q-45 -2 -61 -12t-24 -38l-53 -193q-126 -67 -244 -67
q-127 0 -205 79t-78 203q0 78 30.5 155t83 138t131.5 98.5t169 37.5q94 0 171 -49l49 47h27z" />
    <glyph glyph-name="H" unicode="H" horiz-adv-x="811" 
d="M397 0l7 25q61 3 80 12.5t27 37.5l71 261h-298l-71 -262q-7 -27 9 -36.5t77 -12.5l-7 -25h-320l7 25q63 2 86 12.5t30 36.5l141 530q7 25 -10 35.5t-80 13.5l7 25h316l-7 -25q-61 -3 -80.5 -13t-26.5 -37l-64 -236h298l63 237q7 26 -8 36t-76 13l6 25h320l-6 -25
q-63 -3 -87 -13.5t-30 -35.5l-142 -530q-7 -26 10.5 -36.5t80.5 -12.5l-7 -25h-316z" />
    <glyph glyph-name="I" unicode="I" horiz-adv-x="416" 
d="M484 653q-63 -3 -87.5 -13.5t-31.5 -35.5l-142 -530q-7 -27 11.5 -37t83.5 -12l-7 -25h-331l7 25q63 2 87 12.5t31 36.5l142 530q7 26 -11 36t-83 13l7 25h330z" />
    <glyph glyph-name="J" unicode="J" horiz-adv-x="565" 
d="M171 -17q-82 0 -129.5 34.5t-47.5 91.5q0 36 26 65t61 29q31 0 49.5 -18.5t18.5 -48.5q0 -28 -17 -50t-47 -29q10 -19 31.5 -31t48.5 -12q55 0 87 37t55 123l115 429q7 27 -11.5 37t-86.5 13l7 25h335l-7 -25q-63 -3 -87.5 -13.5t-30.5 -35.5l-109 -406
q-58 -215 -261 -215z" />
    <glyph glyph-name="K" unicode="K" horiz-adv-x="753" 
d="M828 678l-6 -24q-60 -13 -102.5 -36.5t-118.5 -83.5l-153 -124l133 -296q22 -49 42.5 -65t74.5 -26l-6 -23h-312l6 23q60 6 74 22.5t-4 55.5l-101 234l-92 -74l-50 -187q-7 -27 7.5 -36.5t69.5 -12.5l-7 -25h-311l7 25q63 2 86 12.5t30 36.5l141 530q7 25 -10 35.5
t-80 13.5l7 25h316l-7 -25q-61 -3 -80.5 -13t-26.5 -37l-79 -296l294 242q107 88 -12 105l6 24h264z" />
    <glyph glyph-name="L" unicode="L" horiz-adv-x="626" 
d="M355 603l-153 -572h101q48 0 80.5 9t64 36.5t55.5 60t65 97.5h31l-69 -234h-557l6 25q63 2 86 12.5t30 36.5l141 530q7 25 -10 35.5t-80 13.5l7 25h321l-6 -25q-62 -3 -84.5 -14t-28.5 -36z" />
    <glyph glyph-name="M" unicode="M" horiz-adv-x="956" 
d="M147 653l7 25h244l63 -518h5l326 518h248l-7 -25q-63 -3 -86.5 -13.5t-29.5 -35.5l-142 -530q-7 -26 10.5 -36.5t80.5 -12.5l-7 -25h-311l7 25q56 3 75 12.5t27 37.5l144 536h-8l-388 -613h-39l-78 613h-7l-119 -454q-20 -70 -5 -97t82 -36l-6 -24h-261l6 24
q66 6 95.5 34t49.5 101l113 426q9 32 -9 48.5t-80 19.5z" />
    <glyph glyph-name="N" unicode="N" horiz-adv-x="788" 
d="M351 678l249 -529h3l98 370q19 72 2.5 99t-86.5 36l6 24h260l-6 -24q-67 -10 -93 -37t-45 -100l-142 -531h-50l-274 580h-3l-109 -407q-20 -70 -3.5 -98.5t85.5 -36.5l-6 -24h-264l6 24q68 9 96.5 37t47.5 100l109 407q9 36 -10 59.5t-75 25.5l7 25h197z" />
    <glyph glyph-name="O" unicode="O" 
d="M331 -17q-119 0 -195 78t-76 201q0 79 30 156t82.5 138.5t130.5 99.5t166 38q119 0 195 -78t76 -201q0 -78 -30 -155.5t-82.5 -139t-130.5 -99.5t-166 -38zM329 13q81 0 149.5 73.5t105 177.5t36.5 204q0 93 -38 145t-111 52q-81 0 -149.5 -73.5t-105 -178t-36.5 -204.5
q0 -92 38 -144t111 -52z" />
    <glyph glyph-name="P" unicode="P" horiz-adv-x="631" 
d="M280 322h61q55 0 96 18.5t63 49.5t32.5 66.5t10.5 74.5q0 59 -30.5 88t-99.5 29h-46zM146 653l7 25h259q138 0 196 -46.5t58 -119.5q0 -89 -81.5 -154t-234.5 -65h-78l-59 -218q-7 -27 11 -37t82 -13l-7 -25h-327l7 25q63 2 86 12.5t30 36.5l141 530q7 25 -10 35.5
t-80 13.5z" />
    <glyph glyph-name="Q" unicode="Q" 
d="M60 263q0 106 50 204t145.5 162.5t213.5 64.5q119 0 195 -77.5t76 -200.5q0 -104 -49.5 -201t-142 -162t-205.5 -68q29 -14 56.5 -43t44 -55t38.5 -46t44 -20q15 0 24 8.5t9 20.5t-15.5 29.5t-15.5 36.5q0 25 17 42.5t42 17.5t42 -18.5t17 -46.5q0 -55 -48 -88.5
t-119 -33.5q-41 0 -75 16t-55 39.5t-39.5 46.5t-38.5 39t-42 16q-34 0 -62 -19t-66 -63l-18 18q74 96 165 114q-86 24 -137 95.5t-51 171.5zM619 469q0 92 -37.5 144t-110.5 52q-61 0 -116.5 -43.5t-93 -111t-59.5 -147t-22 -153.5q0 -92 38 -144t111 -52q81 0 149.5 73.5
t104.5 177.5t36 204z" />
    <glyph glyph-name="R" unicode="R" horiz-adv-x="691" 
d="M288 355h65q98 0 149 54t51 130q0 55 -30.5 82t-101.5 27h-54zM146 653l7 25h273q251 0 251 -150q0 -71 -61 -121t-176 -64l-1 -4q89 -11 119 -46t25 -112l-4 -73q-2 -53 14 -69.5t73 -19.5l-7 -25q-5 0 -26.5 -0.5t-30.5 -0.5q-54 0 -85.5 7t-46 22t-16.5 39t2 58l8 78
q8 71 -15 99.5t-101 28.5h-68l-67 -251q-7 -27 10 -36.5t78 -12.5l-7 -25h-322l7 25q63 2 86 12.5t30 36.5l141 530q7 25 -10 35.5t-80 13.5z" />
    <glyph glyph-name="S" unicode="S" horiz-adv-x="556" 
d="M-7 -18l59 230h27q39 -113 82.5 -155.5t109.5 -42.5t104.5 39t38.5 95q0 47 -31 82.5t-104 69.5q-79 38 -113.5 75.5t-34.5 99.5q0 87 70.5 152t180.5 65q80 0 150 -41l49 46h26l-53 -216h-27q-36 107 -71.5 144.5t-93.5 37.5q-56 0 -92.5 -37t-36.5 -92q0 -21 8.5 -39
t16.5 -29t33.5 -27t34.5 -20.5l45 -23.5q70 -36 104.5 -75.5t34.5 -102.5q0 -95 -65.5 -163.5t-188.5 -68.5q-47 0 -98.5 13.5t-86.5 33.5l-52 -50h-26z" />
    <glyph glyph-name="T" unicode="T" horiz-adv-x="678" 
d="M236 74l153 573h-43q-63 0 -103 -37t-119 -155h-30l67 223h593l-56 -223h-27q-18 119 -38 155.5t-83 36.5h-42l-154 -573q-7 -27 13 -37t88 -12l-7 -25h-343l7 25q67 2 92 12.5t32 36.5z" />
    <glyph glyph-name="U" unicode="U" horiz-adv-x="768" 
d="M336 603l-93 -350q-12 -45 -12 -82q0 -67 38.5 -105.5t112.5 -38.5q90 0 143.5 48t81.5 155l78 293q19 69 2 95.5t-86 35.5l7 24h258l-7 -24q-67 -10 -91.5 -35t-43.5 -98l-85 -317q-28 -107 -96 -164t-203 -57q-110 0 -168.5 53.5t-58.5 141.5q0 37 11 79l93 347
q7 25 -10 35.5t-80 13.5l7 25h316l-7 -25q-61 -3 -80.5 -13t-26.5 -37z" />
    <glyph glyph-name="V" unicode="V" horiz-adv-x="690" 
d="M811 654q-52 -9 -86.5 -39t-79.5 -101l-340 -527h-58l-67 589q-5 38 -22 53t-70 25l6 24h309l-6 -24q-65 -4 -84.5 -19t-15.5 -53l47 -465h7l251 397q45 72 36 101t-76 39l6 24h249z" />
    <glyph glyph-name="W" unicode="W" horiz-adv-x="1013" 
d="M298 584l42 -452h6l216 356l-7 88q-4 39 -20 55t-67 23l6 24h295l-6 -24q-62 -4 -78.5 -18t-14.5 -52l33 -448h6l210 368q43 76 33.5 108t-75.5 42l6 24h245l-6 -24q-52 -9 -86 -41.5t-74 -103.5l-297 -522h-59l-40 447l-267 -447h-58l-59 588q-4 38 -21 53.5t-70 25.5
l7 24h291l-6 -24q-60 -4 -74.5 -17.5t-10.5 -52.5z" />
    <glyph glyph-name="X" unicode="X" horiz-adv-x="699" 
d="M324 0l6 24q64 4 81 21.5t4 52.5l-73 201l-158 -167q-93 -98 18 -108l-6 -24h-253l7 24q57 8 96.5 32.5t107.5 94.5l176 179l-100 249q-15 37 -36 52.5t-73 22.5l6 24h315l-6 -24q-64 -4 -82.5 -22t-4.5 -52l70 -185l147 151q98 98 -18 108l6 24h252l-6 -24
q-55 -7 -95 -33t-109 -94l-165 -164l104 -266q15 -38 35 -52t76 -21l-7 -24h-315z" />
    <glyph glyph-name="Y" unicode="Y" horiz-adv-x="671" 
d="M624 539l-209 -243l-60 -222q-7 -27 11.5 -37t83.5 -12l-7 -25h-331l7 25q63 2 87 12.5t31 36.5l61 227l-97 286q-11 33 -29.5 45.5t-67.5 21.5l7 24h312l-6 -24q-72 -4 -91 -19t-9 -46l85 -260l173 208q33 39 41 62t-7 36t-59 19l6 24h246l-7 -24q-52 -8 -83.5 -30
t-87.5 -85z" />
    <glyph glyph-name="Z" unicode="Z" horiz-adv-x="648" 
d="M573 647h-167q-65 0 -116.5 -38t-134.5 -148l-31 2l72 215h524v-25l-591 -622h189q69 0 118.5 39t136.5 158l29 -2l-72 -226h-551l1 24z" />
    <glyph glyph-name="bracketleft" unicode="[" horiz-adv-x="357" 
d="M-13 -161l242 904h288l-8 -30h-188l-227 -844h188l-7 -30h-288z" />
    <glyph glyph-name="backslash" unicode="\" horiz-adv-x="444" 
d="M297 -209l-76 467l-79 467h42l76 -467l80 -467h-43z" />
    <glyph glyph-name="bracketright" unicode="]" horiz-adv-x="357" 
d="M-128 -161l9 29h188l226 845h-188l7 29h288l-242 -903h-288z" />
    <glyph glyph-name="asciicircum" unicode="^" horiz-adv-x="356" 
d="M93 516l201 224h30l86 -224h-35l-90 123l-151 -123h-41z" />
    <glyph glyph-name="underscore" unicode="_" horiz-adv-x="443" 
d="M-61 0l10 39h447l-10 -39h-447z" />
    <glyph glyph-name="grave" unicode="`" horiz-adv-x="243" 
d="M289 530l-102 96q-47 45 -47 69q0 19 13.5 32.5t32.5 13.5t32.5 -17t33.5 -61l63 -133h-26z" />
    <glyph glyph-name="a" unicode="a" horiz-adv-x="539" 
d="M471 307l-55 -193q-10 -35 -10 -51q0 -21 18.5 -28t65.5 -5v-21q-49 -17 -94 -17q-43 0 -62.5 13t-19.5 46q0 15 4 30l-4 2q-36 -49 -70 -70t-78 -21q-61 0 -97.5 42t-36.5 117q0 118 85 217.5t184 99.5q41 0 64.5 -15.5t38.5 -46.5l18 51l105 11zM314 437
q-47 0 -88.5 -52t-63 -117.5t-21.5 -115.5q0 -108 74 -108q53 0 104 88l67 226q-6 37 -25.5 58t-46.5 21z" />
    <glyph glyph-name="b" unicode="b" horiz-adv-x="522" 
d="M209 20q49 0 90 46t62.5 112.5t21.5 132.5q0 100 -75 100q-47 0 -97 -48l-77 -299q20 -44 75 -44zM491 316q0 -74 -37.5 -148t-107.5 -125t-152 -51q-102 0 -172 59l60 204l94 371q6 23 -13 34t-70 14v23l214 10l-88 -307l3 -3q77 71 147 71q55 0 88.5 -40.5t33.5 -111.5
z" />
    <glyph glyph-name="c" unicode="c" horiz-adv-x="447" 
d="M295 468q64 0 103 -28t39 -72q0 -29 -17 -48.5t-44 -19.5q-26 0 -42 15t-16 42q0 15 10.5 32.5t28.5 26.5q-17 25 -55 25q-67 0 -115.5 -87t-48.5 -182q0 -65 28 -100.5t82 -35.5q76 0 137 85l20 -18q-75 -111 -191 -111q-80 0 -131.5 50.5t-51.5 135.5q0 111 78.5 200.5
t185.5 89.5z" />
    <glyph glyph-name="d" unicode="d" horiz-adv-x="534" 
d="M581 707l-163 -586q-11 -39 -11 -52q0 -23 19.5 -32t67.5 -7v-21q-42 -17 -97 -17q-43 0 -63 16t-20 52q0 9 1 18l-4 1q-68 -87 -143 -87q-61 0 -98.5 45t-37.5 121q0 73 37.5 145t99 118.5t126.5 46.5q66 0 106 -51l53 208q5 23 -14.5 35t-70.5 15v23zM310 436
q-48 0 -88.5 -51.5t-60.5 -116t-20 -116.5q0 -51 20 -78t56 -27q55 0 100 78l71 240q-23 71 -78 71z" />
    <glyph glyph-name="e" unicode="e" horiz-adv-x="453" 
d="M448 364q0 -64 -79 -107t-230 -42q-3 -24 -3 -47q0 -132 104 -132q81 0 143 84l20 -18q-82 -110 -198 -110q-75 0 -125.5 44.5t-50.5 129.5q0 117 82 209.5t199 92.5q67 0 102.5 -28.5t35.5 -75.5zM303 439q-50 0 -96 -58.5t-63 -140.5q211 6 211 143q0 56 -52 56z" />
    <glyph glyph-name="f" unicode="f" horiz-adv-x="326" 
d="M375 425h-118l-70 -328q-36 -168 -86 -233t-140 -65q-54 0 -83 21t-29 57q0 26 17.5 43.5t42.5 17.5t39.5 -16t14.5 -39q0 -30 -26 -50q12 -7 29 -7q31 0 53.5 33t43.5 128l96 438h-112l9 33h108l7 30q53 225 219 225q57 0 89.5 -24.5t32.5 -63.5q0 -28 -15.5 -46.5
t-41.5 -18.5q-27 0 -42.5 15.5t-15.5 41.5q0 31 22 53q-10 16 -35 16q-69 0 -101 -140l-20 -88h121z" />
    <glyph glyph-name="g" unicode="g" horiz-adv-x="522" 
d="M175 4q-63 0 -102.5 43t-39.5 117q0 71 36 141t97.5 116.5t128.5 46.5q72 0 106 -63l18 52l107 11l-56 -162l-88 -313q-29 -103 -84 -148.5t-163 -45.5q-77 0 -119.5 29t-42.5 68q0 32 19 52.5t48 20.5q26 0 40.5 -15.5t14.5 -40.5q0 -33 -32 -53q17 -34 73 -34
q57 0 93 44t61 139l16 58l-4 2q-56 -65 -127 -65zM308 436q-49 0 -89 -51.5t-58.5 -114t-18.5 -112.5q0 -105 77 -105q52 0 95 61l71 241q-9 36 -28.5 58.5t-48.5 22.5z" />
    <glyph glyph-name="h" unicode="h" horiz-adv-x="544" 
d="M488 309l-65 -201q-10 -29 -10 -47q0 -20 19 -26.5t67 -4.5v-21q-45 -17 -100 -17q-87 0 -87 63q0 20 9 49l64 194q9 33 9 54q0 51 -55 51q-54 0 -128 -61l-85 -342h-112l51 162l118 464q5 23 -14 34t-70 14v23l214 10l-94 -329l3 -3q99 91 182 91q46 0 70.5 -24.5
t24.5 -68.5q0 -31 -11 -64z" />
    <glyph glyph-name="i" unicode="i" horiz-adv-x="306" 
d="M197 620q0 35 22.5 61.5t54.5 26.5q22 0 36.5 -13.5t14.5 -39.5q0 -35 -22.5 -62.5t-54.5 -27.5q-21 0 -36 14.5t-15 40.5zM250 33v-21q-50 -20 -109 -20q-90 0 -90 71q0 20 8 46l85 274q8 23 -9 34t-66 14v23l204 9l-109 -350q-10 -33 -10 -46q0 -22 21.5 -29.5
t74.5 -4.5z" />
    <glyph glyph-name="j" unicode="j" horiz-adv-x="292" 
d="M191 620q0 35 23 61.5t55 26.5q22 0 36 -13.5t14 -39.5q0 -35 -22.5 -62.5t-54.5 -27.5q-21 0 -36 14.5t-15 40.5zM-50 -202q-54 0 -86 21.5t-32 57.5q0 25 17 43t43 18q25 0 39.5 -16t14.5 -39q0 -31 -24 -49q10 -8 27 -8q31 0 54 36t50 147l92 374q5 23 -11.5 34
t-65.5 14v23l201 9l-106 -417q-34 -134 -81 -191t-132 -57z" />
    <glyph glyph-name="k" unicode="k" horiz-adv-x="516" 
d="M313 707l-121 -436h37q27 0 52.5 31t43.5 67.5t49.5 67.5t69.5 31q32 0 50 -18.5t18 -45.5q0 -31 -17 -50.5t-44 -19.5q-24 0 -39 12.5t-15 37.5q0 18 11 35q-20 -4 -40 -33t-42.5 -65.5t-46.5 -52.5v-4q69 -4 97 -29.5t28 -73.5q0 -13 -3 -48.5t-3 -52.5
q0 -19 14.5 -26.5t65.5 -7.5v-20q-37 -14 -98 -14q-52 0 -70 15.5t-18 51.5q0 21 4 58.5t4 48.5q0 45 -18 63.5t-60 18.5h-35l-61 -248h-112l51 162l118 464q6 23 -13.5 34t-70.5 14v23z" />
    <glyph glyph-name="l" unicode="l" horiz-adv-x="293" 
d="M324 707l-172 -597q-8 -26 -8 -41q0 -22 21.5 -29.5t77.5 -4.5v-21q-60 -21 -112 -21q-90 0 -90 71q0 20 8 47l104 347l44 168q6 23 -13 34t-70 14v23z" />
    <glyph glyph-name="m" unicode="m" horiz-adv-x="810" 
d="M249 463l-27 -85l3 -4q100 92 174 92q45 0 69.5 -24t24.5 -67q100 91 177 91q46 0 70.5 -24t24.5 -68q0 -27 -11 -65l-66 -201q-10 -33 -10 -47q0 -20 18.5 -27t67.5 -5v-20q-42 -17 -99 -17q-88 0 -88 63q0 22 10 48l63 195q12 39 12 58q0 47 -50 47q-51 0 -120 -54
q-1 -15 -8 -36l-87 -313h-106l90 299q11 39 11 57q0 47 -53 47q-50 0 -125 -61l-85 -342h-113l52 162l60 220q6 25 -5.5 35.5t-56.5 13.5v23z" />
    <glyph glyph-name="n" unicode="n" horiz-adv-x="547" 
d="M68 162l60 220q6 25 -5.5 35.5t-56.5 13.5v23l183 9l-27 -85l3 -3q98 91 182 91q46 0 70.5 -24t24.5 -68q0 -27 -11 -65l-66 -201q-10 -33 -10 -47q0 -20 19 -26.5t67 -4.5v-21q-42 -17 -99 -17q-87 0 -87 63q0 20 9 49l63 194q10 31 10 54q0 51 -55 51q-56 0 -128 -61
l-85 -342h-113z" />
    <glyph glyph-name="o" unicode="o" horiz-adv-x="503" 
d="M298 468q79 0 127 -52t48 -136q0 -71 -30.5 -136t-93 -108.5t-143.5 -43.5q-79 0 -127.5 51.5t-48.5 135.5q0 113 74 201t194 88zM209 19q50 0 89 57t56.5 126.5t17.5 127.5q0 111 -77 111q-50 0 -89.5 -57t-57 -127t-17.5 -128q0 -110 78 -110z" />
    <glyph glyph-name="p" unicode="p" horiz-adv-x="534" 
d="M230 25q69 0 117.5 90t48.5 195q0 101 -75 101q-50 0 -99 -49l-72 -283q8 -26 31 -40t49 -14zM135 20l-42 -158q-4 -16 15.5 -22t74.5 -8v-23h-280v23q73 3 80 28l40 123l105 400q7 24 -5 34.5t-57 13.5v23l184 9l-20 -65l3 -3q75 73 147 73q55 0 89.5 -41t34.5 -112
q0 -75 -37 -149t-102 -122.5t-138 -48.5q-55 0 -92 25z" />
    <glyph glyph-name="q" unicode="q" horiz-adv-x="526" 
d="M310 436q-50 0 -91 -53t-59.5 -116.5t-18.5 -113.5q0 -51 19.5 -78.5t55.5 -27.5q54 0 101 78l70 236q-8 34 -28 54.5t-49 20.5zM246 -140l69 218l-6 1q-67 -87 -143 -87q-62 0 -98 45t-36 121q0 110 81.5 210t183.5 100q73 0 109 -58l16 47l106 11l-63 -186l-110 -423
q-4 -15 11 -20t65 -7v-23h-276v23q82 3 91 28z" />
    <glyph glyph-name="r" unicode="r" horiz-adv-x="428" 
d="M375 466q33 0 52.5 -20t19.5 -49q0 -35 -18.5 -56.5t-47.5 -21.5q-58 0 -58 53q0 22 12 38q-61 -9 -127 -90l-79 -320h-113l52 162l60 220q6 25 -5.5 35.5t-56.5 13.5v23l183 9l-29 -96l3 -3q79 102 152 102z" />
    <glyph glyph-name="s" unicode="s" horiz-adv-x="414" 
d="M170 -8q-67 0 -113.5 25.5t-46.5 67.5q0 27 16.5 45t42.5 18q23 0 38 -14t15 -38q0 -28 -26 -49q8 -12 33 -20t49 -8q45 0 71.5 22.5t26.5 58.5q0 30 -20.5 49t-70.5 45q-53 25 -80 53t-27 70q0 64 48.5 107.5t130.5 43.5q62 0 103 -27t41 -66q0 -25 -14.5 -42t-41.5 -17
q-22 0 -37.5 14.5t-15.5 34.5q0 31 26 51q-7 10 -27 17.5t-41 7.5q-41 0 -64.5 -22t-23.5 -55q0 -29 20.5 -48t69.5 -45q55 -28 81 -56t26 -70q0 -63 -48 -108t-141 -45z" />
    <glyph glyph-name="t" unicode="t" horiz-adv-x="346" 
d="M373 426h-120l-84 -291q-8 -30 -8 -49q0 -44 55 -44q36 0 87 14l-2 -21q-78 -43 -145 -43q-102 0 -102 82q0 17 9 55l88 297h-88l10 33h88l43 145l109 15l-51 -160h121z" />
    <glyph glyph-name="u" unicode="u" horiz-adv-x="562" 
d="M58 149l75 232q8 25 -4.5 36t-57.5 14v23l186 9l-96 -304q-9 -31 -9 -53q0 -51 60 -51q52 0 123 65l54 183l37 158h111l-107 -351q-9 -30 -9 -47q0 -21 18.5 -28t66.5 -5v-21q-45 -17 -98 -17q-83 0 -83 61q0 17 5 32l-4 3q-87 -96 -177 -96q-51 0 -77 25.5t-26 68.5
q0 25 12 63z" />
    <glyph glyph-name="v" unicode="v" horiz-adv-x="475" 
d="M213 -12l-79 7l-6 170l-27 210q-4 30 -17.5 39t-59.5 10v23l171 17l29 -291l4 -98h11l56 79q80 113 100 182q-47 24 -47 69q0 27 17.5 45.5t44.5 18.5q29 0 45.5 -19.5t16.5 -48.5q0 -33 -20 -70t-78 -117z" />
    <glyph glyph-name="w" unicode="w" horiz-adv-x="728" 
d="M475 -12l-80 7l-6 170l-11 87l-164 -264l-81 7l-7 170l-25 210q-4 30 -17.5 39t-59.5 10v23l171 17l28 -292l3 -96h11l57 94q51 82 77 151l-16 133l104 10l26 -292l5 -97h11l54 79q73 103 96 182q-47 24 -47 69q0 27 17.5 45.5t44.5 18.5q29 0 45.5 -19.5t16.5 -48.5
q0 -33 -19.5 -71.5t-74.5 -115.5z" />
    <glyph glyph-name="x" unicode="x" horiz-adv-x="504" 
d="M226 464l56 -191h6l40 82q58 115 127 115q30 0 48.5 -19.5t18.5 -47.5q0 -26 -16.5 -44t-41.5 -18q-23 0 -38 16t-16 45q-35 -17 -78 -103l-29 -59l59 -152q16 -38 32 -50t61 -13v-22l-164 -7l-58 191h-7l-40 -76q-66 -128 -134 -128q-31 0 -50.5 18.5t-19.5 45.5
q0 26 16.5 43.5t42.5 17.5q24 0 38.5 -17t15.5 -42q35 21 80 102l37 65l-59 155q-13 33 -29.5 43.5t-62.5 11.5v23z" />
    <glyph glyph-name="y" unicode="y" horiz-adv-x="471" 
d="M192 464l31 -201l29 -202h9l51 84q71 116 83 190q-52 22 -52 70q0 27 16.5 45.5t43.5 18.5q29 0 46 -21.5t17 -52.5q0 -37 -28.5 -98t-106.5 -182q-116 -182 -185 -249t-134 -67q-40 0 -62 20.5t-22 53.5q0 27 17.5 46t43.5 19t42.5 -17t16.5 -45q0 -22 -12 -37
q83 27 141 119l-39 222l-36 193q-5 30 -20.5 40t-60.5 11v23z" />
    <glyph glyph-name="z" unicode="z" horiz-adv-x="460" 
d="M3 -15l-20 28l386 369l-2 5l-145 -2q-57 -1 -79 -16t-52 -72l-25 2l43 162h351l10 -27l-373 -358l3 -6q33 11 71 11q19 0 62 -3.5t56 -3.5q42 0 62.5 19.5t33.5 69.5l23 -3q-13 -102 -40.5 -136t-92.5 -34q-34 0 -89.5 8t-80.5 8q-49 0 -102 -21z" />
    <glyph glyph-name="braceleft" unicode="{" horiz-adv-x="403" 
d="M303 -163q-100 4 -155 44t-55 105q0 46 32 130t32 108q0 40 -26 57.5t-101 26.5l8 30q64 4 96 13t54 31q21 21 30 59t10.5 74t18.5 81.5t51 79.5q64 66 233 67l-7 -25q-51 -4 -76.5 -13t-47.5 -31q-32 -32 -45 -87.5l-26.5 -111.5t-46.5 -89q-52 -54 -174 -62l-3 -9
q81 -11 113.5 -40.5t32.5 -79.5q0 -35 -25.5 -114.5t-25.5 -116.5q0 -91 109 -102z" />
    <glyph glyph-name="bar" unicode="|" horiz-adv-x="298" 
d="M129 725h40v-934h-40v934z" />
    <glyph glyph-name="braceright" unicode="}" horiz-adv-x="403" 
d="M-97 -163l7 25q50 3 76.5 12.5t47.5 30.5q25 26 39.5 68.5t19.5 81t20 81.5t41 69q54 54 175 62l3 9q-81 11 -113.5 40.5t-32.5 79.5q0 33 24 107.5t24 111.5q0 91 -109 103l6 25q101 -4 156 -44.5t55 -105.5q0 -45 -31.5 -124t-31.5 -102q0 -40 26 -58t102 -26l-8 -30
q-64 -4 -96 -13t-54 -31q-21 -21 -30.5 -61t-12 -78.5t-19.5 -85.5t-51 -81q-35 -35 -89.5 -50t-143.5 -16z" />
    <glyph glyph-name="asciitilde" unicode="~" horiz-adv-x="373" 
d="M56 250q29 127 103 127q22 0 68.5 -24.5t63.5 -24.5t28.5 11.5t25.5 44.5h27q-27 -127 -103 -127q-21 0 -67.5 24.5t-63.5 24.5t-29 -11.5t-26 -44.5h-27z" />
    <glyph glyph-name="uni00A0" unicode="&#xa0;" horiz-adv-x="184" 
 />
    <glyph glyph-name="exclamdown" unicode="&#xa1;" horiz-adv-x="269" 
d="M246 569q-29 0 -49 19.5t-20 48.5q0 28 20 47.5t49 19.5t49 -19.5t20 -47.5t-20 -48t-49 -20zM197 500l24 -5q-17 -92 -35.5 -245.5t-29.5 -195.5q-19 -70 -71 -70q-27 0 -42 17.5t-15 48.5q0 30 23 90.5t69 168t77 191.5z" />
    <glyph glyph-name="cent" unicode="&#xa2;" horiz-adv-x="497" 
d="M206 -93l-36 5l23 81q-66 11 -106.5 59.5t-40.5 122.5q0 115 81.5 202t193.5 89l20 74l35 -4l-19 -71q60 -7 96 -40.5t36 -77.5q0 -29 -17.5 -49.5t-43.5 -20.5q-25 0 -41 15t-16 39q0 18 12 36t32 28q-17 36 -66 43l-109 -402q8 -2 24 -2q39 0 79 23t68 62l20 -18
q-78 -111 -202 -111h-1zM153 167q0 -89 55 -120l106 390q-68 -13 -114.5 -95t-46.5 -175z" />
    <glyph glyph-name="sterling" unicode="&#xa3;" horiz-adv-x="600" 
d="M479 313h-165v-3q0 -128 -119 -198q24 -3 66.5 -11.5t78.5 -13.5t71 -5q46 0 70.5 20.5t47.5 77.5l28 -4q-25 -99 -71 -145t-115 -46q-46 0 -79.5 13.5t-74 43.5t-51.5 37q-44 -94 -111 -94q-25 0 -41 15t-16 36q0 34 33 58t87 24q17 0 49 -2q37 58 37 139q0 26 -5 58
h-115l9 32h101q-7 45 -7 84q0 99 73.5 162t176.5 63q78 0 123 -37t45 -88q0 -37 -21.5 -61t-53.5 -24q-28 0 -47 16.5t-19 43.5q0 28 17 46.5t42 25.5q-6 20 -29.5 34.5t-57.5 14.5q-60 0 -95.5 -44.5t-35.5 -129.5q0 -10 8 -106h175z" />
    <glyph glyph-name="yen" unicode="&#xa5;" horiz-adv-x="672" 
d="M573 183h-195l-28 -107q-8 -28 10 -38.5t82 -13.5l-7 -24h-325l7 24q65 3 88.5 13.5t30.5 38.5l28 107h-193l8 31h194l17 64l-5 16h-184l8 31h167l-64 225q-9 31 -26 44t-60 22l6 24h295l-6 -25q-65 -3 -81.5 -17.5t-8.5 -44.5l64 -238l160 191q42 49 38.5 74.5
t-60.5 36.5l6 23h225l-6 -23q-45 -8 -77.5 -31t-81.5 -80l-154 -181h166l-9 -31h-184l-15 -18l-17 -62h195z" />
    <glyph glyph-name="brokenbar" unicode="&#xa6;" horiz-adv-x="298" 
d="M169 327h-40v398h40v-398zM129 189h40v-398h-40v398z" />
    <glyph glyph-name="section" unicode="&#xa7;" horiz-adv-x="559" 
d="M209 -139q-87 0 -143 34t-56 83q0 27 18 48.5t48 21.5q24 0 38.5 -15.5t14.5 -36.5q0 -37 -36 -59q8 -18 44 -32.5t75 -14.5q59 0 93.5 29t34.5 70q0 37 -29.5 61t-89.5 50q-64 28 -99 59.5t-35 82.5q0 53 38 93t110 52q-63 44 -63 105q0 66 56.5 114t150.5 48
q78 0 128.5 -33.5t50.5 -78.5q0 -28 -16.5 -47.5t-44.5 -19.5q-25 0 -40 15.5t-15 37.5q0 36 34 54q-9 17 -38 30t-63 13q-54 0 -87 -26.5t-33 -67.5q0 -23 17 -42t36.5 -30t58.5 -29q68 -31 102.5 -63t34.5 -85q0 -50 -34.5 -92.5t-103.5 -59.5q55 -41 55 -98
q0 -68 -57 -119.5t-155 -51.5zM421 238q0 39 -29 64t-90 52q-24 10 -40 18q-43 -7 -66.5 -31.5t-23.5 -58.5t28 -57t84 -49q32 -14 60 -30q37 11 57 36.5t20 55.5z" />
    <glyph glyph-name="dieresis" unicode="&#xa8;" horiz-adv-x="354" 
d="M360 536q-20 0 -34.5 14.5t-14.5 38.5q0 35 22 60t53 25q20 0 34.5 -14t14.5 -38q0 -34 -22 -60t-53 -26zM167 536q-21 0 -35.5 14.5t-14.5 38.5q0 35 22 60t53 25q21 0 35 -14t14 -38q0 -34 -22 -60t-52 -26z" />
    <glyph glyph-name="copyright" unicode="&#xa9;" horiz-adv-x="815" 
d="M408 147q-70 0 -112.5 43t-42.5 115q0 95 63 165.5t160 70.5q58 0 98 -33l25 30h23l-34 -136h-21q-18 66 -36.5 90.5t-55.5 24.5q-59 0 -100.5 -68t-41.5 -148q0 -54 25.5 -86.5t73.5 -32.5q70 0 129 85l19 -12q-69 -108 -172 -108zM395 -33q-146 0 -235.5 88t-89.5 228
q0 115 50 212t144 156.5t211 59.5q145 0 234.5 -88.5t89.5 -228.5q0 -176 -114 -301.5t-290 -125.5zM399 -7q108 0 193.5 56.5t130.5 147.5t45 197q0 129 -82.5 210t-215.5 81q-108 0 -193.5 -56.5t-130.5 -148t-45 -197.5q0 -129 82.5 -209.5t215.5 -80.5z" />
    <glyph glyph-name="ordfeminine" unicode="&#xaa;" horiz-adv-x="452" 
d="M204 321q-45 0 -74 32t-29 88q0 87 63.5 158.5t139.5 71.5q49 0 75 -49l13 43l83 8l-40 -119l-42 -144q-11 -37 -1.5 -47.5t55.5 -9.5v-19q-36 -12 -73 -12t-50.5 14t-6.5 51l-6 2q-26 -37 -50.5 -52.5t-56.5 -15.5zM240 365q41 0 75 61l48 161q-10 58 -50 58
q-35 0 -65 -37.5t-44.5 -83.5t-14.5 -83q0 -76 51 -76z" />
    <glyph glyph-name="guillemotleft" unicode="&#xab;" horiz-adv-x="507" 
d="M384 27l-127 172q-16 23 -16 33q0 13 33 35l213 154l16 -19l-165 -176l69 -186zM180 30l-126 170q-16 21 -16 34t32 35l214 152l16 -20l-165 -173l68 -185z" />
    <glyph glyph-name="registered" unicode="&#xae;" horiz-adv-x="444" 
d="M268 337q-74 0 -121 47.5t-47 119.5q0 86 60.5 146.5t146.5 60.5q74 0 121 -47t47 -119q0 -86 -61 -147t-146 -61zM270 356q79 0 131 55.5t52 133.5q0 65 -41 105.5t-107 40.5q-79 0 -131 -55t-52 -132q0 -65 41 -106.5t107 -41.5zM271 537h17q25 0 39.5 13.5t14.5 35.5
q0 27 -37 27h-14zM268 521l-16 -62q-2 -7 2.5 -9.5t20.5 -3.5l-3 -14h-96l4 14q30 1 33 13l36 143q2 6 -4 9t-23 4l4 14h85q37 0 54.5 -12.5t17.5 -32.5q0 -44 -65 -53v-4q22 -3 30.5 -11t8.5 -24l-2 -26q-1 -12 4.5 -17t20.5 -5l-4 -14q-1 -1 -22 -1q-27 0 -35 8.5t-6 29.5
l3 19q2 20 -5 27.5t-30 7.5h-13z" />
    <glyph glyph-name="macron" unicode="&#xaf;" horiz-adv-x="324" 
d="M122 557l14 53h263l-14 -53h-263z" />
    <glyph glyph-name="degree" unicode="&#xb0;" horiz-adv-x="396" 
d="M413 571q0 -74 -53.5 -131.5t-130.5 -57.5q-55 0 -91 33.5t-36 92.5q0 74 53.5 131t130.5 57q55 0 91 -33.5t36 -91.5zM176 485q0 -75 56 -75q33 0 59 33.5t37 74t11 75.5q0 75 -56 75q-33 0 -59 -33.5t-37 -74t-11 -75.5z" />
    <glyph glyph-name="plusminus" unicode="&#xb1;" horiz-adv-x="511" 
d="M365 563l-48 -177h177l-10 -39h-177l-48 -180h-42l48 180h-177l10 39h177l48 177h42zM403 46h-395l10 38h396z" />
    <glyph glyph-name="acute" unicode="&#xb4;" horiz-adv-x="243" 
d="M113 530l87 126q35 53 51 69t38 16q17 0 29 -11.5t12 -28.5q0 -20 -16.5 -38t-67.5 -56l-103 -77h-30z" />
    <glyph glyph-name="paragraph" unicode="&#xb6;" horiz-adv-x="678" 
d="M276 -102l75 277q-112 10 -174 60.5t-62 132.5q0 111 94.5 191.5t258.5 80.5h284l-5 -22q-69 -5 -93 -18.5t-34 -51.5l-175 -650h-39l191 712h-90l-190 -712h-41z" />
    <glyph glyph-name="periodcentered" unicode="&#xb7;" horiz-adv-x="244" 
d="M149 255q-29 0 -49.5 19.5t-20.5 47.5t20.5 48t49.5 20t49 -20t20 -48t-20 -47.5t-49 -19.5z" />
    <glyph glyph-name="cedilla" unicode="&#xb8;" horiz-adv-x="288" 
d="M24 -247q-51 0 -95 22l12 23q40 -16 76 -16q31 0 49.5 16t18.5 40q0 23 -19.5 35t-52.5 12q-13 0 -33 -4l-6 19l134 105h36l-94 -74l2 -3q103 -7 103 -76q0 -42 -38.5 -70.5t-92.5 -28.5z" />
    <glyph glyph-name="ordmasculine" unicode="&#xba;" horiz-adv-x="436" 
d="M247 321q-59 0 -98 38t-39 100q0 82 57.5 147t144.5 65q59 0 97.5 -37.5t38.5 -101.5q0 -81 -57.5 -146t-143.5 -65zM249 345q36 0 63.5 41t39.5 90.5t12 92.5q0 79 -54 79q-28 0 -51 -24t-36 -60t-20.5 -73t-7.5 -68q0 -78 54 -78z" />
    <glyph glyph-name="guillemotright" unicode="&#xbb;" horiz-adv-x="506" 
d="M223 30l-15 19l165 174l-69 184l23 14l127 -171q15 -21 15 -33q0 -13 -32 -35zM20 29l-16 20l165 175l-69 186l23 14l127 -172q16 -23 16 -33q0 -13 -32 -36z" />
    <glyph glyph-name="questiondown" unicode="&#xbf;" horiz-adv-x="467" 
d="M324 498l36 -6l-37 -140q-107 -26 -158 -86t-51 -140q0 -55 29 -84t81 -29q76 0 111 57q-23 8 -36 27t-14 41q0 26 18.5 45.5t47.5 19.5q30 0 49 -20t20 -50q0 -60 -57.5 -104t-142.5 -44q-101 0 -159.5 47.5t-58.5 120.5q0 86 76 143t213 79zM373 705q29 0 49 -19.5
t20 -47.5t-20 -48t-49 -20t-49 19.5t-20 47.5t20 48t49 20z" />
    <glyph glyph-name="Agrave" unicode="&#xc0;" horiz-adv-x="683" 
d="M-56 0l6 24q54 11 87.5 41t80.5 106l320 517h62l81 -578q6 -48 21 -63.5t67 -22.5l-6 -24h-303l6 24q66 3 83.5 19.5t11.5 62.5l-18 150h-230l-61 -102q-42 -69 -34.5 -94t69.5 -36l-7 -24h-236zM439 286l-33 280h-7l-169 -280h209zM476 754l-102 96q-47 45 -47 69
q0 19 13.5 32.5t32.5 13.5t32.5 -17t33.5 -61l63 -133h-26z" />
    <glyph glyph-name="Aacute" unicode="&#xc1;" horiz-adv-x="683" 
d="M-56 0l6 24q54 11 87.5 41t80.5 106l320 517h62l81 -578q6 -48 21 -63.5t67 -22.5l-6 -24h-303l6 24q66 3 83.5 19.5t11.5 62.5l-18 150h-230l-61 -102q-42 -69 -34.5 -94t69.5 -36l-7 -24h-236zM439 286l-33 280h-7l-169 -280h209zM431 754l87 126q35 53 51 69t38 16
q17 0 29 -11.5t12 -28.5q0 -20 -16.5 -38t-67.5 -56l-103 -77h-30z" />
    <glyph glyph-name="Acircumflex" unicode="&#xc2;" horiz-adv-x="683" 
d="M-56 0l6 24q54 11 87.5 41t80.5 106l320 517h62l81 -578q6 -48 21 -63.5t67 -22.5l-6 -24h-303l6 24q66 3 83.5 19.5t11.5 62.5l-18 150h-230l-61 -102q-42 -69 -34.5 -94t69.5 -36l-7 -24h-236zM439 286l-33 280h-7l-169 -280h209zM333 750l178 191h31l70 -191h-29
l-82 96l-134 -96h-34z" />
    <glyph glyph-name="Atilde" unicode="&#xc3;" horiz-adv-x="683" 
d="M-56 0l6 24q54 11 87.5 41t80.5 106l320 517h62l81 -578q6 -48 21 -63.5t67 -22.5l-6 -24h-303l6 24q66 3 83.5 19.5t11.5 62.5l-18 150h-230l-61 -102q-42 -69 -34.5 -94t69.5 -36l-7 -24h-236zM439 286l-33 280h-7l-169 -280h209zM339 754q28 126 103 126
q21 0 67 -24.5t63 -24.5t28.5 11t24.5 44h28q-29 -126 -103 -126q-21 0 -67 24.5t-63 24.5t-28.5 -11t-25.5 -44h-27z" />
    <glyph glyph-name="Adieresis" unicode="&#xc4;" horiz-adv-x="683" 
d="M-56 0l6 24q54 11 87.5 41t80.5 106l320 517h62l81 -578q6 -48 21 -63.5t67 -22.5l-6 -24h-303l6 24q66 3 83.5 19.5t11.5 62.5l-18 150h-230l-61 -102q-42 -69 -34.5 -94t69.5 -36l-7 -24h-236zM439 286l-33 280h-7l-169 -280h209zM578 760q-20 0 -34.5 14.5t-14.5 38.5
q0 35 22 60t53 25q20 0 34.5 -14t14.5 -38q0 -34 -22 -60t-53 -26zM385 760q-21 0 -35.5 14.5t-14.5 38.5q0 35 22 60t53 25q21 0 35 -14t14 -38q0 -34 -22 -60t-52 -26z" />
    <glyph glyph-name="Aring" unicode="&#xc5;" horiz-adv-x="683" 
d="M213 256l-61 -102q-42 -69 -35 -94.5t69 -36.5l-6 -23h-236l5 22q54 12 88 42.5t81 106.5l310 502q-27 8 -43 31t-16 56q0 57 41.5 96.5t98.5 39.5q42 0 68.5 -25.5t26.5 -67.5q0 -47 -29 -83t-73 -47l79 -563q6 -48 21.5 -64t68.5 -23l-7 -23h-304l7 24q65 4 82 20
t12 62l-19 150h-229zM438 286l-33 279h-7l-168 -279h208zM468 689q35 0 57 41.5t22 87.5q0 55 -42 55q-35 0 -56.5 -41t-21.5 -88q0 -55 41 -55z" />
    <glyph glyph-name="AE" unicode="&#xc6;" horiz-adv-x="1044" 
d="M829 219h-25q-5 79 -20 101t-69 22h-59l-82 -310h137q50 0 86.5 10.5t66.5 37t52 57t54 85.5h29l-64 -222h-591l6 25q63 2 86 12.5t30 36.5l52 196h-235l-107 -123q-54 -62 -54 -87q0 -30 58 -37l-7 -23h-237l7 23q58 12 96.5 39.5t101.5 99.5l360 411q24 29 24 43
q0 29 -88 38l6 24h640l-52 -206h-27q-7 54 -13.5 81.5t-21.5 51.5t-41 32.5t-69 8.5h-122l-73 -273h60q55 0 80 18t67 90h25zM527 300l90 337h-16l-292 -337h218z" />
    <glyph glyph-name="Ccedilla" unicode="&#xc7;" horiz-adv-x="682" 
d="M263 -247q-51 0 -95 22l12 23q40 -16 76 -16q31 0 49.5 16t18.5 40q0 23 -19.5 35t-52.5 12q-13 0 -33 -4l-6 19l106 83q-115 4 -187 82t-72 199q0 79 30.5 156t83 138t131.5 98.5t169 37.5q92 0 168 -50l50 48h27l-63 -237h-27q-28 117 -62 163.5t-98 46.5
q-77 0 -144 -66t-103.5 -161.5t-36.5 -188.5q0 -103 50 -159.5t138 -56.5q131 0 247 160l25 -15q-126 -181 -289 -194l-67 -53l2 -3q103 -7 103 -76q0 -42 -38.5 -70.5t-92.5 -28.5z" />
    <glyph glyph-name="Egrave" unicode="&#xc8;" horiz-adv-x="674" 
d="M153 678h558l-51 -206h-28q-13 104 -38 139t-107 35h-121l-73 -273h56q56 0 82.5 18.5t68.5 89.5h25l-67 -262h-25q-6 80 -21 101.5t-69 21.5h-58l-83 -310h138q50 0 86.5 10.5t66.5 37t51.5 57t53.5 85.5h30l-64 -222h-592l7 25q63 2 86 12.5t30 36.5l141 530
q7 25 -10 35.5t-80 13.5zM483 754l-102 96q-47 45 -47 69q0 19 13.5 32.5t32.5 13.5t32.5 -17t33.5 -61l63 -133h-26z" />
    <glyph glyph-name="Eacute" unicode="&#xc9;" horiz-adv-x="674" 
d="M429 754l87 126q35 53 51 69t38 16q17 0 29 -11.5t12 -28.5q0 -20 -16.5 -38t-67.5 -56l-103 -77h-30zM153 678h558l-51 -206h-28q-13 104 -38 139t-107 35h-121l-73 -273h56q56 0 82.5 18.5t68.5 89.5h25l-67 -262h-25q-6 80 -21 101.5t-69 21.5h-58l-83 -310h138
q50 0 86.5 10.5t66.5 37t51.5 57t53.5 85.5h30l-64 -222h-592l7 25q63 2 86 12.5t30 36.5l141 530q7 25 -10 35.5t-80 13.5z" />
    <glyph glyph-name="Ecircumflex" unicode="&#xca;" horiz-adv-x="674" 
d="M334 754l178 191h31l70 -191h-29l-82 96l-134 -96h-34zM153 678h558l-51 -206h-28q-13 104 -38 139t-107 35h-121l-73 -273h56q56 0 82.5 18.5t68.5 89.5h25l-67 -262h-25q-6 80 -21 101.5t-69 21.5h-58l-83 -310h138q50 0 86.5 10.5t66.5 37t51.5 57t53.5 85.5h30
l-64 -222h-592l7 25q63 2 86 12.5t30 36.5l141 530q7 25 -10 35.5t-80 13.5z" />
    <glyph glyph-name="Edieresis" unicode="&#xcb;" horiz-adv-x="674" 
d="M578 760q-20 0 -34.5 14.5t-14.5 38.5q0 35 22 60t53 25q20 0 34.5 -14t14.5 -38q0 -34 -22 -60t-53 -26zM385 760q-21 0 -35.5 14.5t-14.5 38.5q0 35 22 60t53 25q21 0 35 -14t14 -38q0 -34 -22 -60t-52 -26zM153 678h558l-51 -206h-28q-13 104 -38 139t-107 35h-121
l-73 -273h56q56 0 82.5 18.5t68.5 89.5h25l-67 -262h-25q-6 80 -21 101.5t-69 21.5h-58l-83 -310h138q50 0 86.5 10.5t66.5 37t51.5 57t53.5 85.5h30l-64 -222h-592l7 25q63 2 86 12.5t30 36.5l141 530q7 25 -10 35.5t-80 13.5z" />
    <glyph glyph-name="Igrave" unicode="&#xcc;" horiz-adv-x="416" 
d="M484 653q-63 -3 -87.5 -13.5t-31.5 -35.5l-142 -530q-7 -27 11.5 -37t83.5 -12l-7 -25h-331l7 25q63 2 87 12.5t31 36.5l142 530q7 26 -11 36t-83 13l7 25h330zM352 754l-102 96q-47 45 -47 69q0 19 13.5 32.5t32.5 13.5t32.5 -17t33.5 -61l63 -133h-26z" />
    <glyph glyph-name="Iacute" unicode="&#xcd;" horiz-adv-x="416" 
d="M484 653q-63 -3 -87.5 -13.5t-31.5 -35.5l-142 -530q-7 -27 11.5 -37t83.5 -12l-7 -25h-331l7 25q63 2 87 12.5t31 36.5l142 530q7 26 -11 36t-83 13l7 25h330zM286 754l87 126q35 53 51 69t38 16q17 0 29 -11.5t12 -28.5q0 -20 -16.5 -38t-67.5 -56l-103 -77h-30z" />
    <glyph glyph-name="Icircumflex" unicode="&#xce;" horiz-adv-x="416" 
d="M484 653q-63 -3 -87.5 -13.5t-31.5 -35.5l-142 -530q-7 -27 11.5 -37t83.5 -12l-7 -25h-331l7 25q63 2 87 12.5t31 36.5l142 530q7 26 -11 36t-83 13l7 25h330zM201 754l178 191h31l70 -191h-29l-82 96l-134 -96h-34z" />
    <glyph glyph-name="Idieresis" unicode="&#xcf;" horiz-adv-x="416" 
d="M484 653q-63 -3 -87.5 -13.5t-31.5 -35.5l-142 -530q-7 -27 11.5 -37t83.5 -12l-7 -25h-331l7 25q63 2 87 12.5t31 36.5l142 530q7 26 -11 36t-83 13l7 25h330zM449 760q-20 0 -34.5 14.5t-14.5 38.5q0 35 22 60t53 25q20 0 34.5 -14t14.5 -38q0 -34 -22 -60t-53 -26z
M256 760q-21 0 -35.5 14.5t-14.5 38.5q0 35 22 60t53 25q21 0 35 -14t14 -38q0 -34 -22 -60t-52 -26z" />
    <glyph glyph-name="Eth" unicode="&#xd0;" horiz-adv-x="746" 
d="M95 74l69 260h-96l9 37h97l62 233q7 25 -10 35.5t-80 13.5l7 25h257q166 0 248 -77t82 -199q0 -73 -29.5 -149t-87.5 -134q-121 -119 -314 -119h-337l7 25q63 2 86 12.5t30 36.5zM202 30h112q106 0 181 75q61 61 92 159t31 187q0 197 -195 197h-57l-74 -277h129l-9 -37
h-130z" />
    <glyph glyph-name="Ntilde" unicode="&#xd1;" horiz-adv-x="788" 
d="M351 678l249 -529h3l98 370q19 72 2.5 99t-86.5 36l6 24h260l-6 -24q-67 -10 -93 -37t-45 -100l-142 -531h-50l-274 580h-3l-109 -407q-20 -70 -3.5 -98.5t85.5 -36.5l-6 -24h-264l6 24q68 9 96.5 37t47.5 100l109 407q9 36 -10 59.5t-75 25.5l7 25h197zM389 754
q28 126 103 126q21 0 67 -24.5t63 -24.5t28.5 11t24.5 44h28q-29 -126 -103 -126q-21 0 -67 24.5t-63 24.5t-28.5 -11t-25.5 -44h-27z" />
    <glyph glyph-name="Ograve" unicode="&#xd2;" 
d="M331 -17q-119 0 -195 78t-76 201q0 79 30 156t82.5 138.5t130.5 99.5t166 38q119 0 195 -78t76 -201q0 -78 -30 -155.5t-82.5 -139t-130.5 -99.5t-166 -38zM329 13q81 0 149.5 73.5t105 177.5t36.5 204q0 93 -38 145t-111 52q-81 0 -149.5 -73.5t-105 -178t-36.5 -204.5
q0 -92 38 -144t111 -52zM513 754l-102 96q-47 45 -47 69q0 19 13.5 32.5t32.5 13.5t32.5 -17t33.5 -61l63 -133h-26z" />
    <glyph glyph-name="Oacute" unicode="&#xd3;" 
d="M448 754l87 126q35 53 51 69t38 16q17 0 29 -11.5t12 -28.5q0 -20 -16.5 -38t-67.5 -56l-103 -77h-30zM331 -17q-119 0 -195 78t-76 201q0 79 30 156t82.5 138.5t130.5 99.5t166 38q119 0 195 -78t76 -201q0 -78 -30 -155.5t-82.5 -139t-130.5 -99.5t-166 -38zM329 13
q81 0 149.5 73.5t105 177.5t36.5 204q0 93 -38 145t-111 52q-81 0 -149.5 -73.5t-105 -178t-36.5 -204.5q0 -92 38 -144t111 -52z" />
    <glyph glyph-name="Ocircumflex" unicode="&#xd4;" 
d="M365 754l178 191h31l70 -191h-29l-82 96l-134 -96h-34zM331 -17q-119 0 -195 78t-76 201q0 79 30 156t82.5 138.5t130.5 99.5t166 38q119 0 195 -78t76 -201q0 -78 -30 -155.5t-82.5 -139t-130.5 -99.5t-166 -38zM329 13q81 0 149.5 73.5t105 177.5t36.5 204
q0 93 -38 145t-111 52q-81 0 -149.5 -73.5t-105 -178t-36.5 -204.5q0 -92 38 -144t111 -52z" />
    <glyph glyph-name="Otilde" unicode="&#xd5;" 
d="M331 -17q-119 0 -195 78t-76 201q0 79 30 156t82.5 138.5t130.5 99.5t166 38q119 0 195 -78t76 -201q0 -78 -30 -155.5t-82.5 -139t-130.5 -99.5t-166 -38zM329 13q81 0 149.5 73.5t105 177.5t36.5 204q0 93 -38 145t-111 52q-81 0 -149.5 -73.5t-105 -178t-36.5 -204.5
q0 -92 38 -144t111 -52zM367 754q28 126 103 126q21 0 67 -24.5t63 -24.5t28.5 11t24.5 44h28q-29 -126 -103 -126q-21 0 -67 24.5t-63 24.5t-28.5 -11t-25.5 -44h-27z" />
    <glyph glyph-name="Odieresis" unicode="&#xd6;" 
d="M609 760q-20 0 -34.5 14.5t-14.5 38.5q0 35 22 60t53 25q20 0 34.5 -14t14.5 -38q0 -34 -22 -60t-53 -26zM416 760q-21 0 -35.5 14.5t-14.5 38.5q0 35 22 60t53 25q21 0 35 -14t14 -38q0 -34 -22 -60t-52 -26zM331 -17q-119 0 -195 78t-76 201q0 79 30 156t82.5 138.5
t130.5 99.5t166 38q119 0 195 -78t76 -201q0 -78 -30 -155.5t-82.5 -139t-130.5 -99.5t-166 -38zM329 13q81 0 149.5 73.5t105 177.5t36.5 204q0 93 -38 145t-111 52q-81 0 -149.5 -73.5t-105 -178t-36.5 -204.5q0 -92 38 -144t111 -52z" />
    <glyph glyph-name="multiply" unicode="&#xd7;" horiz-adv-x="541" 
d="M52 150l213 167l-122 167l33 26l122 -167l213 168l22 -30l-213 -168l123 -166l-34 -26l-122 166l-212 -168z" />
    <glyph glyph-name="Oslash" unicode="&#xd8;" 
d="M71 -35h-44l99 106q-66 77 -66 191q0 79 30 156t82.5 138.5t130.5 99.5t166 38q108 0 182 -66l78 85h43l-99 -107q67 -78 67 -191q0 -78 -30 -155.5t-82.5 -139t-130.5 -99.5t-166 -38q-108 0 -182 66zM329 13q81 0 149.5 73.5t105 177.5t36.5 204q0 39 -8 76l-414 -443
q35 -88 131 -88zM180 209q0 -40 8 -75l414 442q-37 89 -131 89q-81 0 -149.5 -73.5t-105 -178t-36.5 -204.5z" />
    <glyph glyph-name="Ugrave" unicode="&#xd9;" horiz-adv-x="768" 
d="M336 603l-93 -350q-12 -45 -12 -82q0 -67 38.5 -105.5t112.5 -38.5q90 0 143.5 48t81.5 155l78 293q19 69 2 95.5t-86 35.5l7 24h258l-7 -24q-67 -10 -91.5 -35t-43.5 -98l-85 -317q-28 -107 -96 -164t-203 -57q-110 0 -168.5 53.5t-58.5 141.5q0 37 11 79l93 347
q7 25 -10 35.5t-80 13.5l7 25h316l-7 -25q-61 -3 -80.5 -13t-26.5 -37zM536 754l-102 96q-47 45 -47 69q0 19 13.5 32.5t32.5 13.5t32.5 -17t33.5 -61l63 -133h-26z" />
    <glyph glyph-name="Uacute" unicode="&#xda;" horiz-adv-x="768" 
d="M475 754l87 126q35 53 51 69t38 16q17 0 29 -11.5t12 -28.5q0 -20 -16.5 -38t-67.5 -56l-103 -77h-30zM336 603l-93 -350q-12 -45 -12 -82q0 -67 38.5 -105.5t112.5 -38.5q90 0 143.5 48t81.5 155l78 293q19 69 2 95.5t-86 35.5l7 24h258l-7 -24q-67 -10 -91.5 -35
t-43.5 -98l-85 -317q-28 -107 -96 -164t-203 -57q-110 0 -168.5 53.5t-58.5 141.5q0 37 11 79l93 347q7 25 -10 35.5t-80 13.5l7 25h316l-7 -25q-61 -3 -80.5 -13t-26.5 -37z" />
    <glyph glyph-name="Ucircumflex" unicode="&#xdb;" horiz-adv-x="768" 
d="M393 754l178 191h31l70 -191h-29l-82 96l-134 -96h-34zM336 603l-93 -350q-12 -45 -12 -82q0 -67 38.5 -105.5t112.5 -38.5q90 0 143.5 48t81.5 155l78 293q19 69 2 95.5t-86 35.5l7 24h258l-7 -24q-67 -10 -91.5 -35t-43.5 -98l-85 -317q-28 -107 -96 -164t-203 -57
q-110 0 -168.5 53.5t-58.5 141.5q0 37 11 79l93 347q7 25 -10 35.5t-80 13.5l7 25h316l-7 -25q-61 -3 -80.5 -13t-26.5 -37z" />
    <glyph glyph-name="Udieresis" unicode="&#xdc;" horiz-adv-x="768" 
d="M637 760q-20 0 -34.5 14.5t-14.5 38.5q0 35 22 60t53 25q20 0 34.5 -14t14.5 -38q0 -34 -22 -60t-53 -26zM444 760q-21 0 -35.5 14.5t-14.5 38.5q0 35 22 60t53 25q21 0 35 -14t14 -38q0 -34 -22 -60t-52 -26zM336 603l-93 -350q-12 -45 -12 -82q0 -67 38.5 -105.5
t112.5 -38.5q90 0 143.5 48t81.5 155l78 293q19 69 2 95.5t-86 35.5l7 24h258l-7 -24q-67 -10 -91.5 -35t-43.5 -98l-85 -317q-28 -107 -96 -164t-203 -57q-110 0 -168.5 53.5t-58.5 141.5q0 37 11 79l93 347q7 25 -10 35.5t-80 13.5l7 25h316l-7 -25q-61 -3 -80.5 -13
t-26.5 -37z" />
    <glyph glyph-name="Yacute" unicode="&#xdd;" horiz-adv-x="671" 
d="M624 539l-209 -243l-60 -222q-7 -27 11.5 -37t83.5 -12l-7 -25h-331l7 25q63 2 87 12.5t31 36.5l61 227l-97 286q-11 33 -29.5 45.5t-67.5 21.5l7 24h312l-6 -24q-72 -4 -91 -19t-9 -46l85 -260l173 208q33 39 41 62t-7 36t-59 19l6 24h246l-7 -24q-52 -8 -83.5 -30
t-87.5 -85zM443 754l87 126q35 53 51 69t38 16q17 0 29 -11.5t12 -28.5q0 -20 -16.5 -38t-67.5 -56l-103 -77h-30z" />
    <glyph glyph-name="Thorn" unicode="&#xde;" horiz-adv-x="640" 
d="M-28 0l7 25q63 2 86 12.5t30 36.5l142 530q6 25 -11 35.5t-79 13.5l6 25h319l-6 -25q-60 -3 -82 -13.5t-29 -36.5l-17 -64h38q136 0 195 -46t59 -120q0 -87 -81.5 -151.5t-232.5 -64.5h-80l-23 -82q-7 -27 11 -37t82 -13l-7 -25h-327zM244 187h64q53 0 93.5 18t62.5 49
t32.5 66.5t10.5 74.5q0 58 -31 86t-100 28h-47z" />
    <glyph glyph-name="germandbls" unicode="&#xdf;" horiz-adv-x="536" 
d="M-77 -203q-53 0 -82 21.5t-29 56.5q0 26 17 43.5t42 17.5t39.5 -15.5t14.5 -38.5q0 -32 -25 -50q11 -8 29 -8q32 0 54 33t42 128l111 496q28 126 85 179t143 53q71 0 113.5 -33t42.5 -86q0 -33 -18 -59t-44 -43t-52.5 -32.5t-44.5 -37t-18 -48.5q0 -22 16.5 -43t40.5 -40
l47.5 -39.5t40 -49.5t16.5 -62q0 -63 -44 -105.5t-129 -42.5q-51 0 -89.5 24t-38.5 64q0 27 15.5 45.5t41.5 18.5q24 0 38.5 -14.5t14.5 -37.5q0 -29 -26 -50q17 -25 60 -25q35 0 56 22.5t21 59.5q0 24 -11 45t-27.5 35l-35.5 30.5l-35.5 31t-27.5 37t-11 48.5q0 34 15.5 62
t37 48l43.5 40.5t37.5 51.5t15.5 70q0 40 -18 64t-52 24q-78 0 -110 -150l-96 -441q-36 -169 -86 -233.5t-140 -64.5z" />
    <glyph glyph-name="agrave" unicode="&#xe0;" horiz-adv-x="539" 
d="M471 307l-55 -193q-10 -35 -10 -51q0 -21 18.5 -28t65.5 -5v-21q-49 -17 -94 -17q-43 0 -62.5 13t-19.5 46q0 15 4 30l-4 2q-36 -49 -70 -70t-78 -21q-61 0 -97.5 42t-36.5 117q0 118 85 217.5t184 99.5q41 0 64.5 -15.5t38.5 -46.5l18 51l105 11zM314 437
q-47 0 -88.5 -52t-63 -117.5t-21.5 -115.5q0 -108 74 -108q53 0 104 88l67 226q-6 37 -25.5 58t-46.5 21zM365 530l-102 96q-47 45 -47 69q0 19 13.5 32.5t32.5 13.5t32.5 -17t33.5 -61l63 -133h-26z" />
    <glyph glyph-name="aacute" unicode="&#xe1;" horiz-adv-x="539" 
d="M471 307l-55 -193q-10 -35 -10 -51q0 -21 18.5 -28t65.5 -5v-21q-49 -17 -94 -17q-43 0 -62.5 13t-19.5 46q0 15 4 30l-4 2q-36 -49 -70 -70t-78 -21q-61 0 -97.5 42t-36.5 117q0 118 85 217.5t184 99.5q41 0 64.5 -15.5t38.5 -46.5l18 51l105 11zM314 437
q-47 0 -88.5 -52t-63 -117.5t-21.5 -115.5q0 -108 74 -108q53 0 104 88l67 226q-6 37 -25.5 58t-46.5 21zM301 530l87 126q35 53 51 69t38 16q17 0 29 -11.5t12 -28.5q0 -20 -16.5 -38t-67.5 -56l-103 -77h-30z" />
    <glyph glyph-name="acircumflex" unicode="&#xe2;" horiz-adv-x="539" 
d="M471 307l-55 -193q-10 -35 -10 -51q0 -21 18.5 -28t65.5 -5v-21q-49 -17 -94 -17q-43 0 -62.5 13t-19.5 46q0 15 4 30l-4 2q-36 -49 -70 -70t-78 -21q-61 0 -97.5 42t-36.5 117q0 118 85 217.5t184 99.5q41 0 64.5 -15.5t38.5 -46.5l18 51l105 11zM314 437
q-47 0 -88.5 -52t-63 -117.5t-21.5 -115.5q0 -108 74 -108q53 0 104 88l67 226q-6 37 -25.5 58t-46.5 21zM210 530l178 191h31l70 -191h-29l-82 96l-134 -96h-34z" />
    <glyph glyph-name="atilde" unicode="&#xe3;" horiz-adv-x="539" 
d="M471 307l-55 -193q-10 -35 -10 -51q0 -21 18.5 -28t65.5 -5v-21q-49 -17 -94 -17q-43 0 -62.5 13t-19.5 46q0 15 4 30l-4 2q-36 -49 -70 -70t-78 -21q-61 0 -97.5 42t-36.5 117q0 118 85 217.5t184 99.5q41 0 64.5 -15.5t38.5 -46.5l18 51l105 11zM314 437
q-47 0 -88.5 -52t-63 -117.5t-21.5 -115.5q0 -108 74 -108q53 0 104 88l67 226q-6 37 -25.5 58t-46.5 21zM216 530q28 126 103 126q21 0 67 -24.5t63 -24.5t28.5 11t24.5 44h28q-29 -126 -103 -126q-21 0 -67 24.5t-63 24.5t-28.5 -11t-25.5 -44h-27z" />
    <glyph glyph-name="adieresis" unicode="&#xe4;" horiz-adv-x="539" 
d="M471 307l-55 -193q-10 -35 -10 -51q0 -21 18.5 -28t65.5 -5v-21q-49 -17 -94 -17q-43 0 -62.5 13t-19.5 46q0 15 4 30l-4 2q-36 -49 -70 -70t-78 -21q-61 0 -97.5 42t-36.5 117q0 118 85 217.5t184 99.5q41 0 64.5 -15.5t38.5 -46.5l18 51l105 11zM314 437
q-47 0 -88.5 -52t-63 -117.5t-21.5 -115.5q0 -108 74 -108q53 0 104 88l67 226q-6 37 -25.5 58t-46.5 21zM268 536q-21 0 -35.5 14.5t-14.5 38.5q0 35 22 60t53 25q21 0 35 -14t14 -38q0 -34 -22 -60t-52 -26zM461 536q-20 0 -34.5 14.5t-14.5 38.5q0 35 22 60t53 25
q20 0 34.5 -14t14.5 -38q0 -34 -22 -60t-53 -26z" />
    <glyph glyph-name="aring" unicode="&#xe5;" horiz-adv-x="539" 
d="M471 307l-55 -193q-10 -35 -10 -51q0 -21 18.5 -28t65.5 -5v-21q-49 -17 -94 -17q-43 0 -62.5 13t-19.5 46q0 15 4 30l-4 2q-36 -49 -70 -70t-78 -21q-61 0 -97.5 42t-36.5 117q0 118 85 217.5t184 99.5q41 0 64.5 -15.5t38.5 -46.5l18 51l105 11zM314 437
q-47 0 -88.5 -52t-63 -117.5t-21.5 -115.5q0 -108 74 -108q53 0 104 88l67 226q-6 37 -25.5 58t-46.5 21zM371 536q-44 0 -71.5 24.5t-27.5 63.5q0 53 38.5 89t93.5 36q44 0 71.5 -24t27.5 -63q0 -53 -39 -89.5t-93 -36.5zM372 561q35 0 55.5 35.5t20.5 74.5q0 53 -45 53
q-34 0 -54.5 -35t-20.5 -74q0 -54 44 -54z" />
    <glyph glyph-name="ae" unicode="&#xe6;" horiz-adv-x="735" 
d="M592 468q67 0 102.5 -28.5t35.5 -75.5q0 -64 -79 -107t-230 -42q-3 -24 -3 -47q0 -132 104 -132q81 0 143 84l20 -18q-82 -110 -198 -110q-61 0 -105 33t-54 98h-4q-29 -61 -77.5 -96t-108.5 -35q-57 0 -89 28.5t-32 76.5q0 74 80.5 115t235.5 38q7 36 7 75
q0 57 -23.5 86t-62.5 29q-51 0 -80 -31q27 -14 27 -47q0 -28 -15.5 -43t-41.5 -15q-27 0 -42.5 16t-15.5 41q0 45 50.5 76t125.5 31q119 0 143 -84h4q77 84 183 84zM585 439q-50 0 -96 -58.5t-63 -140.5q211 6 211 143q0 56 -52 56zM187 45q50 0 89 49t52 132
q-209 0 -209 -113q0 -32 18.5 -50t49.5 -18z" />
    <glyph glyph-name="ccedilla" unicode="&#xe7;" horiz-adv-x="447" 
d="M147 -247q-51 0 -95 22l12 23q40 -16 76 -16q31 0 49.5 16t18.5 40q0 23 -19.5 35t-52.5 12q-13 0 -33 -4l-6 19l117 92q-80 0 -131.5 50.5t-51.5 135.5q0 111 78.5 200.5t185.5 89.5q64 0 103 -28t39 -72q0 -29 -17 -48.5t-44 -19.5q-26 0 -42 15t-16 42q0 15 10.5 32.5
t28.5 26.5q-17 25 -55 25q-67 0 -115.5 -87t-48.5 -182q0 -65 28 -100.5t82 -35.5q76 0 137 85l20 -18q-62 -91 -150 -107l-82 -65l2 -3q103 -7 103 -76q0 -42 -38.5 -70.5t-92.5 -28.5z" />
    <glyph glyph-name="egrave" unicode="&#xe8;" horiz-adv-x="453" 
d="M448 364q0 -64 -79 -107t-230 -42q-3 -24 -3 -47q0 -132 104 -132q81 0 143 84l20 -18q-82 -110 -198 -110q-75 0 -125.5 44.5t-50.5 129.5q0 117 82 209.5t199 92.5q67 0 102.5 -28.5t35.5 -75.5zM303 439q-50 0 -96 -58.5t-63 -140.5q211 6 211 143q0 56 -52 56z
M320 530l-102 96q-47 45 -47 69q0 19 13.5 32.5t32.5 13.5t32.5 -17t33.5 -61l63 -133h-26z" />
    <glyph glyph-name="eacute" unicode="&#xe9;" horiz-adv-x="453" 
d="M448 364q0 -64 -79 -107t-230 -42q-3 -24 -3 -47q0 -132 104 -132q81 0 143 84l20 -18q-82 -110 -198 -110q-75 0 -125.5 44.5t-50.5 129.5q0 117 82 209.5t199 92.5q67 0 102.5 -28.5t35.5 -75.5zM303 439q-50 0 -96 -58.5t-63 -140.5q211 6 211 143q0 56 -52 56z
M260 530l87 126q35 53 51 69t38 16q17 0 29 -11.5t12 -28.5q0 -20 -16.5 -38t-67.5 -56l-103 -77h-30z" />
    <glyph glyph-name="ecircumflex" unicode="&#xea;" horiz-adv-x="453" 
d="M448 364q0 -64 -79 -107t-230 -42q-3 -24 -3 -47q0 -132 104 -132q81 0 143 84l20 -18q-82 -110 -198 -110q-75 0 -125.5 44.5t-50.5 129.5q0 117 82 209.5t199 92.5q67 0 102.5 -28.5t35.5 -75.5zM303 439q-50 0 -96 -58.5t-63 -140.5q211 6 211 143q0 56 -52 56z
M171 530l178 191h31l70 -191h-29l-82 96l-134 -96h-34z" />
    <glyph glyph-name="edieresis" unicode="&#xeb;" horiz-adv-x="453" 
d="M448 364q0 -64 -79 -107t-230 -42q-3 -24 -3 -47q0 -132 104 -132q81 0 143 84l20 -18q-82 -110 -198 -110q-75 0 -125.5 44.5t-50.5 129.5q0 117 82 209.5t199 92.5q67 0 102.5 -28.5t35.5 -75.5zM303 439q-50 0 -96 -58.5t-63 -140.5q211 6 211 143q0 56 -52 56z
M225 536q-21 0 -35.5 14.5t-14.5 38.5q0 35 22 60t53 25q21 0 35 -14t14 -38q0 -34 -22 -60t-52 -26zM418 536q-20 0 -34.5 14.5t-14.5 38.5q0 35 22 60t53 25q20 0 34.5 -14t14.5 -38q0 -34 -22 -60t-53 -26z" />
    <glyph glyph-name="igrave" unicode="&#xec;" horiz-adv-x="307" 
d="M250 33v-21q-50 -20 -109 -20q-90 0 -90 71q0 20 8 46l85 274q8 23 -9 34t-66 14v23l204 9l-109 -350q-10 -33 -10 -46q0 -22 21.5 -29.5t74.5 -4.5zM230 530l-102 96q-47 45 -47 69q0 19 13.5 32.5t32.5 13.5t32.5 -17t33.5 -61l63 -133h-26z" />
    <glyph glyph-name="iacute" unicode="&#xed;" horiz-adv-x="307" 
d="M166 530l87 126q35 53 51 69t38 16q17 0 29 -11.5t12 -28.5q0 -20 -16.5 -38t-67.5 -56l-103 -77h-30zM250 33v-21q-50 -20 -109 -20q-90 0 -90 71q0 20 8 46l85 274q8 23 -9 34t-66 14v23l204 9l-109 -350q-10 -33 -10 -46q0 -22 21.5 -29.5t74.5 -4.5z" />
    <glyph glyph-name="icircumflex" unicode="&#xee;" horiz-adv-x="307" 
d="M76 530l178 191h31l70 -191h-29l-82 96l-134 -96h-34zM250 33v-21q-50 -20 -109 -20q-90 0 -90 71q0 20 8 46l85 274q8 23 -9 34t-66 14v23l204 9l-109 -350q-10 -33 -10 -46q0 -22 21.5 -29.5t74.5 -4.5z" />
    <glyph glyph-name="idieresis" unicode="&#xef;" horiz-adv-x="307" 
d="M324 536q-20 0 -34.5 14.5t-14.5 38.5q0 35 22 60t53 25q20 0 34.5 -14t14.5 -38q0 -34 -22 -60t-53 -26zM131 536q-21 0 -35.5 14.5t-14.5 38.5q0 35 22 60t53 25q21 0 35 -14t14 -38q0 -34 -22 -60t-52 -26zM250 33v-21q-50 -20 -109 -20q-90 0 -90 71q0 20 8 46
l85 274q8 23 -9 34t-66 14v23l204 9l-109 -350q-10 -33 -10 -46q0 -22 21.5 -29.5t74.5 -4.5z" />
    <glyph glyph-name="eth" unicode="&#xf0;" horiz-adv-x="506" 
d="M295 588l-124 -71l-15 32l114 62q-47 43 -120 71l17 30q95 -24 159 -69l98 57l16 -32l-84 -46q123 -101 122 -280q-1 -150 -74 -250t-197 -100q-81 0 -129 51.5t-48 135.5q0 112 73.5 200.5t189.5 88.5q40 0 66 -16q-11 80 -64 136zM210 26q49 0 87.5 56t55.5 124t17 125
q0 103 -76 103q-50 0 -88 -56t-54.5 -124t-16.5 -125q0 -103 75 -103z" />
    <glyph glyph-name="ntilde" unicode="&#xf1;" horiz-adv-x="547" 
d="M68 162l60 220q6 25 -5.5 35.5t-56.5 13.5v23l183 9l-27 -85l3 -3q98 91 182 91q46 0 70.5 -24t24.5 -68q0 -27 -11 -65l-66 -201q-10 -33 -10 -47q0 -20 19 -26.5t67 -4.5v-21q-42 -17 -99 -17q-87 0 -87 63q0 20 9 49l63 194q10 31 10 54q0 51 -55 51q-56 0 -128 -61
l-85 -342h-113zM203 530q28 126 103 126q21 0 67 -24.5t63 -24.5t28.5 11t24.5 44h28q-29 -126 -103 -126q-21 0 -67 24.5t-63 24.5t-28.5 -11t-25.5 -44h-27z" />
    <glyph glyph-name="ograve" unicode="&#xf2;" horiz-adv-x="503" 
d="M298 468q79 0 127 -52t48 -136q0 -71 -30.5 -136t-93 -108.5t-143.5 -43.5q-79 0 -127.5 51.5t-48.5 135.5q0 113 74 201t194 88zM209 19q50 0 89 57t56.5 126.5t17.5 127.5q0 111 -77 111q-50 0 -89.5 -57t-57 -127t-17.5 -128q0 -110 78 -110zM334 530l-102 96
q-47 45 -47 69q0 19 13.5 32.5t32.5 13.5t32.5 -17t33.5 -61l63 -133h-26z" />
    <glyph glyph-name="oacute" unicode="&#xf3;" horiz-adv-x="503" 
d="M270 530l87 126q35 53 51 69t38 16q17 0 29 -11.5t12 -28.5q0 -20 -16.5 -38t-67.5 -56l-103 -77h-30zM298 468q79 0 127 -52t48 -136q0 -71 -30.5 -136t-93 -108.5t-143.5 -43.5q-79 0 -127.5 51.5t-48.5 135.5q0 113 74 201t194 88zM209 19q50 0 89 57t56.5 126.5
t17.5 127.5q0 111 -77 111q-50 0 -89.5 -57t-57 -127t-17.5 -128q0 -110 78 -110z" />
    <glyph glyph-name="ocircumflex" unicode="&#xf4;" horiz-adv-x="503" 
d="M178 530l178 191h31l70 -191h-29l-82 96l-134 -96h-34zM298 468q79 0 127 -52t48 -136q0 -71 -30.5 -136t-93 -108.5t-143.5 -43.5q-79 0 -127.5 51.5t-48.5 135.5q0 113 74 201t194 88zM209 19q50 0 89 57t56.5 126.5t17.5 127.5q0 111 -77 111q-50 0 -89.5 -57
t-57 -127t-17.5 -128q0 -110 78 -110z" />
    <glyph glyph-name="otilde" unicode="&#xf5;" horiz-adv-x="503" 
d="M298 468q79 0 127 -52t48 -136q0 -71 -30.5 -136t-93 -108.5t-143.5 -43.5q-79 0 -127.5 51.5t-48.5 135.5q0 113 74 201t194 88zM209 19q50 0 89 57t56.5 126.5t17.5 127.5q0 111 -77 111q-50 0 -89.5 -57t-57 -127t-17.5 -128q0 -110 78 -110zM184 530q28 126 103 126
q21 0 67 -24.5t63 -24.5t28.5 11t24.5 44h28q-29 -126 -103 -126q-21 0 -67 24.5t-63 24.5t-28.5 -11t-25.5 -44h-27z" />
    <glyph glyph-name="odieresis" unicode="&#xf6;" horiz-adv-x="503" 
d="M428 536q-20 0 -34.5 14.5t-14.5 38.5q0 35 22 60t53 25q20 0 34.5 -14t14.5 -38q0 -34 -22 -60t-53 -26zM235 536q-21 0 -35.5 14.5t-14.5 38.5q0 35 22 60t53 25q21 0 35 -14t14 -38q0 -34 -22 -60t-52 -26zM298 468q79 0 127 -52t48 -136q0 -71 -30.5 -136t-93 -108.5
t-143.5 -43.5q-79 0 -127.5 51.5t-48.5 135.5q0 113 74 201t194 88zM209 19q50 0 89 57t56.5 126.5t17.5 127.5q0 111 -77 111q-50 0 -89.5 -57t-57 -127t-17.5 -128q0 -110 78 -110z" />
    <glyph glyph-name="divide" unicode="&#xf7;" horiz-adv-x="568" 
d="M533 297h-463l10 40h463zM349 408q-26 0 -45 18t-19 44t19 44t45 18t44.5 -18t18.5 -44t-18.5 -44t-44.5 -18zM267 101q-27 0 -45.5 18.5t-18.5 44.5t18.5 44t45.5 18q26 0 44.5 -18.5t18.5 -43.5q0 -26 -18.5 -44.5t-44.5 -18.5z" />
    <glyph glyph-name="oslash" unicode="&#xf8;" horiz-adv-x="503" 
d="M13 -23l62 70q-45 51 -45 132q0 113 74 201t194 88q64 0 111 -37l44 52h37l-62 -71q45 -51 45 -132q0 -71 -30.5 -136t-93 -108.5t-143.5 -43.5q-67 0 -112 36l-44 -51h-37zM131 129v-19l235 272q-15 59 -71 59q-50 0 -89.5 -57t-57 -127t-17.5 -128zM209 19q50 0 89 57
t56.5 126.5t17.5 127.5q0 12 -1 18l-235 -271q15 -58 73 -58z" />
    <glyph glyph-name="ugrave" unicode="&#xf9;" horiz-adv-x="562" 
d="M58 149l75 232q8 25 -4.5 36t-57.5 14v23l186 9l-96 -304q-9 -31 -9 -53q0 -51 60 -51q52 0 123 65l54 183l37 158h111l-107 -351q-9 -30 -9 -47q0 -21 18.5 -28t66.5 -5v-21q-45 -17 -98 -17q-83 0 -83 61q0 17 5 32l-4 3q-87 -96 -177 -96q-51 0 -77 25.5t-26 68.5
q0 25 12 63zM359 530l-102 96q-47 45 -47 69q0 19 13.5 32.5t32.5 13.5t32.5 -17t33.5 -61l63 -133h-26z" />
    <glyph glyph-name="uacute" unicode="&#xfa;" horiz-adv-x="562" 
d="M295 530l87 126q35 53 51 69t38 16q17 0 29 -11.5t12 -28.5q0 -20 -16.5 -38t-67.5 -56l-103 -77h-30zM58 149l75 232q8 25 -4.5 36t-57.5 14v23l186 9l-96 -304q-9 -31 -9 -53q0 -51 60 -51q52 0 123 65l54 183l37 158h111l-107 -351q-9 -30 -9 -47q0 -21 18.5 -28
t66.5 -5v-21q-45 -17 -98 -17q-83 0 -83 61q0 17 5 32l-4 3q-87 -96 -177 -96q-51 0 -77 25.5t-26 68.5q0 25 12 63z" />
    <glyph glyph-name="ucircumflex" unicode="&#xfb;" horiz-adv-x="562" 
d="M208 530l178 191h31l70 -191h-29l-82 96l-134 -96h-34zM58 149l75 232q8 25 -4.5 36t-57.5 14v23l186 9l-96 -304q-9 -31 -9 -53q0 -51 60 -51q52 0 123 65l54 183l37 158h111l-107 -351q-9 -30 -9 -47q0 -21 18.5 -28t66.5 -5v-21q-45 -17 -98 -17q-83 0 -83 61
q0 17 5 32l-4 3q-87 -96 -177 -96q-51 0 -77 25.5t-26 68.5q0 25 12 63z" />
    <glyph glyph-name="udieresis" unicode="&#xfc;" horiz-adv-x="562" 
d="M456 536q-20 0 -34.5 14.5t-14.5 38.5q0 35 22 60t53 25q20 0 34.5 -14t14.5 -38q0 -34 -22 -60t-53 -26zM263 536q-21 0 -35.5 14.5t-14.5 38.5q0 35 22 60t53 25q21 0 35 -14t14 -38q0 -34 -22 -60t-52 -26zM58 149l75 232q8 25 -4.5 36t-57.5 14v23l186 9l-96 -304
q-9 -31 -9 -53q0 -51 60 -51q52 0 123 65l54 183l37 158h111l-107 -351q-9 -30 -9 -47q0 -21 18.5 -28t66.5 -5v-21q-45 -17 -98 -17q-83 0 -83 61q0 17 5 32l-4 3q-87 -96 -177 -96q-51 0 -77 25.5t-26 68.5q0 25 12 63z" />
    <glyph glyph-name="yacute" unicode="&#xfd;" horiz-adv-x="471" 
d="M192 464l31 -201l29 -202h9l51 84q71 116 83 190q-52 22 -52 70q0 27 16.5 45.5t43.5 18.5q29 0 46 -21.5t17 -52.5q0 -37 -28.5 -98t-106.5 -182q-116 -182 -185 -249t-134 -67q-40 0 -62 20.5t-22 53.5q0 27 17.5 46t43.5 19t42.5 -17t16.5 -45q0 -22 -12 -37
q83 27 141 119l-39 222l-36 193q-5 30 -20.5 40t-60.5 11v23zM233 530l87 126q35 53 51 69t38 16q17 0 29 -11.5t12 -28.5q0 -20 -16.5 -38t-67.5 -56l-103 -77h-30z" />
    <glyph glyph-name="thorn" unicode="&#xfe;" horiz-adv-x="522" 
d="M222 396q74 72 146 72q54 0 89 -41t35 -112q0 -118 -83.5 -219t-194.5 -101q-55 0 -92 25l-41 -158q-4 -16 15 -22t75 -8v-23h-280v23q71 3 80 28l39 123l84 317l82 326q6 23 -13 34t-70 14v23l214 10l-89 -308zM217 25q69 0 118 90.5t49 194.5q0 101 -75 101
q-52 0 -99 -49l-72 -283q8 -26 30.5 -40t48.5 -14z" />
    <glyph glyph-name="ydieresis" unicode="&#xff;" horiz-adv-x="471" 
d="M192 464l31 -201l29 -202h9l51 84q71 116 83 190q-52 22 -52 70q0 27 16.5 45.5t43.5 18.5q29 0 46 -21.5t17 -52.5q0 -37 -28.5 -98t-106.5 -182q-116 -182 -185 -249t-134 -67q-40 0 -62 20.5t-22 53.5q0 27 17.5 46t43.5 19t42.5 -17t16.5 -45q0 -22 -12 -37
q83 27 141 119l-39 222l-36 193q-5 30 -20.5 40t-60.5 11v23zM401 536q-20 0 -34.5 14.5t-14.5 38.5q0 35 22 60t53 25q20 0 34.5 -14t14.5 -38q0 -34 -22 -60t-53 -26zM208 536q-21 0 -35.5 14.5t-14.5 38.5q0 35 22 60t53 25q21 0 35 -14t14 -38q0 -34 -22 -60t-52 -26z
" />
    <glyph glyph-name="Amacron" unicode="&#x100;" horiz-adv-x="683" 
d="M-56 0l6 24q54 11 87.5 41t80.5 106l320 517h62l81 -578q6 -48 21 -63.5t67 -22.5l-6 -24h-303l6 24q66 3 83.5 19.5t11.5 62.5l-18 150h-230l-61 -102q-42 -69 -34.5 -94t69.5 -36l-7 -24h-236zM439 286l-33 280h-7l-169 -280h209zM347 781l14 53h263l-14 -53h-263z" />
    <glyph glyph-name="amacron" unicode="&#x101;" horiz-adv-x="539" 
d="M471 307l-55 -193q-10 -35 -10 -51q0 -21 18.5 -28t65.5 -5v-21q-49 -17 -94 -17q-43 0 -62.5 13t-19.5 46q0 15 4 30l-4 2q-36 -49 -70 -70t-78 -21q-61 0 -97.5 42t-36.5 117q0 118 85 217.5t184 99.5q41 0 64.5 -15.5t38.5 -46.5l18 51l105 11zM314 437
q-47 0 -88.5 -52t-63 -117.5t-21.5 -115.5q0 -108 74 -108q53 0 104 88l67 226q-6 37 -25.5 58t-46.5 21zM222 557l14 53h263l-14 -53h-263z" />
    <glyph glyph-name="Abreve" unicode="&#x102;" horiz-adv-x="683" 
d="M-56 0l6 24q54 11 87.5 41t80.5 106l320 517h62l81 -578q6 -48 21 -63.5t67 -22.5l-6 -24h-303l6 24q66 3 83.5 19.5t11.5 62.5l-18 150h-230l-61 -102q-42 -69 -34.5 -94t69.5 -36l-7 -24h-236zM439 286l-33 280h-7l-169 -280h209zM481 760q-62 0 -90.5 41.5
t-13.5 116.5h27q6 -89 89 -89q78 0 127 89h31q-22 -75 -65.5 -116.5t-104.5 -41.5z" />
    <glyph glyph-name="abreve" unicode="&#x103;" horiz-adv-x="539" 
d="M471 307l-55 -193q-10 -35 -10 -51q0 -21 18.5 -28t65.5 -5v-21q-49 -17 -94 -17q-43 0 -62.5 13t-19.5 46q0 15 4 30l-4 2q-36 -49 -70 -70t-78 -21q-61 0 -97.5 42t-36.5 117q0 118 85 217.5t184 99.5q41 0 64.5 -15.5t38.5 -46.5l18 51l105 11zM314 437
q-47 0 -88.5 -52t-63 -117.5t-21.5 -115.5q0 -108 74 -108q53 0 104 88l67 226q-6 37 -25.5 58t-46.5 21zM357 536q-62 0 -90.5 41.5t-13.5 116.5h27q6 -89 89 -89q78 0 127 89h31q-22 -75 -65.5 -116.5t-104.5 -41.5z" />
    <glyph glyph-name="Aogonek" unicode="&#x104;" horiz-adv-x="679" 
d="M444 -243q-41 0 -65.5 20.5t-24.5 54.5q0 71 122 135q19 12 66 33h-182l6 24q66 3 83.5 19.5t11.5 62.5l-18 150h-230l-61 -102q-42 -69 -34.5 -94t69.5 -36l-7 -24h-236l6 24q54 11 87.5 41t80.5 106l320 517h62l81 -578q6 -48 21 -63.5t67 -22.5l-6 -24h-81l-42 -27
q-107 -65 -107 -129q0 -23 13.5 -36t37.5 -13q25 0 63 15l7 -19q-59 -34 -110 -34zM439 286l-33 280h-7l-169 -280h209z" />
    <glyph glyph-name="aogonek" unicode="&#x105;" horiz-adv-x="539" 
d="M490 29v-21l-60 -33q-118 -65 -118 -131q0 -23 13.5 -36t37.5 -13q25 0 62 15l7 -19q-57 -34 -109 -34q-41 0 -65.5 20.5t-24.5 54.5q0 77 131 137l50 23h-12l-6 -1q-43 0 -62.5 13t-19.5 46q0 16 4 31l-4 2q-36 -49 -70 -70t-78 -21q-61 0 -97.5 42t-36.5 117
q0 118 85 217.5t184 99.5q41 0 64.5 -15.5t38.5 -46.5l18 51l105 11l-56 -161l-55 -194q-11 -33 -11 -51q0 -21 19 -28t66 -5zM314 437q-47 0 -88.5 -52t-63 -117.5t-21.5 -115.5q0 -108 74 -108q53 0 104 88l67 226q-6 37 -25.5 58t-46.5 21z" />
    <glyph glyph-name="Cacute" unicode="&#x106;" horiz-adv-x="682" 
d="M424 754l87 126q35 53 51 69t38 16q17 0 29 -11.5t12 -28.5q0 -20 -16.5 -38t-67.5 -56l-103 -77h-30zM330 -17q-120 0 -195 78.5t-75 202.5q0 79 30.5 156t83 138t131.5 98.5t169 37.5q92 0 168 -50l50 48h27l-63 -237h-27q-28 117 -62 163.5t-98 46.5q-77 0 -144 -66
t-103.5 -161.5t-36.5 -188.5q0 -103 50 -159.5t138 -56.5q131 0 247 160l25 -15q-135 -195 -315 -195z" />
    <glyph glyph-name="cacute" unicode="&#x107;" horiz-adv-x="447" 
d="M252 530l87 126q35 53 51 69t38 16q17 0 29 -11.5t12 -28.5q0 -20 -16.5 -38t-67.5 -56l-103 -77h-30zM295 468q64 0 103 -28t39 -72q0 -29 -17 -48.5t-44 -19.5q-26 0 -42 15t-16 42q0 15 10.5 32.5t28.5 26.5q-17 25 -55 25q-67 0 -115.5 -87t-48.5 -182
q0 -65 28 -100.5t82 -35.5q76 0 137 85l20 -18q-75 -111 -191 -111q-80 0 -131.5 50.5t-51.5 135.5q0 111 78.5 200.5t185.5 89.5z" />
    <glyph glyph-name="Cdotaccent" unicode="&#x10a;" horiz-adv-x="682" 
d="M330 -17q-120 0 -195 78.5t-75 202.5q0 79 30.5 156t83 138t131.5 98.5t169 37.5q92 0 168 -50l50 48h27l-63 -237h-27q-28 117 -62 163.5t-98 46.5q-77 0 -144 -66t-103.5 -161.5t-36.5 -188.5q0 -103 50 -159.5t138 -56.5q131 0 247 160l25 -15q-135 -195 -315 -195z
M499 760q-21 0 -36 14.5t-15 40.5q0 36 22.5 62.5t54.5 26.5q22 0 36.5 -14t14.5 -40q0 -35 -22.5 -62.5t-54.5 -27.5z" />
    <glyph glyph-name="cdotaccent" unicode="&#x10b;" horiz-adv-x="447" 
d="M295 468q64 0 103 -28t39 -72q0 -29 -17 -48.5t-44 -19.5q-26 0 -42 15t-16 42q0 15 10.5 32.5t28.5 26.5q-17 25 -55 25q-67 0 -115.5 -87t-48.5 -182q0 -65 28 -100.5t82 -35.5q76 0 137 85l20 -18q-75 -111 -191 -111q-80 0 -131.5 50.5t-51.5 135.5q0 111 78.5 200.5
t185.5 89.5zM319 536q-21 0 -36 14.5t-15 40.5q0 36 22.5 62.5t54.5 26.5q22 0 36.5 -14t14.5 -40q0 -35 -22.5 -62.5t-54.5 -27.5z" />
    <glyph glyph-name="Ccaron" unicode="&#x10c;" horiz-adv-x="682" 
d="M467 754l-70 191h28l83 -97l135 97h33l-178 -191h-31zM330 -17q-120 0 -195 78.5t-75 202.5q0 79 30.5 156t83 138t131.5 98.5t169 37.5q92 0 168 -50l50 48h27l-63 -237h-27q-28 117 -62 163.5t-98 46.5q-77 0 -144 -66t-103.5 -161.5t-36.5 -188.5q0 -103 50 -159.5
t138 -56.5q131 0 247 160l25 -15q-135 -195 -315 -195z" />
    <glyph glyph-name="ccaron" unicode="&#x10d;" horiz-adv-x="447" 
d="M289 530l-70 191h28l83 -97l135 97h33l-178 -191h-31zM295 468q64 0 103 -28t39 -72q0 -29 -17 -48.5t-44 -19.5q-26 0 -42 15t-16 42q0 15 10.5 32.5t28.5 26.5q-17 25 -55 25q-67 0 -115.5 -87t-48.5 -182q0 -65 28 -100.5t82 -35.5q76 0 137 85l20 -18
q-75 -111 -191 -111q-80 0 -131.5 50.5t-51.5 135.5q0 111 78.5 200.5t185.5 89.5z" />
    <glyph glyph-name="Dcaron" unicode="&#x10e;" horiz-adv-x="746" 
d="M95 74l141 530q7 25 -10 35.5t-80 13.5l7 25h257q166 0 248 -77t82 -199q0 -73 -29.5 -149t-87.5 -134q-121 -119 -314 -119h-337l7 25q63 2 86 12.5t30 36.5zM202 30h112q106 0 181 75q61 61 92 159t31 187q0 197 -195 197h-57zM473 754l-70 191h28l83 -97l135 97h33
l-178 -191h-31z" />
    <glyph glyph-name="dcaron" unicode="&#x10f;" horiz-adv-x="548" 
d="M581 707l-163 -586q-11 -39 -11 -52q0 -23 19.5 -32t67.5 -7v-21q-42 -17 -97 -17q-43 0 -63 16t-20 52q0 9 1 18l-4 1q-68 -87 -143 -87q-61 0 -98.5 45t-37.5 121q0 73 37.5 145t99 118.5t126.5 46.5q66 0 106 -51l53 208q5 23 -14.5 35t-70.5 15v23zM310 436
q-48 0 -88.5 -51.5t-60.5 -116t-20 -116.5q0 -51 20 -78t56 -27q55 0 100 78l71 240q-23 71 -78 71zM631 538l35 160q8 41 20 60t37 19q17 0 29 -11.5t12 -28.5q0 -20 -34 -76l-76 -123h-23z" />
    <glyph glyph-name="Dcroat" unicode="&#x110;" horiz-adv-x="746" 
d="M95 74l69 260h-96l9 37h97l62 233q7 25 -10 35.5t-80 13.5l7 25h257q166 0 248 -77t82 -199q0 -73 -29.5 -149t-87.5 -134q-121 -119 -314 -119h-337l7 25q63 2 86 12.5t30 36.5zM202 30h112q106 0 181 75q61 61 92 159t31 187q0 197 -195 197h-57l-74 -277h129l-9 -37
h-130z" />
    <glyph glyph-name="dcroat" unicode="&#x111;" horiz-adv-x="544" 
d="M581 707l-33 -116h70l-8 -32h-71l-121 -438q-11 -39 -11 -52q0 -23 19.5 -32t67.5 -7v-21q-42 -17 -97 -17q-43 0 -63 16t-20 52q0 9 1 18l-4 1q-68 -87 -143 -87q-61 0 -98.5 45t-37.5 121q0 73 37.5 145t99 118.5t126.5 46.5q66 0 106 -51l36 142h-153l9 32h152l9 34
q5 23 -14.5 35t-70.5 15v23zM310 436q-48 0 -88.5 -51.5t-60.5 -116t-20 -116.5q0 -51 20 -78t56 -27q55 0 100 78l71 240q-23 71 -78 71z" />
    <glyph glyph-name="Emacron" unicode="&#x112;" horiz-adv-x="674" 
d="M153 678h558l-51 -206h-28q-13 104 -38 139t-107 35h-121l-73 -273h56q56 0 82.5 18.5t68.5 89.5h25l-67 -262h-25q-6 80 -21 101.5t-69 21.5h-58l-83 -310h138q50 0 86.5 10.5t66.5 37t51.5 57t53.5 85.5h30l-64 -222h-592l7 25q63 2 86 12.5t30 36.5l141 530
q7 25 -10 35.5t-80 13.5zM347 781l14 53h263l-14 -53h-263z" />
    <glyph glyph-name="emacron" unicode="&#x113;" horiz-adv-x="453" 
d="M448 364q0 -64 -79 -107t-230 -42q-3 -24 -3 -47q0 -132 104 -132q81 0 143 84l20 -18q-82 -110 -198 -110q-75 0 -125.5 44.5t-50.5 129.5q0 117 82 209.5t199 92.5q67 0 102.5 -28.5t35.5 -75.5zM303 439q-50 0 -96 -58.5t-63 -140.5q211 6 211 143q0 56 -52 56z
M181 557l14 53h263l-14 -53h-263z" />
    <glyph glyph-name="Ebreve" unicode="&#x114;" horiz-adv-x="674" 
d="M153 678h558l-51 -206h-28q-13 104 -38 139t-107 35h-121l-73 -273h56q56 0 82.5 18.5t68.5 89.5h25l-67 -262h-25q-6 80 -21 101.5t-69 21.5h-58l-83 -310h138q50 0 86.5 10.5t66.5 37t51.5 57t53.5 85.5h30l-64 -222h-592l7 25q63 2 86 12.5t30 36.5l141 530
q7 25 -10 35.5t-80 13.5zM482 760q-62 0 -90.5 41.5t-13.5 116.5h27q6 -89 89 -89q78 0 127 89h31q-22 -75 -65.5 -116.5t-104.5 -41.5z" />
    <glyph glyph-name="ebreve" unicode="&#x115;" horiz-adv-x="453" 
d="M448 364q0 -64 -79 -107t-230 -42q-3 -24 -3 -47q0 -132 104 -132q81 0 143 84l20 -18q-82 -110 -198 -110q-75 0 -125.5 44.5t-50.5 129.5q0 117 82 209.5t199 92.5q67 0 102.5 -28.5t35.5 -75.5zM303 439q-50 0 -96 -58.5t-63 -140.5q211 6 211 143q0 56 -52 56z
M315 536q-62 0 -90.5 41.5t-13.5 116.5h27q6 -89 89 -89q78 0 127 89h31q-22 -75 -65.5 -116.5t-104.5 -41.5z" />
    <glyph glyph-name="Edotaccent" unicode="&#x116;" horiz-adv-x="674" 
d="M153 678h558l-51 -206h-28q-13 104 -38 139t-107 35h-121l-73 -273h56q56 0 82.5 18.5t68.5 89.5h25l-67 -262h-25q-6 80 -21 101.5t-69 21.5h-58l-83 -310h138q50 0 86.5 10.5t66.5 37t51.5 57t53.5 85.5h30l-64 -222h-592l7 25q63 2 86 12.5t30 36.5l141 530
q7 25 -10 35.5t-80 13.5zM483 760q-21 0 -36 14.5t-15 40.5q0 36 22.5 62.5t54.5 26.5q22 0 36.5 -14t14.5 -40q0 -35 -22.5 -62.5t-54.5 -27.5z" />
    <glyph glyph-name="edotaccent" unicode="&#x117;" horiz-adv-x="453" 
d="M448 364q0 -64 -79 -107t-230 -42q-3 -24 -3 -47q0 -132 104 -132q81 0 143 84l20 -18q-82 -110 -198 -110q-75 0 -125.5 44.5t-50.5 129.5q0 117 82 209.5t199 92.5q67 0 102.5 -28.5t35.5 -75.5zM303 439q-50 0 -96 -58.5t-63 -140.5q211 6 211 143q0 56 -52 56z
M322 536q-21 0 -36 14.5t-15 40.5q0 36 22.5 62.5t54.5 26.5q22 0 36.5 -14t14.5 -40q0 -35 -22.5 -62.5t-54.5 -27.5z" />
    <glyph glyph-name="Eogonek" unicode="&#x118;" horiz-adv-x="677" 
d="M153 678h558l-51 -206h-28q-13 104 -38 139t-107 35h-121l-73 -273h56q56 0 82.5 18.5t68.5 89.5h25l-67 -262h-25q-6 80 -21 101.5t-69 21.5h-58l-83 -310h138q50 0 86.5 10.5t66.5 37t51.5 57t53.5 85.5h30l-64 -222h-62l-42 -27q-107 -65 -107 -129q0 -23 13.5 -36
t37.5 -13q25 0 63 15l7 -19q-59 -34 -110 -34q-41 0 -65.5 20.5t-24.5 54.5q0 71 122 135q19 12 66 33h-490l7 25q63 2 86 12.5t30 36.5l141 530q7 25 -10 35.5t-80 13.5z" />
    <glyph glyph-name="eogonek" unicode="&#x119;" horiz-adv-x="453" 
d="M29 166q0 117 82 209.5t199 92.5q67 0 102.5 -28.5t35.5 -75.5q0 -64 -79 -107t-230 -42q-3 -24 -3 -47q0 -132 104 -132q81 0 143 84l20 -18q-33 -45 -86 -82l-67 -46q-58 -40 -82 -69t-24 -61q0 -23 13.5 -36t37.5 -13q25 0 62 15l8 -19q-59 -34 -110 -34
q-41 0 -65.5 20.5t-24.5 54.5q0 74 121 135l57 29q-17 -4 -38 -4q-75 0 -125.5 44.5t-50.5 129.5zM303 439q-50 0 -96 -58.5t-63 -140.5q211 6 211 143q0 56 -52 56z" />
    <glyph glyph-name="Ecaron" unicode="&#x11a;" horiz-adv-x="674" 
d="M457 754l-70 191h28l83 -97l135 97h33l-178 -191h-31zM153 678h558l-51 -206h-28q-13 104 -38 139t-107 35h-121l-73 -273h56q56 0 82.5 18.5t68.5 89.5h25l-67 -262h-25q-6 80 -21 101.5t-69 21.5h-58l-83 -310h138q50 0 86.5 10.5t66.5 37t51.5 57t53.5 85.5h30
l-64 -222h-592l7 25q63 2 86 12.5t30 36.5l141 530q7 25 -10 35.5t-80 13.5z" />
    <glyph glyph-name="ecaron" unicode="&#x11b;" horiz-adv-x="453" 
d="M448 364q0 -64 -79 -107t-230 -42q-3 -24 -3 -47q0 -132 104 -132q81 0 143 84l20 -18q-82 -110 -198 -110q-75 0 -125.5 44.5t-50.5 129.5q0 117 82 209.5t199 92.5q67 0 102.5 -28.5t35.5 -75.5zM303 439q-50 0 -96 -58.5t-63 -140.5q211 6 211 143q0 56 -52 56z
M290 530l-70 191h28l83 -97l135 97h33l-178 -191h-31z" />
    <glyph glyph-name="Gbreve" unicode="&#x11e;" horiz-adv-x="719" 
d="M721 692l-61 -226h-27q-33 114 -65.5 156.5t-96.5 42.5q-60 0 -114.5 -40.5t-91.5 -103.5t-58.5 -139t-21.5 -149q0 -102 47 -161t125 -59q67 0 117 36l51 192q6 26 -11 37.5t-81 14.5l7 25h292l-7 -25q-45 -2 -61 -12t-24 -38l-53 -193q-126 -67 -244 -67
q-127 0 -205 79t-78 203q0 78 30.5 155t83 138t131.5 98.5t169 37.5q94 0 171 -49l49 47h27zM492 760q-62 0 -90.5 41.5t-13.5 116.5h27q6 -89 89 -89q78 0 127 89h31q-22 -75 -65.5 -116.5t-104.5 -41.5z" />
    <glyph glyph-name="gbreve" unicode="&#x11f;" horiz-adv-x="522" 
d="M175 4q-63 0 -102.5 43t-39.5 117q0 71 36 141t97.5 116.5t128.5 46.5q72 0 106 -63l18 52l107 11l-56 -162l-88 -313q-29 -103 -84 -148.5t-163 -45.5q-77 0 -119.5 29t-42.5 68q0 32 19 52.5t48 20.5q26 0 40.5 -15.5t14.5 -40.5q0 -33 -32 -53q17 -34 73 -34
q57 0 93 44t61 139l16 58l-4 2q-56 -65 -127 -65zM308 436q-49 0 -89 -51.5t-58.5 -114t-18.5 -112.5q0 -105 77 -105q52 0 95 61l71 241q-9 36 -28.5 58.5t-48.5 22.5zM343 536q-62 0 -90.5 41.5t-13.5 116.5h27q6 -89 89 -89q78 0 127 89h31q-22 -75 -65.5 -116.5
t-104.5 -41.5z" />
    <glyph glyph-name="Gdotaccent" unicode="&#x120;" horiz-adv-x="719" 
d="M721 692l-61 -226h-27q-33 114 -65.5 156.5t-96.5 42.5q-60 0 -114.5 -40.5t-91.5 -103.5t-58.5 -139t-21.5 -149q0 -102 47 -161t125 -59q67 0 117 36l51 192q6 26 -11 37.5t-81 14.5l7 25h292l-7 -25q-45 -2 -61 -12t-24 -38l-53 -193q-126 -67 -244 -67
q-127 0 -205 79t-78 203q0 78 30.5 155t83 138t131.5 98.5t169 37.5q94 0 171 -49l49 47h27zM499 760q-21 0 -36 14.5t-15 40.5q0 36 22.5 62.5t54.5 26.5q22 0 36.5 -14t14.5 -40q0 -35 -22.5 -62.5t-54.5 -27.5z" />
    <glyph glyph-name="gdotaccent" unicode="&#x121;" horiz-adv-x="522" 
d="M175 4q-63 0 -102.5 43t-39.5 117q0 71 36 141t97.5 116.5t128.5 46.5q72 0 106 -63l18 52l107 11l-56 -162l-88 -313q-29 -103 -84 -148.5t-163 -45.5q-77 0 -119.5 29t-42.5 68q0 32 19 52.5t48 20.5q26 0 40.5 -15.5t14.5 -40.5q0 -33 -32 -53q17 -34 73 -34
q57 0 93 44t61 139l16 58l-4 2q-56 -65 -127 -65zM308 436q-49 0 -89 -51.5t-58.5 -114t-18.5 -112.5q0 -105 77 -105q52 0 95 61l71 241q-9 36 -28.5 58.5t-48.5 22.5zM348 536q-21 0 -36 14.5t-15 40.5q0 36 22.5 62.5t54.5 26.5q22 0 36.5 -14t14.5 -40
q0 -35 -22.5 -62.5t-54.5 -27.5z" />
    <glyph glyph-name="Gcommaaccent" unicode="&#x122;" horiz-adv-x="719" 
d="M171 -307l-8 20q102 46 120 98l-4 3q-25 -1 -41.5 15t-16.5 40q0 26 17.5 44t43.5 18q27 0 45.5 -20t18.5 -51q0 -104 -175 -167zM721 692l-61 -226h-27q-33 114 -65.5 156.5t-96.5 42.5q-60 0 -114.5 -40.5t-91.5 -103.5t-58.5 -139t-21.5 -149q0 -102 47 -161t125 -59
q67 0 117 36l51 192q6 26 -11 37.5t-81 14.5l7 25h292l-7 -25q-45 -2 -61 -12t-24 -38l-53 -193q-126 -67 -244 -67q-127 0 -205 79t-78 203q0 78 30.5 155t83 138t131.5 98.5t169 37.5q94 0 171 -49l49 47h27z" />
    <glyph glyph-name="gcommaaccent" unicode="&#x123;" horiz-adv-x="522" 
d="M464 795l8 -20q-102 -46 -120 -98l4 -3q25 1 41.5 -15t16.5 -40q0 -26 -17.5 -44t-43.5 -18q-27 0 -45.5 20t-18.5 51q0 104 175 167zM175 4q-63 0 -102.5 43t-39.5 117q0 71 36 141t97.5 116.5t128.5 46.5q72 0 106 -63l18 52l107 11l-56 -162l-88 -313
q-29 -103 -84 -148.5t-163 -45.5q-77 0 -119.5 29t-42.5 68q0 32 19 52.5t48 20.5q26 0 40.5 -15.5t14.5 -40.5q0 -33 -32 -53q17 -34 73 -34q57 0 93 44t61 139l16 58l-4 2q-56 -65 -127 -65zM308 436q-49 0 -89 -51.5t-58.5 -114t-18.5 -112.5q0 -105 77 -105q52 0 95 61
l71 241q-9 36 -28.5 58.5t-48.5 22.5z" />
    <glyph glyph-name="Hbar" unicode="&#x126;" horiz-adv-x="811" 
d="M836 489h-96l-111 -415q-7 -26 10.5 -36.5t80.5 -12.5l-7 -25h-316l7 25q61 3 80 12.5t27 37.5l69 258h-297l-70 -259q-7 -27 9 -36.5t77 -12.5l-7 -25h-320l7 25q63 2 86 12.5t30 36.5l110 415h-95l9 33h95l22 82q7 25 -10 35.5t-80 13.5l7 25h316l-7 -25
q-61 -3 -80.5 -13t-26.5 -37l-22 -81h297l22 82q7 26 -8 36t-76 13l6 25h320l-6 -25q-63 -3 -87 -13.5t-30 -35.5l-22 -82h96zM290 364h298l33 125h-297z" />
    <glyph glyph-name="hbar" unicode="&#x127;" horiz-adv-x="561" 
d="M488 309l-65 -201q-10 -29 -10 -47q0 -20 19 -26.5t67 -4.5v-21q-45 -17 -100 -17q-87 0 -87 63q0 20 9 49l64 194q9 33 9 54q0 51 -55 51q-54 0 -128 -61l-85 -342h-112l51 162l101 397h-71l9 32h70l9 35q5 23 -14 34t-70 14v23l214 10l-34 -116h150l-8 -32h-151
l-51 -181l3 -3q99 91 182 91q46 0 70.5 -24.5t24.5 -68.5q0 -31 -11 -64z" />
    <glyph glyph-name="Imacron" unicode="&#x12a;" horiz-adv-x="416" 
d="M484 653q-63 -3 -87.5 -13.5t-31.5 -35.5l-142 -530q-7 -27 11.5 -37t83.5 -12l-7 -25h-331l7 25q63 2 87 12.5t31 36.5l142 530q7 26 -11 36t-83 13l7 25h330zM214 781l14 53h263l-14 -53h-263z" />
    <glyph glyph-name="imacron" unicode="&#x12b;" horiz-adv-x="307" 
d="M250 33v-21q-50 -20 -109 -20q-90 0 -90 71q0 20 8 46l85 274q8 23 -9 34t-66 14v23l204 9l-109 -350q-10 -33 -10 -46q0 -22 21.5 -29.5t74.5 -4.5zM87 557l14 53h263l-14 -53h-263z" />
    <glyph glyph-name="Ibreve" unicode="&#x12c;" horiz-adv-x="416" 
d="M484 653q-63 -3 -87.5 -13.5t-31.5 -35.5l-142 -530q-7 -27 11.5 -37t83.5 -12l-7 -25h-331l7 25q63 2 87 12.5t31 36.5l142 530q7 26 -11 36t-83 13l7 25h330zM347 760q-62 0 -90.5 41.5t-13.5 116.5h27q6 -89 89 -89q78 0 127 89h31q-22 -75 -65.5 -116.5t-104.5 -41.5
z" />
    <glyph glyph-name="ibreve" unicode="&#x12d;" horiz-adv-x="307" 
d="M250 33v-21q-50 -20 -109 -20q-90 0 -90 71q0 20 8 46l85 274q8 23 -9 34t-66 14v23l204 9l-109 -350q-10 -33 -10 -46q0 -22 21.5 -29.5t74.5 -4.5zM224 536q-62 0 -90.5 41.5t-13.5 116.5h27q6 -89 89 -89q78 0 127 89h31q-22 -75 -65.5 -116.5t-104.5 -41.5z" />
    <glyph glyph-name="Iogonek" unicode="&#x12e;" horiz-adv-x="417" 
d="M63 -243q-41 0 -65.5 20.5t-24.5 54.5q0 71 122 135q19 12 66 33h-181l7 25q63 2 87 12.5t31 36.5l142 530q7 26 -11 36t-83 13l7 25h330l-6 -25q-63 -3 -87.5 -13.5t-31.5 -35.5l-142 -530q-7 -27 11.5 -37t83.5 -12l-7 -25h-110l-42 -27q-107 -65 -107 -129
q0 -23 13.5 -36t37.5 -13q25 0 63 15l7 -19q-59 -34 -110 -34z" />
    <glyph glyph-name="iogonek" unicode="&#x12f;" horiz-adv-x="306" 
d="M119 -29l48 23q-18 -2 -25 -2q-90 0 -90 71q0 20 8 46l85 274q8 23 -9 34t-65 14v23l203 9l-109 -350q-10 -33 -10 -46q0 -22 21.5 -29.5t74.5 -4.5v-21l-53 -28q-132 -70 -132 -140q0 -23 14 -36t38 -13t62 15l7 -19q-59 -34 -110 -34q-41 0 -65.5 20.5t-24.5 54.5
q0 73 132 139zM250 565q-22 0 -37 14.5t-15 40.5q0 35 23 61.5t55 26.5q22 0 36 -13.5t14 -39.5q0 -35 -22.5 -62.5t-53.5 -27.5z" />
    <glyph glyph-name="Idotaccent" unicode="&#x130;" horiz-adv-x="416" 
d="M484 653q-63 -3 -87.5 -13.5t-31.5 -35.5l-142 -530q-7 -27 11.5 -37t83.5 -12l-7 -25h-331l7 25q63 2 87 12.5t31 36.5l142 530q7 26 -11 36t-83 13l7 25h330zM353 760q-21 0 -36 14.5t-15 40.5q0 36 22.5 62.5t54.5 26.5q22 0 36.5 -14t14.5 -40q0 -35 -22.5 -62.5
t-54.5 -27.5z" />
    <glyph glyph-name="dotlessi" unicode="&#x131;" horiz-adv-x="306" 
d="M250 33v-21q-50 -20 -109 -20q-90 0 -90 71q0 20 8 46l85 274q8 23 -9 34t-66 14v23l204 9l-109 -350q-10 -33 -10 -46q0 -22 21.5 -29.5t74.5 -4.5z" />
    <glyph glyph-name="Kcommaaccent" unicode="&#x136;" horiz-adv-x="753" 
d="M184 -307l-8 20q102 46 120 98l-4 3q-25 -1 -41.5 15t-16.5 40q0 26 17.5 44t43.5 18q27 0 45.5 -20t18.5 -51q0 -104 -175 -167zM828 678l-6 -24q-60 -13 -102.5 -36.5t-118.5 -83.5l-153 -124l133 -296q22 -49 42.5 -65t74.5 -26l-6 -23h-312l6 23q60 6 74 22.5
t-4 55.5l-101 234l-92 -74l-50 -187q-7 -27 7.5 -36.5t69.5 -12.5l-7 -25h-311l7 25q63 2 86 12.5t30 36.5l141 530q7 25 -10 35.5t-80 13.5l7 25h316l-7 -25q-61 -3 -80.5 -13t-26.5 -37l-79 -296l294 242q107 88 -12 105l6 24h264z" />
    <glyph glyph-name="kcommaaccent" unicode="&#x137;" horiz-adv-x="516" 
d="M62 -307l-8 20q102 46 120 98l-4 3q-25 -1 -41.5 15t-16.5 40q0 26 17.5 44t43.5 18q27 0 45.5 -20t18.5 -51q0 -104 -175 -167zM313 707l-121 -436h37q27 0 52.5 31t43.5 67.5t49.5 67.5t69.5 31q32 0 50 -18.5t18 -45.5q0 -31 -17 -50.5t-44 -19.5q-24 0 -39 12.5
t-15 37.5q0 18 11 35q-20 -4 -40 -33t-42.5 -65.5t-46.5 -52.5v-4q69 -4 97 -29.5t28 -73.5q0 -13 -3 -48.5t-3 -52.5q0 -19 14.5 -26.5t65.5 -7.5v-20q-37 -14 -98 -14q-52 0 -70 15.5t-18 51.5q0 21 4 58.5t4 48.5q0 45 -18 63.5t-60 18.5h-35l-61 -248h-112l51 162
l118 464q6 23 -13.5 34t-70.5 14v23z" />
    <glyph glyph-name="Lacute" unicode="&#x139;" horiz-adv-x="626" 
d="M311 753l87 126q35 53 51 69t38 16q17 0 29 -11.5t12 -28.5q0 -20 -16.5 -38t-67.5 -56l-103 -77h-30zM355 603l-153 -572h101q48 0 80.5 9t64 36.5t55.5 60t65 97.5h31l-69 -234h-557l6 25q63 2 86 12.5t30 36.5l141 530q7 25 -10 35.5t-80 13.5l7 25h321l-6 -25
q-62 -3 -84.5 -14t-28.5 -36z" />
    <glyph glyph-name="lacute" unicode="&#x13a;" horiz-adv-x="295" 
d="M233 767l87 126q35 53 51 69t38 16q17 0 29 -11.5t12 -28.5q0 -20 -16.5 -38t-67.5 -56l-103 -77h-30zM324 707l-172 -597q-8 -26 -8 -41q0 -22 21.5 -29.5t77.5 -4.5v-21q-60 -21 -112 -21q-90 0 -90 71q0 20 8 47l104 347l44 168q6 23 -13 34t-70 14v23z" />
    <glyph glyph-name="Lcommaaccent" unicode="&#x13b;" horiz-adv-x="626" 
d="M146 -307l-8 20q102 46 120 98l-4 3q-25 -1 -41.5 15t-16.5 40q0 26 17.5 44t43.5 18q27 0 45.5 -20t18.5 -51q0 -104 -175 -167zM355 603l-153 -572h101q48 0 80.5 9t64 36.5t55.5 60t65 97.5h31l-69 -234h-557l6 25q63 2 86 12.5t30 36.5l141 530q7 25 -10 35.5
t-80 13.5l7 25h321l-6 -25q-62 -3 -84.5 -14t-28.5 -36z" />
    <glyph glyph-name="lcommaaccent" unicode="&#x13c;" horiz-adv-x="295" 
d="M-39 -307l-8 20q102 46 120 98l-4 3q-25 -1 -41.5 15t-16.5 40q0 26 17.5 44t43.5 18q27 0 45.5 -20t18.5 -51q0 -104 -175 -167zM324 707l-172 -597q-8 -26 -8 -41q0 -22 21.5 -29.5t77.5 -4.5v-21q-60 -21 -112 -21q-90 0 -90 71q0 20 8 47l104 347l44 168q6 23 -13 34
t-70 14v23z" />
    <glyph glyph-name="Lcaron" unicode="&#x13d;" horiz-adv-x="626" 
d="M509 525l35 160q8 41 20 60t37 19q17 0 29 -11.5t12 -28.5q0 -20 -34 -76l-76 -123h-23zM355 603l-153 -572h101q48 0 80.5 9t64 36.5t55.5 60t65 97.5h31l-69 -234h-557l6 25q63 2 86 12.5t30 36.5l141 530q7 25 -10 35.5t-80 13.5l7 25h321l-6 -25q-62 -3 -84.5 -14
t-28.5 -36z" />
    <glyph glyph-name="lcaron" unicode="&#x13e;" horiz-adv-x="295" 
d="M372 538l35 160q8 41 20 60t37 19q17 0 29 -11.5t12 -28.5q0 -20 -34 -76l-76 -123h-23zM324 707l-172 -597q-8 -26 -8 -41q0 -22 21.5 -29.5t77.5 -4.5v-21q-60 -21 -112 -21q-90 0 -90 71q0 20 8 47l104 347l44 168q6 23 -13 34t-70 14v23z" />
    <glyph glyph-name="Ldot" unicode="&#x13f;" horiz-adv-x="626" 
d="M-28 0l7 25q63 2 86 12.5t30 36.5l141 530q7 25 -10 35.5t-80 13.5l6 25h322l-6 -25q-62 -3 -84.5 -14t-28.5 -36l-153 -572h101q48 0 80.5 8.5t63.5 35t54.5 57.5t63.5 92h30l-65 -224h-558zM510 289q-21 0 -36 14.5t-15 40.5q0 36 22.5 62.5t54.5 26.5q22 0 36.5 -14
t14.5 -40q0 -35 -22.5 -62.5t-54.5 -27.5z" />
    <glyph glyph-name="ldot" unicode="&#x140;" horiz-adv-x="362" 
d="M337 265q-21 0 -35.5 14t-14.5 39q0 35 22 61t53 26q21 0 35 -13.5t14 -38.5q0 -35 -22 -61.5t-52 -26.5zM324 707l-172 -597q-8 -26 -8 -41q0 -22 21.5 -29.5t77.5 -4.5v-21q-60 -21 -112 -21q-90 0 -90 71q0 20 8 47l104 347l44 168q6 23 -13 34t-70 14v23z" />
    <glyph glyph-name="Lslash" unicode="&#x141;" horiz-adv-x="626" 
d="M355 603l-62 -230l145 36l1 -36l-156 -40l-81 -302h101q48 0 80.5 9t64 36.5t55.5 60t65 97.5h31l-69 -234h-557l6 25q63 2 86 12.5t30 36.5l60 227l-96 -24v37l107 27l70 263q7 25 -10 35.5t-80 13.5l7 25h321l-6 -25q-62 -3 -84.5 -14t-28.5 -36z" />
    <glyph glyph-name="lslash" unicode="&#x142;" horiz-adv-x="331" 
d="M342 707l-94 -325l98 24l-1 -35l-108 -26l-67 -235q-8 -26 -8 -41q0 -22 21.5 -29.5t77.5 -4.5v-21q-60 -21 -112 -21q-90 0 -90 71q0 20 8 47l62 207l-89 -21v35l100 24l31 102l44 168q6 23 -13 34t-70 14v23z" />
    <glyph glyph-name="Nacute" unicode="&#x143;" horiz-adv-x="788" 
d="M475 750l87 126q35 53 51 69t38 16q17 0 29 -11.5t12 -28.5q0 -20 -16.5 -38t-67.5 -56l-103 -77h-30zM351 678l249 -529h3l98 370q19 72 2.5 99t-86.5 36l6 24h260l-6 -24q-67 -10 -93 -37t-45 -100l-142 -531h-50l-274 580h-3l-109 -407q-20 -70 -3.5 -98.5t85.5 -36.5
l-6 -24h-264l6 24q68 9 96.5 37t47.5 100l109 407q9 36 -10 59.5t-75 25.5l7 25h197z" />
    <glyph glyph-name="nacute" unicode="&#x144;" horiz-adv-x="547" 
d="M300 530l87 126q35 53 51 69t38 16q17 0 29 -11.5t12 -28.5q0 -20 -16.5 -38t-67.5 -56l-103 -77h-30zM68 162l60 220q6 25 -5.5 35.5t-56.5 13.5v23l183 9l-27 -85l3 -3q98 91 182 91q46 0 70.5 -24t24.5 -68q0 -27 -11 -65l-66 -201q-10 -33 -10 -47q0 -20 19 -26.5
t67 -4.5v-21q-42 -17 -99 -17q-87 0 -87 63q0 20 9 49l63 194q10 31 10 54q0 51 -55 51q-56 0 -128 -61l-85 -342h-113z" />
    <glyph glyph-name="Ncommaaccent" unicode="&#x145;" horiz-adv-x="788" 
d="M214 -307l-8 20q102 46 120 98l-4 3q-25 -1 -41.5 15t-16.5 40q0 26 17.5 44t43.5 18q27 0 45.5 -20t18.5 -51q0 -104 -175 -167zM351 678l249 -529h3l98 370q19 72 2.5 99t-86.5 36l6 24h260l-6 -24q-67 -10 -93 -37t-45 -100l-142 -531h-50l-274 580h-3l-109 -407
q-20 -70 -3.5 -98.5t85.5 -36.5l-6 -24h-264l6 24q68 9 96.5 37t47.5 100l109 407q9 36 -10 59.5t-75 25.5l7 25h197z" />
    <glyph glyph-name="ncommaaccent" unicode="&#x146;" horiz-adv-x="547" 
d="M80 -307l-8 20q102 46 120 98l-4 3q-25 -1 -41.5 15t-16.5 40q0 26 17.5 44t43.5 18q27 0 45.5 -20t18.5 -51q0 -104 -175 -167zM68 162l60 220q6 25 -5.5 35.5t-56.5 13.5v23l183 9l-27 -85l3 -3q98 91 182 91q46 0 70.5 -24t24.5 -68q0 -27 -11 -65l-66 -201
q-10 -33 -10 -47q0 -20 19 -26.5t67 -4.5v-21q-42 -17 -99 -17q-87 0 -87 63q0 20 9 49l63 194q10 31 10 54q0 51 -55 51q-56 0 -128 -61l-85 -342h-113z" />
    <glyph glyph-name="Ncaron" unicode="&#x147;" horiz-adv-x="788" 
d="M503 750l-70 191h28l83 -97l135 97h33l-178 -191h-31zM351 678l249 -529h3l98 370q19 72 2.5 99t-86.5 36l6 24h260l-6 -24q-67 -10 -93 -37t-45 -100l-142 -531h-50l-274 580h-3l-109 -407q-20 -70 -3.5 -98.5t85.5 -36.5l-6 -24h-264l6 24q68 9 96.5 37t47.5 100
l109 407q9 36 -10 59.5t-75 25.5l7 25h197z" />
    <glyph glyph-name="ncaron" unicode="&#x148;" horiz-adv-x="547" 
d="M328 530l-70 191h28l83 -97l135 97h33l-178 -191h-31zM68 162l60 220q6 25 -5.5 35.5t-56.5 13.5v23l183 9l-27 -85l3 -3q98 91 182 91q46 0 70.5 -24t24.5 -68q0 -27 -11 -65l-66 -201q-10 -33 -10 -47q0 -20 19 -26.5t67 -4.5v-21q-42 -17 -99 -17q-87 0 -87 63
q0 20 9 49l63 194q10 31 10 54q0 51 -55 51q-56 0 -128 -61l-85 -342h-113z" />
    <glyph glyph-name="Omacron" unicode="&#x14c;" 
d="M378 781l14 53h263l-14 -53h-263zM331 -17q-119 0 -195 78t-76 201q0 79 30 156t82.5 138.5t130.5 99.5t166 38q119 0 195 -78t76 -201q0 -78 -30 -155.5t-82.5 -139t-130.5 -99.5t-166 -38zM329 13q81 0 149.5 73.5t105 177.5t36.5 204q0 93 -38 145t-111 52
q-81 0 -149.5 -73.5t-105 -178t-36.5 -204.5q0 -92 38 -144t111 -52z" />
    <glyph glyph-name="omacron" unicode="&#x14d;" horiz-adv-x="503" 
d="M192 557l14 53h263l-14 -53h-263zM298 468q79 0 127 -52t48 -136q0 -71 -30.5 -136t-93 -108.5t-143.5 -43.5q-79 0 -127.5 51.5t-48.5 135.5q0 113 74 201t194 88zM209 19q50 0 89 57t56.5 126.5t17.5 127.5q0 111 -77 111q-50 0 -89.5 -57t-57 -127t-17.5 -128
q0 -110 78 -110z" />
    <glyph glyph-name="Obreve" unicode="&#x14e;" 
d="M331 -17q-119 0 -195 78t-76 201q0 79 30 156t82.5 138.5t130.5 99.5t166 38q119 0 195 -78t76 -201q0 -78 -30 -155.5t-82.5 -139t-130.5 -99.5t-166 -38zM329 13q81 0 149.5 73.5t105 177.5t36.5 204q0 93 -38 145t-111 52q-81 0 -149.5 -73.5t-105 -178t-36.5 -204.5
q0 -92 38 -144t111 -52zM512 760q-62 0 -90.5 41.5t-13.5 116.5h27q6 -89 89 -89q78 0 127 89h31q-22 -75 -65.5 -116.5t-104.5 -41.5z" />
    <glyph glyph-name="obreve" unicode="&#x14f;" horiz-adv-x="503" 
d="M298 468q79 0 127 -52t48 -136q0 -71 -30.5 -136t-93 -108.5t-143.5 -43.5q-79 0 -127.5 51.5t-48.5 135.5q0 113 74 201t194 88zM209 19q50 0 89 57t56.5 126.5t17.5 127.5q0 111 -77 111q-50 0 -89.5 -57t-57 -127t-17.5 -128q0 -110 78 -110zM333 536
q-62 0 -90.5 41.5t-13.5 116.5h27q6 -89 89 -89q78 0 127 89h31q-22 -75 -65.5 -116.5t-104.5 -41.5z" />
    <glyph glyph-name="Ohungarumlaut" unicode="&#x150;" 
d="M389 754l87 126q35 52 51.5 68.5t37.5 16.5q17 0 29 -12t12 -27q0 -19 -17 -37t-68 -57l-102 -78h-30zM562 754l87 126q33 51 50 68t39 17q17 0 29 -12t12 -27q0 -18 -17 -36t-68 -58l-103 -78h-29zM331 -17q-119 0 -195 78t-76 201q0 79 30 156t82.5 138.5t130.5 99.5
t166 38q119 0 195 -78t76 -201q0 -78 -30 -155.5t-82.5 -139t-130.5 -99.5t-166 -38zM329 13q81 0 149.5 73.5t105 177.5t36.5 204q0 93 -38 145t-111 52q-81 0 -149.5 -73.5t-105 -178t-36.5 -204.5q0 -92 38 -144t111 -52z" />
    <glyph glyph-name="ohungarumlaut" unicode="&#x151;" horiz-adv-x="503" 
d="M207 530l87 126q35 52 51.5 68.5t37.5 16.5q17 0 29 -12t12 -27q0 -19 -17 -37t-68 -57l-102 -78h-30zM380 530l87 126q33 51 50 68t39 17q17 0 29 -12t12 -27q0 -18 -17 -36t-68 -58l-103 -78h-29zM298 468q79 0 127 -52t48 -136q0 -71 -30.5 -136t-93 -108.5
t-143.5 -43.5q-79 0 -127.5 51.5t-48.5 135.5q0 113 74 201t194 88zM209 19q50 0 89 57t56.5 126.5t17.5 127.5q0 111 -77 111q-50 0 -89.5 -57t-57 -127t-17.5 -128q0 -110 78 -110z" />
    <glyph glyph-name="OE" unicode="&#x152;" horiz-adv-x="1028" 
d="M918 0h-520q-167 0 -251.5 78t-84.5 201q0 72 29.5 146t86.5 131q124 122 320 122h567l-52 -206h-27q-7 54 -13.5 81.5t-21.5 51.5t-41 32.5t-69 8.5h-122l-73 -273h57q56 0 82.5 18.5t67.5 89.5h25l-67 -262h-25q-5 79 -20 101t-69 22h-59l-82 -310h137q50 0 86.5 10.5
t66.5 37t52 57t54 85.5h29zM601 647h-107q-109 0 -186 -77q-61 -61 -92 -157t-31 -183q0 -199 200 -199h52z" />
    <glyph glyph-name="oe" unicode="&#x153;" horiz-adv-x="779" 
d="M636 468q66 0 101.5 -28.5t35.5 -75.5q0 -64 -79 -107t-229 -42q-3 -24 -3 -47q0 -132 103 -132q82 0 144 84l20 -18q-82 -110 -198 -110q-102 0 -142 80q-72 -80 -183 -80q-79 0 -127 51.5t-48 135.5q0 113 73.5 201t193.5 88q105 0 147 -91q79 91 191 91zM209 19
q50 0 89 57t56.5 126.5t17.5 127.5q0 111 -77 111q-50 0 -89 -57t-56.5 -127t-17.5 -128q0 -110 77 -110zM629 439q-50 0 -96 -58.5t-63 -140.5q211 6 211 143q0 56 -52 56z" />
    <glyph glyph-name="Racute" unicode="&#x154;" horiz-adv-x="691" 
d="M417 754l87 126q35 53 51 69t38 16q17 0 29 -11.5t12 -28.5q0 -20 -16.5 -38t-67.5 -56l-103 -77h-30zM288 355h65q98 0 149 54t51 130q0 55 -30.5 82t-101.5 27h-54zM146 653l7 25h273q251 0 251 -150q0 -71 -61 -121t-176 -64l-1 -4q89 -11 119 -46t25 -112l-4 -73
q-2 -53 14 -69.5t73 -19.5l-7 -25q-5 0 -26.5 -0.5t-30.5 -0.5q-54 0 -85.5 7t-46 22t-16.5 39t2 58l8 78q8 71 -15 99.5t-101 28.5h-68l-67 -251q-7 -27 10 -36.5t78 -12.5l-7 -25h-322l7 25q63 2 86 12.5t30 36.5l141 530q7 25 -10 35.5t-80 13.5z" />
    <glyph glyph-name="racute" unicode="&#x155;" horiz-adv-x="428" 
d="M243 530l87 126q35 53 51 69t38 16q17 0 29 -11.5t12 -28.5q0 -20 -16.5 -38t-67.5 -56l-103 -77h-30zM375 466q33 0 52.5 -20t19.5 -49q0 -35 -18.5 -56.5t-47.5 -21.5q-58 0 -58 53q0 22 12 38q-61 -9 -127 -90l-79 -320h-113l52 162l60 220q6 25 -5.5 35.5t-56.5 13.5
v23l183 9l-29 -96l3 -3q79 102 152 102z" />
    <glyph glyph-name="Rcommaaccent" unicode="&#x156;" horiz-adv-x="691" 
d="M185 -307l-8 20q102 46 120 98l-4 3q-25 -1 -41.5 15t-16.5 40q0 26 17.5 44t43.5 18q27 0 45.5 -20t18.5 -51q0 -104 -175 -167zM288 355h65q98 0 149 54t51 130q0 55 -30.5 82t-101.5 27h-54zM146 653l7 25h273q251 0 251 -150q0 -71 -61 -121t-176 -64l-1 -4
q89 -11 119 -46t25 -112l-4 -73q-2 -53 14 -69.5t73 -19.5l-7 -25q-5 0 -26.5 -0.5t-30.5 -0.5q-54 0 -85.5 7t-46 22t-16.5 39t2 58l8 78q8 71 -15 99.5t-101 28.5h-68l-67 -251q-7 -27 10 -36.5t78 -12.5l-7 -25h-322l7 25q63 2 86 12.5t30 36.5l141 530q7 25 -10 35.5
t-80 13.5z" />
    <glyph glyph-name="rcommaaccent" unicode="&#x157;" horiz-adv-x="428" 
d="M-66 -307l-8 20q102 46 120 98l-4 3q-25 -1 -41.5 15t-16.5 40q0 26 17.5 44t43.5 18q27 0 45.5 -20t18.5 -51q0 -104 -175 -167zM375 466q33 0 52.5 -20t19.5 -49q0 -35 -18.5 -56.5t-47.5 -21.5q-58 0 -58 53q0 22 12 38q-61 -9 -127 -90l-79 -320h-113l52 162l60 220
q6 25 -5.5 35.5t-56.5 13.5v23l183 9l-29 -96l3 -3q79 102 152 102z" />
    <glyph glyph-name="Rcaron" unicode="&#x158;" horiz-adv-x="691" 
d="M447 754l-70 191h28l83 -97l135 97h33l-178 -191h-31zM288 355h65q98 0 149 54t51 130q0 55 -30.5 82t-101.5 27h-54zM146 653l7 25h273q251 0 251 -150q0 -71 -61 -121t-176 -64l-1 -4q89 -11 119 -46t25 -112l-4 -73q-2 -53 14 -69.5t73 -19.5l-7 -25q-5 0 -26.5 -0.5
t-30.5 -0.5q-54 0 -85.5 7t-46 22t-16.5 39t2 58l8 78q8 71 -15 99.5t-101 28.5h-68l-67 -251q-7 -27 10 -36.5t78 -12.5l-7 -25h-322l7 25q63 2 86 12.5t30 36.5l141 530q7 25 -10 35.5t-80 13.5z" />
    <glyph glyph-name="rcaron" unicode="&#x159;" horiz-adv-x="428" 
d="M269 530l-70 191h28l83 -97l135 97h33l-178 -191h-31zM375 466q33 0 52.5 -20t19.5 -49q0 -35 -18.5 -56.5t-47.5 -21.5q-58 0 -58 53q0 22 12 38q-61 -9 -127 -90l-79 -320h-113l52 162l60 220q6 25 -5.5 35.5t-56.5 13.5v23l183 9l-29 -96l3 -3q79 102 152 102z" />
    <glyph glyph-name="Sacute" unicode="&#x15a;" horiz-adv-x="556" 
d="M363 754l87 126q35 53 51 69t38 16q17 0 29 -11.5t12 -28.5q0 -20 -16.5 -38t-67.5 -56l-103 -77h-30zM-7 -18l59 230h27q39 -113 82.5 -155.5t109.5 -42.5t104.5 39t38.5 95q0 47 -31 82.5t-104 69.5q-79 38 -113.5 75.5t-34.5 99.5q0 87 70.5 152t180.5 65
q80 0 150 -41l49 46h26l-53 -216h-27q-36 107 -71.5 144.5t-93.5 37.5q-56 0 -92.5 -37t-36.5 -92q0 -21 8.5 -39t16.5 -29t33.5 -27t34.5 -20.5l45 -23.5q70 -36 104.5 -75.5t34.5 -102.5q0 -95 -65.5 -163.5t-188.5 -68.5q-47 0 -98.5 13.5t-86.5 33.5l-52 -50h-26z" />
    <glyph glyph-name="sacute" unicode="&#x15b;" horiz-adv-x="414" 
d="M229 530l87 126q35 53 51 69t38 16q17 0 29 -11.5t12 -28.5q0 -20 -16.5 -38t-67.5 -56l-103 -77h-30zM170 -8q-67 0 -113.5 25.5t-46.5 67.5q0 27 16.5 45t42.5 18q23 0 38 -14t15 -38q0 -28 -26 -49q8 -12 33 -20t49 -8q45 0 71.5 22.5t26.5 58.5q0 30 -20.5 49
t-70.5 45q-53 25 -80 53t-27 70q0 64 48.5 107.5t130.5 43.5q62 0 103 -27t41 -66q0 -25 -14.5 -42t-41.5 -17q-22 0 -37.5 14.5t-15.5 34.5q0 31 26 51q-7 10 -27 17.5t-41 7.5q-41 0 -64.5 -22t-23.5 -55q0 -29 20.5 -48t69.5 -45q55 -28 81 -56t26 -70q0 -63 -48 -108
t-141 -45z" />
    <glyph glyph-name="Scedilla" unicode="&#x15e;" horiz-adv-x="556" 
d="M174 -247q-51 0 -95 22l12 23q40 -16 76 -16q31 0 49.5 16t18.5 40q0 23 -19.5 35t-52.5 12q-13 0 -33 -4l-6 19l109 86q-91 6 -162 46l-52 -50h-26l59 230h27q39 -113 82.5 -155.5t109.5 -42.5t104.5 39t38.5 95q0 47 -31 82.5t-104 69.5q-79 38 -113.5 75.5t-34.5 99.5
q0 87 70.5 152t180.5 65q80 0 150 -41l49 46h26l-53 -216h-27q-36 107 -71.5 144.5t-93.5 37.5q-56 0 -92.5 -37t-36.5 -92q0 -21 8.5 -39t16.5 -29t33.5 -27t34.5 -20.5l45 -23.5q70 -36 104.5 -75.5t34.5 -102.5q0 -93 -62 -160.5t-180 -71.5l-68 -54l2 -3q103 -7 103 -76
q0 -42 -38.5 -70.5t-92.5 -28.5z" />
    <glyph glyph-name="scedilla" unicode="&#x15f;" horiz-adv-x="414" 
d="M170 -8q-67 0 -113.5 25.5t-46.5 67.5q0 27 16.5 45t42.5 18q23 0 38 -14t15 -38q0 -28 -26 -49q8 -12 33 -20t49 -8q45 0 71.5 22.5t26.5 58.5q0 30 -20.5 49t-70.5 45q-53 25 -80 53t-27 70q0 64 48.5 107.5t130.5 43.5q62 0 103 -27t41 -66q0 -25 -14.5 -42t-41.5 -17
q-22 0 -37.5 14.5t-15.5 34.5q0 31 26 51q-7 10 -27 17.5t-41 7.5q-41 0 -64.5 -22t-23.5 -55q0 -29 20.5 -48t69.5 -45q55 -28 81 -56t26 -70q0 -54 -36.5 -96t-108.5 -53l-81 -65l2 -3q103 -7 103 -76q0 -42 -38.5 -70.5t-92.5 -28.5q-51 0 -95 22l12 23q40 -16 76 -16
q31 0 49.5 16t18.5 40q0 23 -19.5 35t-52.5 12q-13 0 -33 -4l-6 19l117 92h-4z" />
    <glyph glyph-name="Scaron" unicode="&#x160;" horiz-adv-x="556" 
d="M402 754l-70 191h28l83 -97l135 97h33l-178 -191h-31zM-7 -18l59 230h27q39 -113 82.5 -155.5t109.5 -42.5t104.5 39t38.5 95q0 47 -31 82.5t-104 69.5q-79 38 -113.5 75.5t-34.5 99.5q0 87 70.5 152t180.5 65q80 0 150 -41l49 46h26l-53 -216h-27q-36 107 -71.5 144.5
t-93.5 37.5q-56 0 -92.5 -37t-36.5 -92q0 -21 8.5 -39t16.5 -29t33.5 -27t34.5 -20.5l45 -23.5q70 -36 104.5 -75.5t34.5 -102.5q0 -95 -65.5 -163.5t-188.5 -68.5q-47 0 -98.5 13.5t-86.5 33.5l-52 -50h-26z" />
    <glyph glyph-name="scaron" unicode="&#x161;" horiz-adv-x="414" 
d="M265 530l-70 191h28l83 -97l135 97h33l-178 -191h-31zM170 -8q-67 0 -113.5 25.5t-46.5 67.5q0 27 16.5 45t42.5 18q23 0 38 -14t15 -38q0 -28 -26 -49q8 -12 33 -20t49 -8q45 0 71.5 22.5t26.5 58.5q0 30 -20.5 49t-70.5 45q-53 25 -80 53t-27 70q0 64 48.5 107.5
t130.5 43.5q62 0 103 -27t41 -66q0 -25 -14.5 -42t-41.5 -17q-22 0 -37.5 14.5t-15.5 34.5q0 31 26 51q-7 10 -27 17.5t-41 7.5q-41 0 -64.5 -22t-23.5 -55q0 -29 20.5 -48t69.5 -45q55 -28 81 -56t26 -70q0 -63 -48 -108t-141 -45z" />
    <glyph glyph-name="Tcommaaccent" unicode="&#x162;" horiz-adv-x="678" 
d="M139 -307l-8 20q102 46 120 98l-4 3q-25 -1 -41.5 15t-16.5 40q0 26 17.5 44t43.5 18q27 0 45.5 -20t18.5 -51q0 -104 -175 -167zM236 74l153 573h-43q-63 0 -103 -37t-119 -155h-30l67 223h593l-56 -223h-27q-18 119 -38 155.5t-83 36.5h-42l-154 -573q-7 -27 13 -37
t88 -12l-7 -25h-343l7 25q67 2 92 12.5t32 36.5z" />
    <glyph glyph-name="tcommaaccent" unicode="&#x163;" horiz-adv-x="346" 
d="M-10 -307l-8 20q102 46 120 98l-4 3q-25 -1 -41.5 15t-16.5 40q0 26 17.5 44t43.5 18q27 0 45.5 -20t18.5 -51q0 -104 -175 -167zM373 426h-120l-84 -291q-8 -30 -8 -49q0 -44 55 -44q36 0 87 14l-2 -21q-78 -43 -145 -43q-102 0 -102 82q0 17 9 55l88 297h-88l10 33h88
l43 145l109 15l-51 -160h121z" />
    <glyph glyph-name="Tcaron" unicode="&#x164;" horiz-adv-x="678" 
d="M455 754l-70 191h28l83 -97l135 97h33l-178 -191h-31zM236 74l153 573h-43q-63 0 -103 -37t-119 -155h-30l67 223h593l-56 -223h-27q-18 119 -38 155.5t-83 36.5h-42l-154 -573q-7 -27 13 -37t88 -12l-7 -25h-343l7 25q67 2 92 12.5t32 36.5z" />
    <glyph glyph-name="tcaron" unicode="&#x165;" horiz-adv-x="346" 
d="M375 538l35 160q8 41 20 60t37 19q17 0 29 -11.5t12 -28.5q0 -20 -34 -76l-76 -123h-23zM373 426h-120l-84 -291q-8 -30 -8 -49q0 -44 55 -44q36 0 87 14l-2 -21q-78 -43 -145 -43q-102 0 -102 82q0 17 9 55l88 297h-88l10 33h88l43 145l109 15l-51 -160h121z" />
    <glyph glyph-name="Umacron" unicode="&#x16a;" horiz-adv-x="768" 
d="M336 603l-93 -350q-12 -45 -12 -82q0 -67 38.5 -105.5t112.5 -38.5q90 0 143.5 48t81.5 155l78 293q19 69 2 95.5t-86 35.5l7 24h258l-7 -24q-67 -10 -91.5 -35t-43.5 -98l-85 -317q-28 -107 -96 -164t-203 -57q-110 0 -168.5 53.5t-58.5 141.5q0 37 11 79l93 347
q7 25 -10 35.5t-80 13.5l7 25h316l-7 -25q-61 -3 -80.5 -13t-26.5 -37zM406 781l14 53h263l-14 -53h-263z" />
    <glyph glyph-name="umacron" unicode="&#x16b;" horiz-adv-x="562" 
d="M58 149l75 232q8 25 -4.5 36t-57.5 14v23l186 9l-96 -304q-9 -31 -9 -53q0 -51 60 -51q52 0 123 65l54 183l37 158h111l-107 -351q-9 -30 -9 -47q0 -21 18.5 -28t66.5 -5v-21q-45 -17 -98 -17q-83 0 -83 61q0 17 5 32l-4 3q-87 -96 -177 -96q-51 0 -77 25.5t-26 68.5
q0 25 12 63zM224 557l14 53h263l-14 -53h-263z" />
    <glyph glyph-name="Ubreve" unicode="&#x16c;" horiz-adv-x="768" 
d="M336 603l-93 -350q-12 -45 -12 -82q0 -67 38.5 -105.5t112.5 -38.5q90 0 143.5 48t81.5 155l78 293q19 69 2 95.5t-86 35.5l7 24h258l-7 -24q-67 -10 -91.5 -35t-43.5 -98l-85 -317q-28 -107 -96 -164t-203 -57q-110 0 -168.5 53.5t-58.5 141.5q0 37 11 79l93 347
q7 25 -10 35.5t-80 13.5l7 25h316l-7 -25q-61 -3 -80.5 -13t-26.5 -37zM540 760q-62 0 -90.5 41.5t-13.5 116.5h27q6 -89 89 -89q78 0 127 89h31q-22 -75 -65.5 -116.5t-104.5 -41.5z" />
    <glyph glyph-name="ubreve" unicode="&#x16d;" horiz-adv-x="562" 
d="M58 149l75 232q8 25 -4.5 36t-57.5 14v23l186 9l-96 -304q-9 -31 -9 -53q0 -51 60 -51q52 0 123 65l54 183l37 158h111l-107 -351q-9 -30 -9 -47q0 -21 18.5 -28t66.5 -5v-21q-45 -17 -98 -17q-83 0 -83 61q0 17 5 32l-4 3q-87 -96 -177 -96q-51 0 -77 25.5t-26 68.5
q0 25 12 63zM360 536q-62 0 -90.5 41.5t-13.5 116.5h27q6 -89 89 -89q78 0 127 89h31q-22 -75 -65.5 -116.5t-104.5 -41.5z" />
    <glyph glyph-name="Uring" unicode="&#x16e;" horiz-adv-x="768" 
d="M553 760q-44 0 -71.5 24.5t-27.5 63.5q0 53 38.5 89t93.5 36q44 0 71.5 -24t27.5 -63q0 -53 -39 -89.5t-93 -36.5zM554 785q35 0 55.5 35.5t20.5 74.5q0 53 -45 53q-34 0 -54.5 -35t-20.5 -74q0 -54 44 -54zM336 603l-93 -350q-12 -45 -12 -82q0 -67 38.5 -105.5
t112.5 -38.5q90 0 143.5 48t81.5 155l78 293q19 69 2 95.5t-86 35.5l7 24h258l-7 -24q-67 -10 -91.5 -35t-43.5 -98l-85 -317q-28 -107 -96 -164t-203 -57q-110 0 -168.5 53.5t-58.5 141.5q0 37 11 79l93 347q7 25 -10 35.5t-80 13.5l7 25h316l-7 -25q-61 -3 -80.5 -13
t-26.5 -37z" />
    <glyph glyph-name="uring" unicode="&#x16f;" horiz-adv-x="562" 
d="M369 536q-44 0 -71.5 24.5t-27.5 63.5q0 53 38.5 89t93.5 36q44 0 71.5 -24t27.5 -63q0 -53 -39 -89.5t-93 -36.5zM370 561q35 0 55.5 35.5t20.5 74.5q0 53 -45 53q-34 0 -54.5 -35t-20.5 -74q0 -54 44 -54zM58 149l75 232q8 25 -4.5 36t-57.5 14v23l186 9l-96 -304
q-9 -31 -9 -53q0 -51 60 -51q52 0 123 65l54 183l37 158h111l-107 -351q-9 -30 -9 -47q0 -21 18.5 -28t66.5 -5v-21q-45 -17 -98 -17q-83 0 -83 61q0 17 5 32l-4 3q-87 -96 -177 -96q-51 0 -77 25.5t-26 68.5q0 25 12 63z" />
    <glyph glyph-name="Uhungarumlaut" unicode="&#x170;" horiz-adv-x="768" 
d="M336 603l-93 -350q-12 -45 -12 -82q0 -67 38.5 -105.5t112.5 -38.5q90 0 143.5 48t81.5 155l78 293q19 69 2 95.5t-86 35.5l7 24h258l-7 -24q-67 -10 -91.5 -35t-43.5 -98l-85 -317q-28 -107 -96 -164t-203 -57q-110 0 -168.5 53.5t-58.5 141.5q0 37 11 79l93 347
q7 25 -10 35.5t-80 13.5l7 25h316l-7 -25q-61 -3 -80.5 -13t-26.5 -37zM423 754l87 126q35 52 51.5 68.5t37.5 16.5q17 0 29 -12t12 -27q0 -19 -17 -37t-68 -57l-102 -78h-30zM596 754l87 126q33 51 50 68t39 17q17 0 29 -12t12 -27q0 -18 -17 -36t-68 -58l-103 -78h-29z
" />
    <glyph glyph-name="uhungarumlaut" unicode="&#x171;" horiz-adv-x="562" 
d="M58 149l75 232q8 25 -4.5 36t-57.5 14v23l186 9l-96 -304q-9 -31 -9 -53q0 -51 60 -51q52 0 123 65l54 183l37 158h111l-107 -351q-9 -30 -9 -47q0 -21 18.5 -28t66.5 -5v-21q-45 -17 -98 -17q-83 0 -83 61q0 17 5 32l-4 3q-87 -96 -177 -96q-51 0 -77 25.5t-26 68.5
q0 25 12 63zM234 530l87 126q35 52 51.5 68.5t37.5 16.5q17 0 29 -12t12 -27q0 -19 -17 -37t-68 -57l-102 -78h-30zM407 530l87 126q33 51 50.5 68t38.5 17q17 0 29 -12t12 -27q0 -18 -17 -36t-68 -58l-103 -78h-29z" />
    <glyph glyph-name="Uogonek" unicode="&#x172;" horiz-adv-x="766" 
d="M336 603l-93 -350q-12 -45 -12 -82q0 -67 38.5 -105.5t112.5 -38.5q90 0 143.5 48t81.5 155l78 293q19 69 2 95.5t-86 35.5l7 24h258l-7 -24q-67 -10 -91.5 -35t-43.5 -98l-85 -317q-26 -96 -82 -151.5t-163 -66.5l-19 -13q-107 -65 -107 -129q0 -23 13.5 -36t37.5 -13
q25 0 63 15l7 -19q-59 -34 -110 -34q-41 0 -65.5 20.5t-24.5 54.5q0 71 122 135q12 7 31 16h-2q-110 0 -168.5 53.5t-58.5 141.5q0 37 11 79l93 347q7 25 -10 35.5t-80 13.5l7 25h316l-7 -25q-61 -3 -80.5 -13t-26.5 -37z" />
    <glyph glyph-name="uogonek" unicode="&#x173;" horiz-adv-x="563" 
d="M421 63q0 -21 18.5 -28t66.5 -5v-21l-59 -31q-123 -65 -123 -134q0 -23 13.5 -36t37.5 -13q25 0 62 15l7 -19q-57 -34 -109 -34q-42 0 -66.5 20.5t-24.5 54.5q0 75 127 134l56 27q-8 -1 -18 -1q-84 0 -84 61q0 17 5 32l-4 3q-87 -96 -177 -96q-51 0 -77 25.5t-26 68.5
q0 25 12 63l75 232q8 25 -4.5 36t-57.5 14v23l186 9l-96 -304q-9 -31 -9 -53q0 -51 60 -51q52 0 123 65l54 183l37 158h111l-107 -351q-9 -30 -9 -47z" />
    <glyph glyph-name="Wcircumflex" unicode="&#x174;" horiz-adv-x="1013" 
d="M494 754l178 191h31l70 -191h-29l-82 96l-134 -96h-34zM298 584l42 -452h6l216 356l-7 88q-4 39 -20 55t-67 23l6 24h295l-6 -24q-62 -4 -78.5 -18t-14.5 -52l33 -448h6l210 368q43 76 33.5 108t-75.5 42l6 24h245l-6 -24q-52 -9 -86 -41.5t-74 -103.5l-297 -522h-59
l-40 447l-267 -447h-58l-59 588q-4 38 -21 53.5t-70 25.5l7 24h291l-6 -24q-60 -4 -74.5 -17.5t-10.5 -52.5z" />
    <glyph glyph-name="wcircumflex" unicode="&#x175;" horiz-adv-x="728" 
d="M288 530l178 191h31l70 -191h-29l-82 96l-134 -96h-34zM475 -12l-80 7l-6 170l-11 87l-164 -264l-81 7l-7 170l-25 210q-4 30 -17.5 39t-59.5 10v23l171 17l28 -292l3 -96h11l57 94q51 82 77 151l-16 133l104 10l26 -292l5 -97h11l54 79q73 103 96 182q-47 24 -47 69
q0 27 17.5 45.5t44.5 18.5q29 0 45.5 -19.5t16.5 -48.5q0 -33 -19.5 -71.5t-74.5 -115.5z" />
    <glyph glyph-name="Ycircumflex" unicode="&#x176;" horiz-adv-x="671" 
d="M624 539l-209 -243l-60 -222q-7 -27 11.5 -37t83.5 -12l-7 -25h-331l7 25q63 2 87 12.5t31 36.5l61 227l-97 286q-11 33 -29.5 45.5t-67.5 21.5l7 24h312l-6 -24q-72 -4 -91 -19t-9 -46l85 -260l173 208q33 39 41 62t-7 36t-59 19l6 24h246l-7 -24q-52 -8 -83.5 -30
t-87.5 -85zM349 754l178 191h31l70 -191h-29l-82 96l-134 -96h-34z" />
    <glyph glyph-name="ycircumflex" unicode="&#x177;" horiz-adv-x="471" 
d="M192 464l31 -201l29 -202h9l51 84q71 116 83 190q-52 22 -52 70q0 27 16.5 45.5t43.5 18.5q29 0 46 -21.5t17 -52.5q0 -37 -28.5 -98t-106.5 -182q-116 -182 -185 -249t-134 -67q-40 0 -62 20.5t-22 53.5q0 27 17.5 46t43.5 19t42.5 -17t16.5 -45q0 -22 -12 -37
q83 27 141 119l-39 222l-36 193q-5 30 -20.5 40t-60.5 11v23zM151 530l178 191h31l70 -191h-29l-82 96l-134 -96h-34z" />
    <glyph glyph-name="Ydieresis" unicode="&#x178;" horiz-adv-x="671" 
d="M624 539l-209 -243l-60 -222q-7 -27 11.5 -37t83.5 -12l-7 -25h-331l7 25q63 2 87 12.5t31 36.5l61 227l-97 286q-11 33 -29.5 45.5t-67.5 21.5l7 24h312l-6 -24q-72 -4 -91 -19t-9 -46l85 -260l173 208q33 39 41 62t-7 36t-59 19l6 24h246l-7 -24q-52 -8 -83.5 -30
t-87.5 -85zM587 760q-20 0 -34.5 14.5t-14.5 38.5q0 35 22 60t53 25q20 0 34.5 -14t14.5 -38q0 -34 -22 -60t-53 -26zM394 760q-21 0 -35.5 14.5t-14.5 38.5q0 35 22 60t53 25q21 0 35 -14t14 -38q0 -34 -22 -60t-52 -26z" />
    <glyph glyph-name="Zacute" unicode="&#x179;" horiz-adv-x="648" 
d="M414 754l87 126q35 53 51 69t38 16q17 0 29 -11.5t12 -28.5q0 -20 -16.5 -38t-67.5 -56l-103 -77h-30zM573 647h-167q-65 0 -116.5 -38t-134.5 -148l-31 2l72 215h524v-25l-591 -622h189q69 0 118.5 39t136.5 158l29 -2l-72 -226h-551l1 24z" />
    <glyph glyph-name="zacute" unicode="&#x17a;" horiz-adv-x="460" 
d="M242 530l87 126q35 53 51 69t38 16q17 0 29 -11.5t12 -28.5q0 -20 -16.5 -38t-67.5 -56l-103 -77h-30zM3 -15l-20 28l386 369l-2 5l-145 -2q-57 -1 -79 -16t-52 -72l-25 2l43 162h351l10 -27l-373 -358l3 -6q33 11 71 11q19 0 62 -3.5t56 -3.5q42 0 62.5 19.5t33.5 69.5
l23 -3q-13 -102 -40.5 -136t-92.5 -34q-34 0 -89.5 8t-80.5 8q-49 0 -102 -21z" />
    <glyph glyph-name="Zdotaccent" unicode="&#x17b;" horiz-adv-x="648" 
d="M573 647h-167q-65 0 -116.5 -38t-134.5 -148l-31 2l72 215h524v-25l-591 -622h189q69 0 118.5 39t136.5 158l29 -2l-72 -226h-551l1 24zM468 760q-21 0 -36 14.5t-15 40.5q0 36 22.5 62.5t54.5 26.5q22 0 36.5 -14t14.5 -40q0 -35 -22.5 -62.5t-54.5 -27.5z" />
    <glyph glyph-name="zdotaccent" unicode="&#x17c;" horiz-adv-x="460" 
d="M3 -15l-20 28l386 369l-2 5l-145 -2q-57 -1 -79 -16t-52 -72l-25 2l43 162h351l10 -27l-373 -358l3 -6q33 11 71 11q19 0 62 -3.5t56 -3.5q42 0 62.5 19.5t33.5 69.5l23 -3q-13 -102 -40.5 -136t-92.5 -34q-34 0 -89.5 8t-80.5 8q-49 0 -102 -21zM299 536q-21 0 -36 14.5
t-15 40.5q0 36 22.5 62.5t54.5 26.5q22 0 36.5 -14t14.5 -40q0 -35 -22.5 -62.5t-54.5 -27.5z" />
    <glyph glyph-name="Zcaron" unicode="&#x17d;" horiz-adv-x="648" 
d="M436 754l-70 191h28l83 -97l135 97h33l-178 -191h-31zM573 647h-167q-65 0 -116.5 -38t-134.5 -148l-31 2l72 215h524v-25l-591 -622h189q69 0 118.5 39t136.5 158l29 -2l-72 -226h-551l1 24z" />
    <glyph glyph-name="zcaron" unicode="&#x17e;" horiz-adv-x="460" 
d="M271 530l-70 191h28l83 -97l135 97h33l-178 -191h-31zM3 -15l-20 28l386 369l-2 5l-145 -2q-57 -1 -79 -16t-52 -72l-25 2l43 162h351l10 -27l-373 -358l3 -6q33 11 71 11q19 0 62 -3.5t56 -3.5q42 0 62.5 19.5t33.5 69.5l23 -3q-13 -102 -40.5 -136t-92.5 -34
q-34 0 -89.5 8t-80.5 8q-49 0 -102 -21z" />
    <glyph glyph-name="Aringacute" unicode="&#x1fa;" horiz-adv-x="677" 
d="M213 256l-61 -102q-42 -69 -35 -94.5t69 -36.5l-6 -23h-236l5 22q54 12 88 42.5t81 106.5l310 502q-27 8 -43 31t-16 56q0 57 41.5 96.5t98.5 39.5q42 0 68.5 -25.5t26.5 -67.5q0 -47 -29 -83t-73 -47l79 -563q6 -48 21.5 -64t68.5 -23l-7 -23h-304l7 24q65 4 82 20
t12 62l-19 150h-229zM438 286l-33 279h-7l-168 -279h208zM468 689q35 0 57 41.5t22 87.5q0 55 -42 55q-35 0 -56.5 -41t-21.5 -88q0 -55 41 -55zM491 923l87 126q35 53 51 69t38 16q17 0 29 -11.5t12 -28.5q0 -20 -16.5 -38t-67.5 -56l-103 -77h-30z" />
    <glyph glyph-name="aringacute" unicode="&#x1fb;" horiz-adv-x="532" 
d="M471 307l-55 -193q-10 -35 -10 -51q0 -21 18.5 -28t65.5 -5v-21q-49 -17 -94 -17q-43 0 -62.5 13t-19.5 46q0 15 4 30l-4 2q-36 -49 -70 -70t-78 -21q-61 0 -97.5 42t-36.5 117q0 118 85 217.5t184 99.5q41 0 64.5 -15.5t38.5 -46.5l18 51l105 11zM314 437
q-47 0 -88.5 -52t-63 -117.5t-21.5 -115.5q0 -108 74 -108q53 0 104 88l67 226q-6 37 -25.5 58t-46.5 21zM374 536q-44 0 -71.5 24.5t-27.5 63.5q0 53 38.5 89t93.5 36q44 0 71.5 -24t27.5 -63q0 -53 -39 -89.5t-93 -36.5zM395 797l87 126q35 53 51 69t38 16q17 0 29 -11.5
t12 -28.5q0 -20 -16.5 -38t-67.5 -56l-103 -77h-30zM375 561q35 0 55.5 35.5t20.5 74.5q0 53 -45 53q-34 0 -54.5 -35t-20.5 -74q0 -54 44 -54z" />
    <glyph glyph-name="AEacute" unicode="&#x1fc;" horiz-adv-x="1044" 
d="M710 754l87 126q35 53 51 69t38 16q17 0 29 -11.5t12 -28.5q0 -20 -16.5 -38t-67.5 -56l-103 -77h-30zM829 219h-25q-5 79 -20 101t-69 22h-59l-82 -310h137q50 0 86.5 10.5t66.5 37t52 57t54 85.5h29l-64 -222h-591l6 25q63 2 86 12.5t30 36.5l52 196h-235l-107 -123
q-54 -62 -54 -87q0 -30 58 -37l-7 -23h-237l7 23q58 12 96.5 39.5t101.5 99.5l360 411q24 29 24 43q0 29 -88 38l6 24h640l-52 -206h-27q-7 54 -13.5 81.5t-21.5 51.5t-41 32.5t-69 8.5h-122l-73 -273h60q55 0 80 18t67 90h25zM527 300l90 337h-16l-292 -337h218z" />
    <glyph glyph-name="aeacute" unicode="&#x1fd;" horiz-adv-x="735" 
d="M592 468q67 0 102.5 -28.5t35.5 -75.5q0 -64 -79 -107t-230 -42q-3 -24 -3 -47q0 -132 104 -132q81 0 143 84l20 -18q-82 -110 -198 -110q-61 0 -105 33t-54 98h-4q-29 -61 -77.5 -96t-108.5 -35q-57 0 -89 28.5t-32 76.5q0 74 80.5 115t235.5 38q7 36 7 75
q0 57 -23.5 86t-62.5 29q-51 0 -80 -31q27 -14 27 -47q0 -28 -15.5 -43t-41.5 -15q-27 0 -42.5 16t-15.5 41q0 45 50.5 76t125.5 31q119 0 143 -84h4q77 84 183 84zM585 439q-50 0 -96 -58.5t-63 -140.5q211 6 211 143q0 56 -52 56zM187 45q50 0 89 49t52 132
q-209 0 -209 -113q0 -32 18.5 -50t49.5 -18zM435 530l87 126q35 53 51 69t38 16q17 0 29 -11.5t12 -28.5q0 -20 -16.5 -38t-67.5 -56l-103 -77h-30z" />
    <glyph glyph-name="Oslashacute" unicode="&#x1fe;" 
d="M71 -35h-44l99 106q-66 77 -66 191q0 79 30 156t82.5 138.5t130.5 99.5t166 38q108 0 182 -66l78 85h43l-99 -107q67 -78 67 -191q0 -78 -30 -155.5t-82.5 -139t-130.5 -99.5t-166 -38q-108 0 -182 66zM329 13q81 0 149.5 73.5t105 177.5t36.5 204q0 39 -8 76l-414 -443
q35 -88 131 -88zM180 209q0 -40 8 -75l414 442q-37 89 -131 89q-81 0 -149.5 -73.5t-105 -178t-36.5 -204.5zM447 754l87 126q35 53 51 69t38 16q17 0 29 -11.5t12 -28.5q0 -20 -16.5 -38t-67.5 -56l-103 -77h-30z" />
    <glyph glyph-name="oslashacute" unicode="&#x1ff;" horiz-adv-x="503" 
d="M13 -23l62 70q-45 51 -45 132q0 113 74 201t194 88q64 0 111 -37l44 52h37l-62 -71q45 -51 45 -132q0 -71 -30.5 -136t-93 -108.5t-143.5 -43.5q-67 0 -112 36l-44 -51h-37zM131 129v-19l235 272q-15 59 -71 59q-50 0 -89.5 -57t-57 -127t-17.5 -128zM209 19q50 0 89 57
t56.5 126.5t17.5 127.5q0 12 -1 18l-235 -271q15 -58 73 -58zM270 530l87 126q35 53 51 69t38 16q17 0 29 -11.5t12 -28.5q0 -20 -16.5 -38t-67.5 -56l-103 -77h-30z" />
    <glyph glyph-name="Scommaaccent" unicode="&#x218;" horiz-adv-x="556" 
d="M99 -307l-8 20q102 46 120 98l-4 3q-25 -1 -41.5 15t-16.5 40q0 26 17.5 44t43.5 18q27 0 45.5 -20t18.5 -51q0 -104 -175 -167zM-7 -18l59 230h27q39 -113 82.5 -155.5t109.5 -42.5t104.5 39t38.5 95q0 47 -31 82.5t-104 69.5q-79 38 -113.5 75.5t-34.5 99.5
q0 87 70.5 152t180.5 65q80 0 150 -41l49 46h26l-53 -216h-27q-36 107 -71.5 144.5t-93.5 37.5q-56 0 -92.5 -37t-36.5 -92q0 -21 8.5 -39t16.5 -29t33.5 -27t34.5 -20.5l45 -23.5q70 -36 104.5 -75.5t34.5 -102.5q0 -95 -65.5 -163.5t-188.5 -68.5q-47 0 -98.5 13.5
t-86.5 33.5l-52 -50h-26z" />
    <glyph glyph-name="scommaaccent" unicode="&#x219;" horiz-adv-x="414" 
d="M22 -307l-8 20q102 46 120 98l-4 3q-25 -1 -41.5 15t-16.5 40q0 26 17.5 44t43.5 18q27 0 45.5 -20t18.5 -51q0 -104 -175 -167zM170 -8q-67 0 -113.5 25.5t-46.5 67.5q0 27 16.5 45t42.5 18q23 0 38 -14t15 -38q0 -28 -26 -49q8 -12 33 -20t49 -8q45 0 71.5 22.5
t26.5 58.5q0 30 -20.5 49t-70.5 45q-53 25 -80 53t-27 70q0 64 48.5 107.5t130.5 43.5q62 0 103 -27t41 -66q0 -25 -14.5 -42t-41.5 -17q-22 0 -37.5 14.5t-15.5 34.5q0 31 26 51q-7 10 -27 17.5t-41 7.5q-41 0 -64.5 -22t-23.5 -55q0 -29 20.5 -48t69.5 -45q55 -28 81 -56
t26 -70q0 -63 -48 -108t-141 -45z" />
    <glyph glyph-name="schwa" unicode="&#x259;" horiz-adv-x="453" 
d="M4 92q0 64 78.5 106.5t229.5 41.5q4 32 4 48q0 132 -104 132q-81 0 -143 -84l-20 18q82 110 198 110q75 0 125.5 -44.5t50.5 -129.5q0 -117 -82 -209.5t-199 -92.5q-67 0 -102.5 28.5t-35.5 75.5zM149 17q50 0 95.5 58.5t63.5 140.5q-211 -6 -211 -143q0 -56 52 -56z" />
    <glyph glyph-name="circumflex" unicode="&#x2c6;" horiz-adv-x="311" 
d="M109 530l178 191h31l70 -191h-29l-82 96l-134 -96h-34z" />
    <glyph glyph-name="caron" unicode="&#x2c7;" horiz-adv-x="311" 
d="M217 530l-70 191h28l83 -97l135 97h33l-178 -191h-31z" />
    <glyph glyph-name="breve" unicode="&#x2d8;" horiz-adv-x="342" 
d="M254 536q-62 0 -90.5 41.5t-13.5 116.5h27q6 -89 89 -89q78 0 127 89h31q-22 -75 -65.5 -116.5t-104.5 -41.5z" />
    <glyph glyph-name="dotaccent" unicode="&#x2d9;" horiz-adv-x="211" 
d="M201 536q-21 0 -36 14.5t-15 40.5q0 36 22.5 62.5t54.5 26.5q22 0 36.5 -14t14.5 -40q0 -35 -22.5 -62.5t-54.5 -27.5z" />
    <glyph glyph-name="ring" unicode="&#x2da;" horiz-adv-x="275" 
d="M236 536q-44 0 -71.5 24.5t-27.5 63.5q0 53 38.5 89t93.5 36q44 0 71.5 -24t27.5 -63q0 -53 -39 -89.5t-93 -36.5zM237 561q35 0 55.5 35.5t20.5 74.5q0 53 -45 53q-34 0 -54.5 -35t-20.5 -74q0 -54 44 -54z" />
    <glyph glyph-name="ogonek" unicode="&#x2db;" horiz-adv-x="272" 
d="M6 -243q-41 0 -65.5 20.5t-24.5 54.5q0 71 122 135l93 46h34l-63 -40q-107 -65 -107 -129q0 -23 13.5 -36t37.5 -13q25 0 63 15l7 -19q-59 -34 -110 -34z" />
    <glyph glyph-name="tilde" unicode="&#x2dc;" horiz-adv-x="343" 
d="M113 530q28 126 103 126q21 0 67 -24.5t63 -24.5t28.5 11t24.5 44h28q-29 -126 -103 -126q-21 0 -67 24.5t-63 24.5t-28.5 -11t-25.5 -44h-27z" />
    <glyph glyph-name="hungarumlaut" unicode="&#x2dd;" horiz-adv-x="427" 
d="M124 530l87 126q35 52 51.5 68.5t37.5 16.5q17 0 29 -12t12 -27q0 -19 -17 -37t-68 -57l-102 -78h-30zM297 530l87 126q33 51 50.5 68t38.5 17q17 0 29 -12t12 -27q0 -18 -17 -36t-68 -58l-103 -78h-29z" />
    <glyph glyph-name="commaaccent" unicode="&#x326;" horiz-adv-x="241" 
d="M-87 -307l-8 20q102 46 120 98l-4 3q-25 -1 -41.5 15t-16.5 40q0 26 17.5 44t43.5 18q27 0 45.5 -20t18.5 -51q0 -104 -175 -167z" />
    <glyph glyph-name="Wgrave" unicode="&#x1e80;" horiz-adv-x="1013" 
d="M298 584l42 -452h6l216 356l-7 88q-4 39 -20 55t-67 23l6 24h295l-6 -24q-62 -4 -78.5 -18t-14.5 -52l33 -448h6l210 368q43 76 33.5 108t-75.5 42l6 24h245l-6 -24q-52 -9 -86 -41.5t-74 -103.5l-297 -522h-59l-40 447l-267 -447h-58l-59 588q-4 38 -21 53.5t-70 25.5
l7 24h291l-6 -24q-60 -4 -74.5 -17.5t-10.5 -52.5zM630 754l-102 96q-47 45 -47 69q0 19 13.5 32.5t32.5 13.5t32.5 -17t33.5 -61l63 -133h-26z" />
    <glyph glyph-name="wgrave" unicode="&#x1e81;" horiz-adv-x="728" 
d="M475 -12l-80 7l-6 170l-11 87l-164 -264l-81 7l-7 170l-25 210q-4 30 -17.5 39t-59.5 10v23l171 17l28 -292l3 -96h11l57 94q51 82 77 151l-16 133l104 10l26 -292l5 -97h11l54 79q73 103 96 182q-47 24 -47 69q0 27 17.5 45.5t44.5 18.5q29 0 45.5 -19.5t16.5 -48.5
q0 -33 -19.5 -71.5t-74.5 -115.5zM436 530l-102 96q-47 45 -47 69q0 19 13.5 32.5t32.5 13.5t32.5 -17t33.5 -61l63 -133h-26z" />
    <glyph glyph-name="Wacute" unicode="&#x1e82;" horiz-adv-x="1013" 
d="M592 754l87 126q35 53 51 69t38 16q17 0 29 -11.5t12 -28.5q0 -20 -16.5 -38t-67.5 -56l-103 -77h-30zM298 584l42 -452h6l216 356l-7 88q-4 39 -20 55t-67 23l6 24h295l-6 -24q-62 -4 -78.5 -18t-14.5 -52l33 -448h6l210 368q43 76 33.5 108t-75.5 42l6 24h245l-6 -24
q-52 -9 -86 -41.5t-74 -103.5l-297 -522h-59l-40 447l-267 -447h-58l-59 588q-4 38 -21 53.5t-70 25.5l7 24h291l-6 -24q-60 -4 -74.5 -17.5t-10.5 -52.5z" />
    <glyph glyph-name="wacute" unicode="&#x1e83;" horiz-adv-x="728" 
d="M376 530l87 126q35 53 51 69t38 16q17 0 29 -11.5t12 -28.5q0 -20 -16.5 -38t-67.5 -56l-103 -77h-30zM475 -12l-80 7l-6 170l-11 87l-164 -264l-81 7l-7 170l-25 210q-4 30 -17.5 39t-59.5 10v23l171 17l28 -292l3 -96h11l57 94q51 82 77 151l-16 133l104 10l26 -292
l5 -97h11l54 79q73 103 96 182q-47 24 -47 69q0 27 17.5 45.5t44.5 18.5q29 0 45.5 -19.5t16.5 -48.5q0 -33 -19.5 -71.5t-74.5 -115.5z" />
    <glyph glyph-name="Wdieresis" unicode="&#x1e84;" horiz-adv-x="1013" 
d="M738 760q-20 0 -34.5 14.5t-14.5 38.5q0 35 22 60t53 25q20 0 34.5 -14t14.5 -38q0 -34 -22 -60t-53 -26zM545 760q-21 0 -35.5 14.5t-14.5 38.5q0 35 22 60t53 25q21 0 35 -14t14 -38q0 -34 -22 -60t-52 -26zM298 584l42 -452h6l216 356l-7 88q-4 39 -20 55t-67 23l6 24
h295l-6 -24q-62 -4 -78.5 -18t-14.5 -52l33 -448h6l210 368q43 76 33.5 108t-75.5 42l6 24h245l-6 -24q-52 -9 -86 -41.5t-74 -103.5l-297 -522h-59l-40 447l-267 -447h-58l-59 588q-4 38 -21 53.5t-70 25.5l7 24h291l-6 -24q-60 -4 -74.5 -17.5t-10.5 -52.5z" />
    <glyph glyph-name="wdieresis" unicode="&#x1e85;" horiz-adv-x="728" 
d="M534 536q-20 0 -34.5 14.5t-14.5 38.5q0 35 22 60t53 25q20 0 34.5 -14t14.5 -38q0 -34 -22 -60t-53 -26zM341 536q-21 0 -35.5 14.5t-14.5 38.5q0 35 22 60t53 25q21 0 35 -14t14 -38q0 -34 -22 -60t-52 -26zM475 -12l-80 7l-6 170l-11 87l-164 -264l-81 7l-7 170
l-25 210q-4 30 -17.5 39t-59.5 10v23l171 17l28 -292l3 -96h11l57 94q51 82 77 151l-16 133l104 10l26 -292l5 -97h11l54 79q73 103 96 182q-47 24 -47 69q0 27 17.5 45.5t44.5 18.5q29 0 45.5 -19.5t16.5 -48.5q0 -33 -19.5 -71.5t-74.5 -115.5z" />
    <glyph glyph-name="Ygrave" unicode="&#x1ef2;" horiz-adv-x="671" 
d="M624 539l-209 -243l-60 -222q-7 -27 11.5 -37t83.5 -12l-7 -25h-331l7 25q63 2 87 12.5t31 36.5l61 227l-97 286q-11 33 -29.5 45.5t-67.5 21.5l7 24h312l-6 -24q-72 -4 -91 -19t-9 -46l85 -260l173 208q33 39 41 62t-7 36t-59 19l6 24h246l-7 -24q-52 -8 -83.5 -30
t-87.5 -85zM480 754l-102 96q-47 45 -47 69q0 19 13.5 32.5t32.5 13.5t32.5 -17t33.5 -61l63 -133h-26z" />
    <glyph glyph-name="ygrave" unicode="&#x1ef3;" horiz-adv-x="471" 
d="M192 464l31 -201l29 -202h9l51 84q71 116 83 190q-52 22 -52 70q0 27 16.5 45.5t43.5 18.5q29 0 46 -21.5t17 -52.5q0 -37 -28.5 -98t-106.5 -182q-116 -182 -185 -249t-134 -67q-40 0 -62 20.5t-22 53.5q0 27 17.5 46t43.5 19t42.5 -17t16.5 -45q0 -22 -12 -37
q83 27 141 119l-39 222l-36 193q-5 30 -20.5 40t-60.5 11v23zM283 530l-102 96q-47 45 -47 69q0 19 13.5 32.5t32.5 13.5t32.5 -17t33.5 -61l63 -133h-26z" />
    <glyph glyph-name="enspace" unicode="&#x2002;" horiz-adv-x="500" 
 />
    <glyph glyph-name="emspace" unicode="&#x2003;" horiz-adv-x="1000" 
 />
    <glyph glyph-name="threeperemspace" unicode="&#x2004;" horiz-adv-x="333" 
 />
    <glyph glyph-name="fourperemspace" unicode="&#x2005;" horiz-adv-x="250" 
 />
    <glyph glyph-name="thinspace" unicode="&#x2009;" horiz-adv-x="133" 
 />
    <glyph glyph-name="hairspace" unicode="&#x200a;" horiz-adv-x="75" 
 />
    <glyph glyph-name="endash" unicode="&#x2013;" horiz-adv-x="543" 
d="M57 236l11 40h433l-11 -40h-433z" />
    <glyph glyph-name="emdash" unicode="&#x2014;" horiz-adv-x="793" 
d="M57 236l11 40h683l-11 -40h-683z" />
    <glyph glyph-name="quoteleft" unicode="&#x2018;" horiz-adv-x="240" 
d="M327 696l7 -21q-125 -52 -150 -116l5 -3q28 1 46 -16.5t18 -43.5q0 -28 -20 -48t-48 -20q-29 0 -49.5 22.5t-20.5 55.5q0 56 52.5 105t159.5 85z" />
    <glyph glyph-name="quoteright" unicode="&#x2019;" horiz-adv-x="240" 
d="M79 424l-8 21q127 53 150 115l-5 4q-27 -1 -45 16t-18 44q0 28 19.5 48t48.5 20t49 -22t20 -56q0 -57 -52.5 -106t-158.5 -84z" />
    <glyph glyph-name="quotesinglbase" unicode="&#x201a;" horiz-adv-x="244" 
d="M-63 -149l-8 21q125 52 150 116l-5 3q-28 -1 -45.5 16.5t-17.5 43.5q0 29 19.5 48.5t48.5 19.5t49 -22t20 -56q0 -56 -52.5 -105t-158.5 -85z" />
    <glyph glyph-name="quotedblleft" unicode="&#x201c;" horiz-adv-x="437" 
d="M524 696l7 -21q-125 -52 -150 -116l5 -3q28 1 46 -16.5t18 -43.5q0 -28 -20 -48t-48 -20q-29 0 -49 22t-20 56q0 119 211 190zM322 696l7 -21q-123 -54 -145 -116l5 -3q28 1 46 -16.5t18 -43.5q0 -28 -20 -48t-48 -20q-29 0 -49.5 22.5t-20.5 55.5q0 119 207 190z" />
    <glyph glyph-name="quotedblright" unicode="&#x201d;" horiz-adv-x="437" 
d="M79 424l-8 21q127 53 150 115l-5 4q-27 -1 -45 16t-18 44q0 28 19.5 48t48.5 20t49 -22t20 -56q0 -57 -52.5 -106t-158.5 -84zM281 424l-8 21q122 53 145 115l-4 4q-27 -1 -45.5 16t-18.5 44q0 28 20 48t48 20q29 0 49 -22t20 -56q0 -119 -206 -190z" />
    <glyph glyph-name="quotedblbase" unicode="&#x201e;" horiz-adv-x="441" 
d="M139 -149l-8 21q122 53 145 116l-5 3q-28 -1 -45.5 16.5t-17.5 43.5q0 29 20 48.5t48 19.5q29 0 49 -22t20 -56q0 -119 -206 -190zM-63 -149l-8 21q125 52 150 116l-5 3q-28 -1 -45.5 16.5t-17.5 43.5q0 29 19.5 48.5t48.5 19.5t49 -22t20 -56q0 -56 -52.5 -105
t-158.5 -85z" />
    <glyph glyph-name="dagger" unicode="&#x2020;" horiz-adv-x="551" 
d="M157 -105q14 61 39.5 231t26.5 197l55 57q19 20 19 42q0 15 -10 24.5t-28 9.5q-22 0 -65.5 -15t-61.5 -15q-23 0 -37 10.5t-14 28.5q0 22 22.5 38t54.5 16q61 0 150 -62l5 4l7 101q4 77 13 113q6 24 20.5 38t33.5 14q21 0 33.5 -13.5t12.5 -35.5q0 -33 -52 -131l-48 -89
l3 -3q99 46 163 46q32 0 50.5 -12t18.5 -33q0 -22 -18 -35t-43 -13q-23 0 -62 19.5t-66 19.5t-42 -14.5t-15 -36.5q0 -14 4 -23l18 -69q-16 -29 -82.5 -190.5t-86.5 -221.5z" />
    <glyph glyph-name="daggerdbl" unicode="&#x2021;" horiz-adv-x="579" 
d="M366 299l-54 -59q-19 -20 -19 -41q0 -34 38 -34q22 0 65.5 14.5t61.5 14.5q23 0 37 -10t14 -28q0 -23 -22.5 -39t-54.5 -16q-61 0 -150 62l-5 -4l-7 -101q-5 -83 -13 -113q-6 -23 -20.5 -37t-33.5 -14q-21 0 -33.5 13.5t-12.5 35.5q0 32 52 130l48 89l-3 3
q-103 -46 -163 -46q-32 0 -50.5 12.5t-18.5 33.5t18 34t43 13q23 0 62 -19.5t66 -19.5t42 14.5t15 37.5q0 13 -4 24l-17 72l54 60q20 20 20 41q0 15 -10 24.5t-28 9.5q-23 0 -66 -14.5t-61 -14.5q-23 0 -37 10t-14 28q0 23 22 39t54 16q62 0 151 -62l5 4l6 101q6 84 13 112
q15 52 55 52q21 0 33.5 -14t12.5 -35q0 -32 -52 -130l-49 -89l3 -4q103 47 164 47q31 0 50 -12.5t19 -33.5t-18.5 -34t-43.5 -13q-22 0 -61 19.5t-66 19.5t-42 -14.5t-15 -37.5q0 -12 3 -24z" />
    <glyph glyph-name="bullet" unicode="&#x2022;" horiz-adv-x="481" 
d="M267 189q-56 0 -95.5 39.5t-39.5 95.5t39.5 95.5t95.5 39.5q57 0 96.5 -39.5t39.5 -95.5t-39.5 -95.5t-96.5 -39.5z" />
    <glyph glyph-name="ellipsis" unicode="&#x2026;" horiz-adv-x="725" 
d="M80 -16q-29 0 -49.5 19.5t-20.5 47.5t20.5 48t49.5 20t49 -19.5t20 -47.5t-20 -48t-49 -20zM314 -16q-29 0 -49.5 19.5t-20.5 47.5t20.5 48t49.5 20t49 -19.5t20 -47.5t-20.5 -48t-48.5 -20zM547 -16q-29 0 -49 19.5t-20 47.5t20.5 48t49.5 20q28 0 48 -19.5t20 -47.5
t-20 -48t-49 -20z" />
    <glyph glyph-name="guilsinglleft" unicode="&#x2039;" horiz-adv-x="303" 
d="M180 29l-126 171q-16 21 -16 33q0 13 32 35l214 152l16 -19l-165 -174l68 -184z" />
    <glyph glyph-name="guilsinglright" unicode="&#x203a;" horiz-adv-x="303" 
d="M20 29l-16 20l165 174l-69 185l23 14l127 -171q16 -23 16 -33q0 -13 -32 -36z" />
    <glyph glyph-name="fraction" unicode="&#x2044;" horiz-adv-x="573" 
d="M-62 -57l346 369l327 348h47l-328 -348l-345 -369h-47z" />
    <glyph glyph-name="Euro" unicode="&#x20ac;" horiz-adv-x="649" 
d="M428 246h-187v-10q0 -92 42 -142.5t118 -50.5q94 0 181 104l21 -17q-54 -72 -114.5 -109t-141.5 -37q-106 0 -167.5 68t-61.5 181v13h-97l9 31h90q5 47 19 90h-85l9 31h87q44 113 137.5 185t213.5 72q75 0 121.5 -36t46.5 -90q0 -36 -21.5 -59.5t-54.5 -23.5
q-28 0 -46 17.5t-18 44.5q0 53 58 77q-21 42 -89 43q-80 0 -140 -65t-92 -165h204l-9 -31h-203q-12 -44 -15 -90h194z" />
    <glyph glyph-name="published" unicode="&#x2117;" horiz-adv-x="815" 
d="M229 157l6 20q35 1 46.5 6t15.5 18l77 290q3 13 -6 18t-44 6l5 21h151q76 0 112.5 -27t36.5 -70q0 -50 -48.5 -87.5t-133.5 -37.5h-45l-30 -112q-4 -13 7.5 -18t47.5 -7l-6 -20h-192zM409 338h35q55 0 82 33t27 81q0 61 -75 61h-24zM395 -33q-146 0 -235.5 88t-89.5 228
q0 115 50 212t144 156.5t211 59.5q145 0 234.5 -88.5t89.5 -228.5q0 -176 -114 -301.5t-290 -125.5zM399 -7q108 0 193.5 56.5t130.5 147.5t45 197q0 129 -82.5 210t-215.5 81q-108 0 -193.5 -56.5t-130.5 -148t-45 -197.5q0 -129 82.5 -209.5t215.5 -80.5z" />
    <glyph glyph-name="servicemark" unicode="&#x2120;" horiz-adv-x="681" 
d="M101 411l26 97h17q21 -76 78 -76q25 0 39.5 12t14.5 31q0 16 -11.5 27t-43.5 25q-34 15 -50 30.5t-16 41.5q0 37 29.5 61t74.5 24q38 0 66 -16l20 18h14l-24 -89h-16q-9 36 -24.5 51.5t-40.5 15.5q-21 0 -35 -10.5t-14 -29.5q0 -15 13.5 -26.5t43.5 -24.5q31 -14 46 -30
t15 -41q0 -37 -28 -63.5t-79 -26.5q-43 0 -79 18l-21 -19h-15zM338 435q26 4 37 14t18 38l38 142q8 31 -33 32l5 18h117l14 -184h6l108 184h124l-5 -18q-42 -3 -46 -21l-49 -183q-3 -11 4.5 -15t30.5 -5l-5 -19h-129l4 19q33 2 38 20l48 180h-13l-130 -219h-32l-19 219h-11
l-40 -150q-8 -28 -3.5 -38t26.5 -14l-5 -17h-103z" />
    <glyph glyph-name="trademark" unicode="&#x2122;" horiz-adv-x="737" 
d="M377 418l5 17q26 4 37 14t18 38l38 142q8 31 -33 32l5 18h117l14 -184h6l108 184h124l-5 -18q-42 -3 -46 -21l-49 -183q-3 -11 4.5 -15t30.5 -5l-5 -19h-129l5 19q32 2 37 20l48 180h-13l-130 -219h-32l-19 219h-11l-40 -150q-8 -28 -3.5 -38t26.5 -14l-5 -17h-103z
M146 418l5 19q45 1 51 19l54 203h-10q-25 0 -45.5 -18.5t-44.5 -57.5h-19l29 96h246l-22 -96h-20q-3 38 -13 57t-36 19h-8l-55 -203q-2 -9 7 -13.5t35 -5.5l-5 -19h-149z" />
    <glyph glyph-name="minus" unicode="&#x2212;" horiz-adv-x="527" 
d="M492 297h-422l11 39h422z" />
    <glyph glyph-name="registered.alt" horiz-adv-x="815" 
d="M395 -33q-146 0 -235.5 88t-89.5 228q0 115 50 212t144 156.5t211 59.5q145 0 234.5 -88.5t89.5 -228.5q0 -176 -114 -301.5t-290 -125.5zM399 -7q108 0 193.5 56.5t130.5 147.5t45 197q0 129 -82.5 210t-215.5 81q-108 0 -193.5 -56.5t-130.5 -148t-45 -197.5
q0 -129 82.5 -209.5t215.5 -80.5zM401 360h31q52 0 79.5 27.5t27.5 68.5q0 31 -16 44t-53 13h-29zM395 336l-36 -134q-4 -14 5.5 -18.5t43.5 -5.5l-6 -20h-186l6 20q35 1 46.5 6t15.5 18l77 290q3 13 -6 18t-44 6l5 21h159q141 0 141 -84q0 -39 -33 -67.5t-95 -36.5v-4
q47 -5 63 -23.5t14 -61.5l-1 -36q-1 -28 7.5 -37.5t37.5 -10.5l-5 -21q-14 -2 -32 -2q-57 0 -74 15t-12 55l5 44q5 38 -7.5 53.5t-55.5 15.5h-33z" />
    <glyph glyph-name="percent.alt" horiz-adv-x="835" 
d="M297 654q59 0 96.5 -37t37.5 -100q0 -82 -58 -148t-144 -66q-59 0 -96.5 37t-37.5 100q0 82 58 148t144 66zM80 -9l350 338l324 320h49l-350 -338l-324 -320h-49zM230 327q36 0 65 40.5t42.5 91.5t13.5 95q0 77 -55 77q-53 0 -87 -77.5t-34 -150.5q0 -76 55 -76zM654 336
q59 0 96.5 -37t37.5 -100q0 -82 -58 -148t-145 -66q-58 0 -95.5 37.5t-37.5 100.5q0 81 58 147t144 66zM586 9q37 0 66 40.5t42.5 91.5t13.5 95q0 77 -55 77q-36 0 -65 -40.5t-42.5 -91.5t-13.5 -95q0 -77 54 -77z" />
    <glyph glyph-name="NUL" horiz-adv-x="0" 
 />
    <glyph glyph-name="hcoslug" horiz-adv-x="694" 
d="M273 18h-26q0 -12 10 -12q8 0 9 7h7q-3 -14 -18 -14q-21 0 -21 20q0 9 6 15t14 6q21 0 19 -22zM254 35q-7 0 -7 -12h14q0 12 -7 12zM195 78q8 0 8 16q0 15 -8 15t-8 -15q0 -16 8 -16zM210 4q8 0 8 16q0 15 -8 15t-8 -15q0 -16 8 -16zM210 -1q-21 0 -21 21q0 20 21 20
t21 -20q0 -9 -6 -15t-15 -6zM546 4q8 0 8 16q0 15 -8 15t-8 -15q0 -16 8 -16zM546 -1q-21 0 -21 21q0 20 21 20t21 -20q0 -9 -6 -15t-15 -6zM125 74v7h7v41h-7v7h51v-20h-8q-2 13 -11 13h-12v-18h4q5 0 6 8h7v-23h-7q-1 8 -6 8h-4v-16h10v-7h-30zM195 73q-21 0 -21 21
q0 20 21 20t21 -20q0 -9 -6 -15t-15 -6zM644 -100v800h-594v-800h594zM498 -1q-29 0 -29 28q0 13 8 21.5t19 8.5q9 0 16 -7l1 6h8v-22h-8q-5 16 -15 16q-14 0 -14 -22t16 -22q12 0 14 16h8q-2 -23 -24 -23zM372 80q7 0 7 13t-7 13q-8 0 -8 -13t8 -13zM276 0v7h6v25h-7v7h7v1
q0 19 19 19q5 0 9 -2l10 2v-52h6v-7h-23v7h5v25h-14v-25h5v-7h-23zM368 0v7h6v25h-6v7h18v-10q4 11 12 11t8 -8q0 -7 -7 -7q-6 0 -6 6v1q-3 0 -7 -9v-16h8v-7h-26zM352 73v52h-6v7h18v-27q3 9 13 9q15 0 15 -20q0 -21 -16 -21q-9 0 -14 8l-4 -8h-6zM400 75q5 0 6.5 -4
t-1.5 -6q6 0 8 8l-16 33h-5v7h25v-7h-6l9 -20l8 20h-5v7h17v-7h-5l-13 -31q-6 -16 -18 -16q-11 0 -11 9q0 7 7 7zM247 428q0 13 7.5 21t19.5 8q13 0 21 -10.5t8 -27.5q0 -22 -18 -50q-15 14 -21 20.5t-11.5 17t-5.5 21.5zM302 74v14h7q6 -9 12 -9q5 0 5 4q0 3 -12 6.5
t-12 12.5q0 12 14 12q8 0 11 -5l2 5h6v-13h-7q-5 7 -10 7t-5 -4q0 -3 12 -6t12 -12q0 -13 -14 -13q-5 0 -13 5l-1 -4h-7zM261 219q-22 0 -37 15.5t-15 38.5q0 24 16 40q34 -32 74 -82q-15 -12 -38 -12zM274 122l12 2v-11h13v-7h-13v-20q0 -5 4 -5t5 7l5 -2q-3 -13 -14 -13
q-12 0 -12 13v20h-7v7h7v9zM428 306q-26 -16 -46 -42q35 -41 62 -41q26 0 43 29l7 -2q-1 -43 -24 -68.5t-56 -25.5q-41 0 -85 45q-41 -45 -104 -45q-45 0 -77 27t-32 66q0 63 82 91q-31 32 -31 69q0 34 30.5 59.5t78.5 25.5q44 0 69.5 -22.5t25.5 -51.5q0 -19 -9 -34
q46 2 49 -37q25 38 60 38q21 0 35.5 -14.5t14.5 -37.5t-14.5 -38.5t-35.5 -15.5q-28 0 -43 25zM219 74v7h6v25h-6v7h17v-10q5 11 14 11q12 0 12 -14v-19h6v-7h-22v7h4v18q0 7 -6 7q-7 0 -7 -10v-15h4v-7h-22zM446 33h18v-7h-5q-3 -6 -9 -14q3 -5 6 -5t4 5l5 -1
q-3 -12 -13 -12q-7 0 -12 6q-6 -6 -15 -6q-18 0 -18 14q0 11 13 15q-6 6 -6 12q0 14 17 14q14 0 14 -12q0 -7 -11 -12q3 -3 6.5 -7t5.5 -6q4 5 6 9h-6v7zM429 6q3 0 8 3q-10 12 -14 16q-4 -4 -4 -9q0 -10 10 -10zM294 42v-3h14v5q-6 0 -6 6l1 3q-1 1 -3 1q-6 0 -6 -12z
M425 43q0 -4 6 -10q5 3 5 9t-6 6q-5 0 -5 -5zM312 342q30 20 42 34q29 -29 -1 -80q-33 38 -41 46zM366 18h-26q0 -12 10 -12q8 0 9 7h7q-4 -14 -18 -14q-21 0 -21 20q0 9 6 15t14 6q21 0 19 -22zM347 35q-7 0 -7 -12h14q0 12 -7 12zM124 0v7h8v41h-8v7h29v-7h-8v-16h22v16
h-8v7h29v-7h-8v-41h8v-7h-29v7h8v18h-22v-18h8v-7h-29zM576 13q7 0 7 -7t-7 -7t-7 7t7 7z" />
    <glyph glyph-name="i.dot" horiz-adv-x="306" 
d="M197 620q0 35 22.5 61.5t54.5 26.5q22 0 36.5 -13.5t14.5 -39.5q0 -35 -22.5 -62.5t-54.5 -27.5q-21 0 -36 14.5t-15 40.5zM250 33v-21q-50 -20 -109 -20q-90 0 -90 71q0 20 8 46l85 274q8 23 -9 34t-66 14v23l204 9l-109 -350q-10 -33 -10 -46q0 -22 21.5 -29.5
t74.5 -4.5z" />
    <glyph glyph-name="caron.alt" horiz-adv-x="158" 
d="M130 535l35 160q8 41 20 60t37 19q17 0 29 -11.5t12 -28.5q0 -20 -34 -76l-76 -123h-23z" />
    </font>
</defs>
</svg>
