<?xml version="1.0" standalone="no"?>
<!DOCTYPE svg PUBLIC "-//W3C//DTD SVG 1.1//EN" "http://www.w3.org/Graphics/SVG/1.1/DTD/svg11.dtd" >
<svg xmlns="http://www.w3.org/2000/svg">
<metadata></metadata>
<defs>
<font id="focoregular" horiz-adv-x="1124" >
<font-face units-per-em="2048" ascent="1606" descent="-442" />
<missing-glyph horiz-adv-x="409" />
<glyph unicode="&#xfb01;" horiz-adv-x="1089" d="M150 0v1063q0 198 100 301.5t291 103.5q142 0 240 -50.5t98 -102.5q0 -36 -50 -103h-30q-35 47 -100 77t-150 30q-113 0 -169 -53t-56 -172v-131h596v-762q0 -74 17 -99.5t81 -25.5v-74q-47 -14 -113 -14q-38 0 -66 8t-45 26t-27.5 35.5t-15 48t-5.5 52t-1 57.5v598h-421 v-813h-174z" />
<glyph horiz-adv-x="0" />
<glyph horiz-adv-x="0" />
<glyph horiz-adv-x="682" />
<glyph unicode="&#xd;" horiz-adv-x="368" />
<glyph unicode=" "  horiz-adv-x="409" />
<glyph unicode="&#x09;" horiz-adv-x="409" />
<glyph unicode="&#xa0;" horiz-adv-x="409" />
<glyph unicode="!" horiz-adv-x="460" d="M113 90q0 55 32.5 90t85.5 35q51 0 84 -35.5t33 -89.5t-33 -87.5t-84 -33.5q-54 0 -86 33.5t-32 87.5zM139 492v882h13q4 0 13 1t13 1q137 0 137 -135v-883q-4 -2 -14 -2h-25q-137 0 -137 136z" />
<glyph unicode="#" horiz-adv-x="1341" d="M74 358l18 134h289l43 301h-289l19 135h288l45 307h142l-45 -307h288l46 307h141l-45 -307h278l-18 -135h-279l-43 -301h279l-19 -134h-278l-41 -299h-141l41 299h-289l-41 -299h-141l40 299h-288zM522 492h289l43 301h-289z" />
<glyph unicode="$" d="M119 135q0 48 57 123q64 -54 146 -92t170 -41v518q-61 20 -105 39t-91.5 50.5t-77 69t-49 93.5t-19.5 125q0 159 94 256.5t248 116.5v161h126v-159q56 -7 109 -21t101.5 -34.5t78 -51t29.5 -65.5q0 -45 -66 -111q-122 109 -252 123v-453q72 -25 126.5 -55t104 -76 t75.5 -112.5t26 -151.5q0 -151 -68.5 -250.5t-191.5 -140.5l-72 -19v-170h-126v162q-151 5 -262 53.5t-111 112.5zM328 1034q0 -73 40 -121.5t124 -83.5v404q-25 -4 -39 -12q-125 -46 -125 -187zM618 137l17 8q137 54 137 215q0 85 -34 140.5t-105 89.5l-15 6v-459z" />
<glyph unicode="%" horiz-adv-x="1685" d="M98 1036q0 174 85 267.5t225 93.5q154 0 232.5 -91.5t78.5 -269.5q0 -173 -84.5 -267.5t-224.5 -94.5q-149 0 -230.5 93t-81.5 269zM252 1036q0 -231 156 -231q86 0 122.5 60t36.5 173q0 112 -36.5 171t-122.5 59q-156 0 -156 -232zM289 0l878 1319q51 80 131 80 q47 0 66 -8l22 -7l-921 -1384h-176zM958 332q0 172 86 266t224 94q145 0 227 -92.5t82 -267.5q0 -174 -83.5 -268.5t-223.5 -94.5q-149 0 -230.5 93t-81.5 270zM1110 332q0 -234 158 -234q86 0 122.5 61t36.5 175q0 111 -36.5 170t-122.5 59q-158 0 -158 -231z" />
<glyph unicode="&#x26;" horiz-adv-x="1429" d="M106 383q0 89 28 165.5t77.5 133t109 97.5t130.5 69h-2q-49 64 -70 118t-21 124q0 137 104 222t251 85q122 0 207.5 -43.5t85.5 -98.5q0 -39 -62 -106h-20q-48 46 -95 70t-110 24q-77 0 -127.5 -43.5t-50.5 -120.5q0 -50 22 -94.5t66 -101.5q62 -78 194.5 -241 t147.5 -181q63 152 63 317q0 74 -2 109h330v-133h-180q-9 -235 -107 -426l262 -322q-53 -24 -100 -24q-80 0 -135 61l-129 147q-94 -102 -196.5 -157.5t-229.5 -55.5q-113 0 -199.5 33t-138 90.5t-77.5 129t-26 153.5zM279 395q0 -116 72.5 -191t199.5 -75q101 0 174 43.5 t145 138.5q-59 71 -168.5 209t-164.5 205q-116 -49 -187 -131t-71 -199z" />
<glyph unicode="(" horiz-adv-x="579" d="M111 612q0 137 21 263t51.5 215t69.5 162.5t71 115t59 62.5q49 36 88 36q9 0 51 -6l21 -6q-22 -26 -39 -48.5t-58.5 -100.5t-69 -162.5t-50.5 -227.5t-23 -303q0 -542 236 -848q-29 -16 -66 -16q-43 0 -90 35q-25 18 -54 51.5t-69.5 104.5t-72 158.5t-54 223.5t-22.5 291 z" />
<glyph unicode=")" horiz-adv-x="575" d="M20 1454l21 6q42 6 51 6q39 0 88 -36q27 -21 59.5 -62t71 -114.5t69.5 -162.5t52 -215.5t21 -263.5q0 -130 -15.5 -247t-41 -201t-55 -152t-62 -114.5t-56 -73t-43.5 -41.5q-47 -35 -90 -35q-36 0 -65 16q235 303 235 848q0 160 -23 303t-50.5 227.5t-69 162.5 t-58.5 100.5t-39 48.5z" />
<glyph unicode="," horiz-adv-x="462" d="M72 -178q41 19 81 61.5t50 87.5q-80 56 -80 125q0 53 29 86t81 33q57 0 87 -40t30 -103q0 -118 -64 -216t-143 -98q-50 0 -71 64z" />
<glyph unicode="." horiz-adv-x="460" d="M113 96q0 54 33.5 90.5t82.5 36.5q51 0 85 -36.5t34 -90.5q0 -55 -33 -91t-86 -36q-51 0 -83.5 36.5t-32.5 90.5z" />
<glyph unicode="0" d="M78 668q0 331 125 516.5t366 185.5q237 0 355 -181.5t118 -520.5t-122.5 -519t-356.5 -180q-239 0 -362 176t-123 523zM266 668q0 -543 299 -543q55 0 99 17.5t81 57t61.5 101.5t38 154.5t13.5 212.5t-13.5 212.5t-38 154.5t-61.5 101.5t-81 56.5t-99 17q-70 0 -123 -28 t-93.5 -89.5t-61.5 -168t-21 -256.5z" />
<glyph unicode="1" d="M213 1100q0 44 45 67l266 148q33 18 49 26t37 14.5t41 6.5q53 0 82 -29v-1333h-176v1141l-287 -150q-57 67 -57 109z" />
<glyph unicode="2" d="M119 0v143q66 52 136 112t164.5 155t166 184.5t122 193t50.5 187.5q0 124 -67.5 178.5t-176.5 54.5q-164 0 -303 -155h-31q-61 67 -61 104q0 33 35 64q17 17 46.5 38t78 48t116 45t137.5 18q86 0 156.5 -20.5t128 -64.5t89.5 -120.5t32 -179.5q0 -147 -70 -278t-194 -261 q-190 -200 -307 -292h483q63 0 95 -31t32 -78q0 -27 -6 -45h-852z" />
<glyph unicode="3" d="M84 143q0 39 72 133q51 -57 137 -104t199 -47q43 0 81.5 7.5t76.5 26t65 47t44 74.5t17 105q0 64 -23.5 113t-56.5 74.5t-76 41t-74 19.5t-59 4h-73v149h73q26 0 55 4.5t66.5 20t66 39t48.5 67t20 99.5q0 196 -233 196q-166 0 -307 -141h-27q-67 57 -67 100q0 39 58 85.5 t156.5 80t198.5 33.5q201 0 301.5 -93t100.5 -247q0 -66 -20.5 -122.5t-54.5 -93.5t-63.5 -59.5t-60.5 -37.5q231 -93 231 -328q0 -188 -117 -303t-343 -115q-131 0 -227 34t-144 71q-41 30 -41 67z" />
<glyph unicode="4" d="M115 354v138l547 763q39 54 71 79.5t78 25.5t76 -21v-837h63q97 0 97 -90q0 -9 -3.5 -29t-3.5 -29h-153v-354h-176v354h-596zM283 504h428v590z" />
<glyph unicode="5" d="M88 139q0 42 68 131q49 -55 138 -100t206 -45q54 0 103.5 17t90.5 50.5t65.5 91t24.5 132.5q0 299 -325 299q-115 0 -234 -39l-57 26l65 652h676q6 -14 6 -45q0 -71 -32.5 -94t-96.5 -23h-413l-35 -346q88 20 160 20q98 0 179 -23.5t147.5 -73t103.5 -137t37 -206.5 q0 -129 -51.5 -230t-159.5 -163t-260 -62q-139 0 -232 32t-133 65q-41 29 -41 71z" />
<glyph unicode="6" d="M127 555q0 137 29 257t79 207.5t115.5 156t141.5 111t153.5 64t153.5 21.5q90 0 90 -86q0 -13 -3 -35.5t-3 -31.5q-23 2 -62 2q-71 0 -134 -17.5t-109 -45.5t-86 -66.5t-66.5 -77t-47.5 -81t-32 -74t-18 -60.5q50 44 129.5 80t177.5 36q94 0 168 -37.5t118.5 -102 t67.5 -145.5t23 -173q0 -229 -121 -358.5t-313 -129.5q-225 0 -338 150.5t-113 435.5zM303 522q0 -55 6 -105t24.5 -106t48.5 -96.5t82 -67t120 -26.5q113 0 179 87t66 236q0 145 -58.5 233.5t-182.5 88.5q-62 0 -125 -25t-96.5 -49.5t-57.5 -48.5q-6 -31 -6 -121z" />
<glyph unicode="7" d="M106 1243q0 51 32 81t93 30h693q43 0 61.5 -15t18.5 -55v-49l-586 -1235h-193l568 1188h-682q-5 15 -5 55z" />
<glyph unicode="8" d="M90 367q0 110 69.5 208.5t168.5 139.5q-92 40 -142.5 120t-50.5 175q0 85 36 155t96.5 114t135.5 67.5t156 23.5q86 0 161 -21t134.5 -62.5t94 -109.5t34.5 -155q0 -96 -52 -175.5t-145 -127.5q108 -36 175 -133t67 -211q0 -102 -36.5 -181.5t-101 -127.5t-148 -72.5 t-183.5 -24.5q-217 0 -343 100t-126 298zM266 371q0 -122 80.5 -189t212.5 -67q131 0 211 69.5t80 192.5q0 118 -78.5 189t-212.5 71q-133 0 -213 -74.5t-80 -191.5zM309 1008q0 -92 72.5 -154.5t177.5 -62.5q103 0 175.5 64.5t72.5 156.5q0 101 -70.5 158t-177.5 57 q-108 0 -179 -58.5t-71 -160.5z" />
<glyph unicode="9" d="M113 889q0 227 120.5 354t315.5 127q220 0 335 -151.5t115 -419.5q0 -160 -36 -296.5t-98 -233.5t-145 -165.5t-178 -101.5t-196 -33q-55 0 -81.5 18t-26.5 66q0 34 4 70q23 -2 61 -2q99 0 181.5 32.5t135 80t91.5 109t57.5 112.5t26.5 98q-132 -115 -287 -115 q-101 0 -179 38t-124 102.5t-69 143t-23 167.5zM295 903q0 -319 248 -319q93 0 170.5 49.5t101.5 101.5q4 50 4 92q0 52 -6 100t-24.5 103t-47.5 95t-80.5 67t-119.5 27q-111 0 -178.5 -85t-67.5 -231z" />
<glyph unicode="?" horiz-adv-x="899" d="M43 1233q0 28 35 55q137 109 342 109q174 0 288.5 -92t114.5 -267q0 -66 -20 -125t-52 -102.5t-70.5 -83.5t-77 -74.5t-70.5 -67t-52 -70t-20 -75.5q0 -46 8 -82q-10 -2 -41 -2q-55 0 -85 33.5t-30 93.5t34 116t82 102t96 93t82 108.5t34 129.5q0 108 -68 159.5 t-174 51.5q-163 0 -280 -117h-25q-51 69 -51 107zM279 94q0 54 33.5 90.5t82.5 36.5q53 0 87 -36t34 -91q0 -54 -33.5 -89.5t-87.5 -35.5q-50 0 -83 35.5t-33 89.5z" />
<glyph unicode="@" horiz-adv-x="1622" d="M86 1065q0 28 49 67t127.5 75.5t194 62.5t233.5 26q189 0 339 -58t245.5 -160.5t145.5 -238t50 -294.5q0 -238 -85.5 -414.5t-253.5 -274.5t-400 -98q-140 0 -246.5 30.5t-171.5 86.5t-97 130.5t-32 166.5q0 70 22.5 128t57.5 96.5t86 68.5t99.5 46.5t108 28t100.5 15.5 t87 6q68 0 91 -2q-2 50 -13.5 88t-35.5 71t-68.5 50.5t-108.5 17.5q-73 0 -139.5 -24t-114.5 -60h-30q-39 51 -39 91q0 45 109.5 89t234.5 44q366 0 366 -346v-291q0 -61 17.5 -84.5t77.5 -24.5v-76q-46 -12 -86 -12q-74 0 -120 38.5t-46 119.5v192h-41q-33 0 -65 -1.5 t-79 -8.5t-86.5 -17.5t-82 -31.5t-71.5 -48t-48 -69t-19 -94q0 -34 8.5 -66.5t34.5 -70.5t68 -66.5t117.5 -47.5t173.5 -19q123 0 224 37.5t179 113.5t121 201.5t43 290.5q0 146 -47.5 261.5t-133.5 189.5t-201.5 112.5t-254.5 38.5q-90 0 -178.5 -19t-154.5 -48t-111.5 -55 t-73.5 -50h-23q-23 19 -38 44.5t-15 45.5z" />
<glyph unicode="A" horiz-adv-x="1280" d="M45 0l496 1358q40 18 100 18q89 0 121 -84l473 -1292h-186l-138 369h-553l-133 -369h-180zM403 514h461l-229 653z" />
<glyph unicode="B" horiz-adv-x="1161" d="M160 0v1366q203 18 334 18q185 0 298.5 -40.5t161 -114t47.5 -187.5q0 -67 -19.5 -124.5t-51.5 -95t-63.5 -61.5t-63.5 -38q262 -67 262 -330q0 -112 -38 -189.5t-112.5 -121.5t-171.5 -63t-229 -19h-354zM338 147h129q67 0 116 3.5t99.5 12.5t84.5 26t61.5 44t41 67.5 t13.5 94.5q0 240 -348 240h-197v-488zM338 780h194q131 0 211 68t80 188q0 62 -24.5 103t-73 62.5t-105.5 29.5t-137 8q-104 0 -145 -8v-451z" />
<glyph unicode="C" horiz-adv-x="1220" d="M125 680q0 157 36.5 286t109 226.5t190 151t270.5 53.5q102 0 198.5 -31t153 -76.5t56.5 -87.5q0 -41 -54 -108h-36q-130 145 -318 145q-95 0 -169 -32t-121 -84.5t-77 -126t-42.5 -150.5t-12.5 -164q0 -89 13.5 -167.5t45.5 -152t81 -125.5t125.5 -83t173.5 -31 q51 0 100 13.5t82.5 31t65.5 42t46.5 38.5t26.5 28q27 -21 50.5 -54t23.5 -56q0 -6 -1 -12t-2.5 -10t-5 -10t-5.5 -9t-7.5 -10.5t-7.5 -10.5q-16 -16 -41 -33.5t-72.5 -43t-119 -42t-152.5 -16.5q-155 0 -272 52.5t-189 149t-107.5 224t-35.5 285.5z" />
<glyph unicode="D" horiz-adv-x="1296" d="M162 0v1364q181 20 346 20q153 0 271.5 -35t195 -95t126 -147.5t69.5 -184.5t20 -213q0 -123 -23 -227t-76.5 -194.5t-134 -153t-201.5 -98.5t-274 -36h-319zM340 152h170q108 0 193 28t141.5 76.5t93 118.5t52.5 149.5t16 173.5q0 96 -14 173t-49 145t-90.5 113.5 t-141.5 71.5t-199 26q-101 0 -172 -10v-1065z" />
<glyph unicode="E" horiz-adv-x="1042" d="M160 0v1370h790q4 -10 4 -27q0 -62 -26 -94t-99 -32h-491v-422h465v-158h-465v-483h520q64 0 95.5 -30.5t31.5 -80.5q0 -5 -1 -15t-1 -14v-14h-823z" />
<glyph unicode="F" horiz-adv-x="972" d="M160 0v1370h790q4 -10 4 -27q0 -62 -25 -94t-102 -32h-489v-410h465v-156h-465v-651h-178z" />
<glyph unicode="G" horiz-adv-x="1333" d="M125 690q0 156 37.5 283.5t111.5 223t194 148t277 52.5q95 0 189 -29.5t151.5 -74t57.5 -85.5q0 -45 -53 -110h-35q-44 55 -128.5 98t-193.5 43q-81 0 -147 -21t-112 -60t-79 -89.5t-52 -114t-27.5 -128t-8.5 -136.5q0 -90 13.5 -170t46 -154.5t82.5 -128.5t127.5 -86 t175.5 -32q103 0 178.5 30t107.5 62v360h-286v146h456v-580q-16 -21 -53 -46.5t-95.5 -54.5t-145 -48t-181.5 -19q-154 0 -271.5 53t-190.5 150.5t-109.5 227.5t-36.5 290z" />
<glyph unicode="H" horiz-adv-x="1331" d="M162 0v1372q6 0 22 2t29 2q127 0 127 -129v-456h651v581q6 0 22 2t29 2q48 0 87.5 -28.5t39.5 -100.5v-1247h-178v635h-651v-635h-178z" />
<glyph unicode="I" horiz-adv-x="491" d="M156 0v1372q6 0 22 2t29 2q21 0 40.5 -5t41 -18t34.5 -40.5t13 -65.5v-1247h-180z" />
<glyph unicode="J" horiz-adv-x="507" d="M-96 -264q0 35 2 49q148 0 207 58.5t59 199.5v1327q14 6 49 6q21 0 41 -5t41 -17.5t34 -39t13 -63.5v-1110q0 -48 -1.5 -85.5t-9 -93t-20.5 -97t-38 -87.5t-60 -75t-88.5 -48.5t-120.5 -19.5q-61 0 -84.5 26.5t-23.5 74.5z" />
<glyph unicode="K" horiz-adv-x="1150" d="M162 0v1372q8 0 23 2t26 2q21 0 40.5 -5t41 -18t34.5 -40.5t13 -65.5v-1247h-178zM377 696v66l489 547q55 63 115 63q52 0 119 -43l-531 -592l570 -729q-57 -24 -113 -24q-52 0 -86 17.5t-66 57.5z" />
<glyph unicode="L" horiz-adv-x="980" d="M160 0v1372q6 0 22 2t29 2q48 0 87.5 -28.5t39.5 -100.5v-1091h475q62 0 92.5 -30.5t30.5 -78.5q0 -8 -1 -19t-1 -14v-14h-774z" />
<glyph unicode="M" horiz-adv-x="1626" d="M127 0l102 1364q36 12 88 12q74 0 111 -76l381 -827l381 823q38 80 123 80q54 0 90 -12l96 -1364h-168l-74 1077l-364 -766h-174l-346 731l-76 -1042h-170z" />
<glyph unicode="N" horiz-adv-x="1351" d="M162 0v1366q27 10 80 10q44 0 69 -15t49 -52l664 -1037v1100q2 0 18 2t31 2q29 0 53 -8.5t44 -39t20 -81.5v-1247h-166l-696 1063v-1063h-166z" />
<glyph unicode="O" horiz-adv-x="1431" d="M125 690q0 145 36 270t107 224t189 156t270 57q149 0 262.5 -55t182 -152.5t102 -222.5t33.5 -275q0 -120 -21 -225.5t-67 -197.5t-115 -158t-169.5 -104t-225.5 -38q-123 0 -222.5 39t-166 105.5t-111 159t-64.5 196.5t-20 221zM313 690q0 -92 12.5 -172t42.5 -153 t75.5 -125t115.5 -82.5t158 -30.5t158 30.5t115 82.5t75 125t42.5 153t12.5 172t-12.5 170t-42 148t-74.5 119t-113 77.5t-155 28.5q-90 0 -161 -28.5t-117 -77.5t-76.5 -119t-43 -148t-12.5 -170z" />
<glyph unicode="P" horiz-adv-x="1101" d="M160 0v1366q180 18 323 18q278 0 410.5 -99.5t132.5 -299.5q0 -103 -29.5 -183.5t-79 -131.5t-120 -84t-147.5 -46.5t-167 -13.5h-145v-526h-178zM332 1227h4v-551h82q107 0 180.5 12.5t131 44.5t85 92t27.5 150q0 74 -26 126t-74.5 80.5t-107.5 41t-136 12.5 q-103 0 -166 -8z" />
<glyph unicode="Q" horiz-adv-x="1443" d="M131 690q0 145 36 270t107 224t189 156t270 57q149 0 262.5 -55t182 -152.5t102 -222.5t33.5 -275q0 -120 -21 -225.5t-67 -197.5t-115 -158t-169.5 -104t-225.5 -38q-123 0 -222.5 39t-166 105.5t-111 159t-64.5 196.5t-20 221zM319 690q0 -92 12.5 -172t42.5 -153 t75.5 -125t115.5 -82.5t158 -30.5t158 30.5t115 82.5t75 125t42.5 153t12.5 172t-12.5 170t-42 148t-74.5 119t-113 77.5t-155 28.5q-90 0 -161 -28.5t-117 -77.5t-76.5 -119t-43 -148t-12.5 -170zM729 -150q11 21 36.5 39.5t47.5 18.5q31 0 70.5 -21.5t76 -47.5t106 -48.5 t153.5 -23.5q0 -72 -35 -116t-90 -44q-89 0 -198.5 81t-166.5 162z" />
<glyph unicode="R" horiz-adv-x="1138" d="M162 0v1366q126 18 321 18q279 0 403 -94t124 -297q0 -162 -85.5 -265.5t-215.5 -133.5l374 -594q-35 -18 -96 -18q-93 0 -145 79l-320 500h-182v-561h-178zM334 1225h4v-512h147q338 0 338 270q0 75 -23 125t-69.5 77t-104 37.5t-139.5 10.5q-98 0 -153 -8z" />
<glyph unicode="S" horiz-adv-x="1015" d="M55 135q0 46 62 123q163 -133 352 -133q76 0 132 19.5t87 53.5t45.5 74.5t14.5 87.5q0 58 -17 101t-53 74.5t-83.5 54t-117.5 43.5q-50 15 -85.5 27.5t-79 32t-73.5 39.5t-60.5 49t-49 62.5t-30 78.5t-11.5 98q0 179 122 278t316 99q81 0 169 -20.5t154 -62t66 -91.5 q0 -44 -67 -111q-147 127 -322 127q-131 0 -192.5 -58t-61.5 -147q0 -40 14 -73t37 -56.5t63.5 -45.5t82 -37.5t104.5 -35.5q77 -24 136.5 -54.5t112.5 -77t81.5 -114t28.5 -153.5q0 -199 -127 -308.5t-336 -109.5q-104 0 -200 22.5t-155 61t-59 82.5z" />
<glyph unicode="T" horiz-adv-x="1105" d="M16 1272q0 41 32.5 69.5t92.5 28.5h940q0 -7 2 -23.5t2 -23.5q0 -47 -32 -78t-92 -31h-324v-1214h-180v1214h-434l-5 19q-2 10 -2 39z" />
<glyph unicode="U" horiz-adv-x="1304" d="M152 539v833q8 0 23 2t26 2q21 0 41 -5t41 -18t34 -40t13 -66v-727q0 -90 15.5 -158.5t50.5 -122.5t97.5 -82t151.5 -28q181 0 255.5 88.5t74.5 302.5v852q6 0 22 2t29 2q21 0 41 -5t40.5 -18t33 -40t12.5 -66v-702q0 -70 -5 -128t-20 -119t-38.5 -108t-63 -90 t-92.5 -70.5t-127 -44t-166 -16.5q-111 0 -195.5 26t-140 73.5t-90 119.5t-49 157t-14.5 194z" />
<glyph unicode="V" horiz-adv-x="1193" d="M18 1366q30 10 95 10q99 0 137 -114l344 -1084l362 1084q20 57 53.5 85.5t88.5 28.5q33 0 78 -10l-492 -1376h-186z" />
<glyph unicode="W" horiz-adv-x="1798" d="M23 1364q36 12 90 12q53 0 84 -27.5t49 -84.5l329 -1063l252 846l-88 319q45 10 84 10q95 0 129 -114l299 -1053l314 1051q18 59 47.5 87.5t81.5 28.5q37 0 82 -10l-437 -1376h-178l-254 829l-252 -829h-178z" />
<glyph unicode="X" horiz-adv-x="1148" d="M53 0l416 690l-381 662q60 24 107 24q85 0 135 -90l250 -452l268 450q32 54 66.5 72t74.5 18q53 0 92 -22l-399 -660l420 -692q-47 -20 -96 -20q-53 0 -87 23t-65 75l-285 469l-321 -547h-195z" />
<glyph unicode="Y" horiz-adv-x="1073" d="M6 1356q39 22 107 22q49 0 76.5 -19.5t52.5 -64.5l297 -563l297 547q29 48 58.5 73t78.5 25q38 0 94 -16l-440 -793v-567h-181v563z" />
<glyph unicode="Z" horiz-adv-x="1067" d="M31 0v131l757 1086h-698l-4 18q-2 10 -2 39q0 41 32.5 68.5t92.5 27.5h733q74 0 74 -70v-57l-770 -1089h655q63 0 94 -30.5t31 -78.5q0 -27 -6 -45h-989z" />
<glyph unicode="`" horiz-adv-x="747" d="M162 1382q62 50 117 50q35 0 57.5 -17.5t50.5 -54.5l172 -225q-47 -33 -86 -33q-54 0 -104 57z" />
<glyph unicode="a" horiz-adv-x="1032" d="M86 268q0 69 24.5 125t68 92.5t94.5 62.5t113.5 40.5t116 21t109.5 8.5q61 0 86 -2v31q0 97 -47 143t-166 46q-87 0 -150 -21.5t-128 -66.5h-21q-39 59 -39 106q0 52 115 91.5t244 39.5q202 0 283 -86t81 -272v-404q0 -65 9 -94t28 -37t64 -8v-82q-44 -14 -101 -14 q-152 0 -165 116q-58 -58 -131 -90t-181 -32q-57 0 -107.5 13t-97.5 43.5t-74.5 89t-27.5 140.5zM260 279q0 -69 40.5 -112.5t133.5 -43.5q101 0 183.5 51.5t82.5 101.5v209h-59q-381 0 -381 -206z" />
<glyph unicode="b" horiz-adv-x="1103" d="M152 0v1452h12q3 0 11.5 1t12.5 1q138 0 138 -135v-438q104 104 280 104q82 0 151 -27t124.5 -83.5t86.5 -153.5t31 -227q0 -118 -25 -211.5t-65.5 -151t-96 -95.5t-111 -52.5t-115.5 -14.5q-103 0 -169 36t-95 77v-82h-170zM326 231q31 -41 92 -76.5t139 -35.5 q127 0 191.5 93t64.5 271q0 355 -260 355q-98 0 -162.5 -42.5t-64.5 -103.5v-461z" />
<glyph unicode="c" horiz-adv-x="948" d="M98 479q0 115 33 206.5t82.5 146t114.5 90.5t122.5 49.5t112.5 13.5q136 0 228 -51.5t92 -104.5q0 -42 -49 -108h-23q-97 113 -240 113q-148 0 -220 -97t-72 -256q0 -78 17 -142.5t51.5 -115t93.5 -78.5t137 -28q79 0 140 34t99 80q68 -68 68 -112q0 -49 -93.5 -99.5 t-238.5 -50.5q-40 0 -79.5 5.5t-86 20t-86.5 38t-78 63.5t-65 92t-43.5 126.5t-16.5 164.5z" />
<glyph unicode="d" horiz-adv-x="1101" d="M104 467q0 131 33.5 232.5t91.5 162.5t130 92t155 31q154 0 262 -100v567h12q3 0 12 1t13 1q137 0 137 -135v-1319h-170v82q-113 -113 -270 -113q-84 0 -154.5 27t-128.5 83.5t-90.5 155.5t-32.5 232zM289 487q0 -84 13 -148.5t42 -116t80.5 -78.5t124.5 -27 q96 0 161.5 41.5t65.5 93.5l2 479q-19 19 -34 31.5t-45.5 32.5t-70.5 30.5t-87 10.5q-119 0 -185.5 -90t-66.5 -259z" />
<glyph unicode="e" horiz-adv-x="1019" d="M98 489q0 125 37.5 222.5t100.5 156t140 88t163 29.5q101 0 178.5 -34.5t123 -94t68.5 -133.5t23 -160q0 -79 -6 -114h-647q6 -156 81 -244t222 -88q170 0 270 116q57 -72 57 -112q0 -55 -101.5 -103.5t-242.5 -48.5q-100 0 -181.5 28t-147 87.5t-102 162.5t-36.5 242z M279 580h479q0 119 -53.5 190.5t-174.5 71.5q-107 0 -175.5 -70t-75.5 -192z" />
<glyph unicode="f" horiz-adv-x="690" d="M150 0v1069q0 197 92 298t266 101q120 0 203.5 -46t83.5 -91q0 -42 -52 -106h-26q-78 94 -199 94q-96 0 -145 -52t-49 -171v-133h344v-150h-344v-813h-174z" />
<glyph unicode="g" horiz-adv-x="1101" d="M104 467q0 131 32.5 232t89 162.5t128.5 92.5t156 31q170 0 270 -104q10 41 45 64.5t74 23.5q12 0 28 -2t23 -2v-897q0 -104 -13 -183t-45.5 -145.5t-85.5 -109t-133.5 -66t-189.5 -23.5q-155 0 -254.5 47.5t-99.5 102.5q0 41 66 112q9 -12 42 -35.5t103 -50t143 -26.5 q77 0 131.5 19t86.5 49.5t50 81.5t23.5 102.5t5.5 124.5v14q-113 -113 -270 -113q-84 0 -154.5 27t-128.5 83.5t-90.5 155.5t-32.5 232zM289 487q0 -84 13 -148.5t42 -116t80.5 -78.5t124.5 -27q96 0 161.5 41.5t65.5 93.5l2 479q-19 19 -34 31.5t-45.5 32.5t-70.5 30.5 t-87 10.5q-119 0 -185.5 -90t-66.5 -259z" />
<glyph unicode="h" horiz-adv-x="1114" d="M152 0v1452h10q3 0 11.5 1t12.5 1q138 0 138 -135v-455q53 59 134 90t175 31q63 0 113.5 -13t84.5 -33.5t59 -53t38.5 -65.5t21.5 -76.5t10.5 -79.5t2.5 -82v-582h-175v575q0 53 -3 85.5t-14.5 68t-33 54.5t-59.5 31.5t-94 12.5q-112 0 -185 -45t-73 -102v-680h-174z" />
<glyph unicode="i" horiz-adv-x="493" d="M119 1278q0 51 31.5 84t78.5 33q48 0 79.5 -33t31.5 -84q0 -47 -32 -79t-79 -32t-78.5 32t-31.5 79zM150 199v774h12q3 0 11.5 1t12.5 1q138 0 138 -137v-654q0 -63 18.5 -85.5t79.5 -22.5v-74q-44 -14 -113 -14q-45 0 -76.5 13.5t-47 31t-24 50t-10 55t-1.5 61.5z" />
<glyph unicode="j" horiz-adv-x="479" d="M-43 -324q118 4 162.5 57t44.5 169v1071h12q3 0 12 1t13 1q137 0 137 -139v-932q0 -93 -21.5 -163t-51.5 -107t-71.5 -59t-72 -28t-62.5 -6q-34 0 -55.5 10t-31 31t-12.5 41.5t-3 52.5zM137 1278q0 51 31.5 84t79.5 33q47 0 78.5 -33t31.5 -84q0 -47 -31.5 -79t-78.5 -32 t-79 32t-32 79z" />
<glyph unicode="k" horiz-adv-x="1007" d="M152 0v1452h12q3 0 11.5 1t12.5 1q138 0 138 -137v-1317h-174zM373 504v67l352 351q59 53 117 53q8 0 15 -1t14.5 -3t13 -3.5t12.5 -5t11.5 -5.5t11 -6.5t9 -6.5t9.5 -6.5t8 -5.5l-393 -387l455 -543q-50 -18 -103 -18q-91 0 -153 73z" />
<glyph unicode="l" horiz-adv-x="493" d="M150 199v1253h12q3 0 11.5 1t12.5 1q138 0 138 -137v-1124q0 -36 2 -53t11 -34.5t29.5 -23.5t55.5 -6v-74q-44 -14 -113 -14q-45 0 -76.5 13.5t-47 31t-24 50t-10 55t-1.5 61.5z" />
<glyph unicode="m" horiz-adv-x="1673" d="M152 0v967h12q4 0 13 1t13 1q114 0 129 -105q51 54 130 87.5t176 33.5q81 0 156.5 -32.5t111.5 -94.5q51 55 133 91t180 36q80 0 138.5 -22.5t92 -58t53.5 -90.5t26 -108.5t6 -123.5v-582h-174v575q0 53 -2.5 85t-14 67.5t-33 55t-60 32t-95.5 12.5q-64 0 -123 -27 t-90 -65q8 -63 8 -151v-584h-174v575q0 130 -42 191t-161 61q-88 0 -161.5 -44.5t-73.5 -96.5v-686h-174z" />
<glyph unicode="n" horiz-adv-x="1112" d="M152 0v967h10q3 0 11.5 1t12.5 1q52 0 88 -25.5t43 -79.5q52 52 134.5 86.5t185.5 34.5q83 0 143 -22.5t94.5 -57.5t54.5 -90.5t26 -108.5t6 -124v-582h-175v575q0 53 -3 85.5t-14.5 68t-33 54.5t-59.5 31.5t-94 12.5q-112 0 -184 -44t-72 -101v-682h-174z" />
<glyph unicode="o" horiz-adv-x="1097" d="M98 479q0 139 50 252t155.5 183.5t251.5 70.5q93 0 168.5 -26.5t126 -72.5t84.5 -110t49.5 -136.5t15.5 -154.5q0 -105 -25 -194.5t-77 -163t-141.5 -116t-208.5 -42.5q-118 0 -207 40.5t-140.5 112.5t-76.5 161t-25 196zM281 483q0 -70 12 -130t40.5 -115.5t83 -88 t130.5 -32.5q64 0 112.5 22t77.5 57t47 85t24.5 98t6.5 104q0 351 -264 351q-60 0 -107.5 -20.5t-77.5 -54t-49.5 -80t-27.5 -94.5t-8 -102z" />
<glyph unicode="p" horiz-adv-x="1103" d="M152 -442v1409h12q4 0 12.5 1t13.5 1q112 0 134 -99q93 115 282 115q82 0 151 -27t124.5 -83.5t86.5 -153.5t31 -227q0 -118 -25 -211.5t-65.5 -151t-96 -95.5t-111 -52.5t-115.5 -14.5q-98 0 -163.5 33t-96.5 74v-518h-174zM326 231q31 -41 92 -76.5t139 -35.5 q127 0 191.5 93t64.5 271q0 355 -260 355q-97 0 -162 -41t-65 -99v-467z" />
<glyph unicode="q" horiz-adv-x="1101" d="M104 465q0 115 25.5 206.5t66 149t96 95.5t112 53.5t116.5 15.5q94 0 160.5 -34.5t99.5 -71.5q11 46 45 68t74 22q12 0 28 -2t23 -2v-1407h-174v520q-109 -109 -260 -109q-88 0 -161 28.5t-130 86.5t-89 155t-32 226zM289 479q0 -362 270 -362q87 0 152 44t65 85v487 q-30 37 -87 70t-134 33q-136 0 -201 -88.5t-65 -268.5z" />
<glyph unicode="r" horiz-adv-x="712" d="M152 0v967h14q4 0 11.5 1t10.5 1q51 0 87.5 -25.5t43.5 -77.5q33 48 92 83.5t128 35.5q25 0 48.5 -4t47 -12.5t37.5 -26.5t14 -43q0 -30 -15 -67.5t-34 -65.5q-54 51 -135 51q-69 0 -122.5 -41.5t-53.5 -95.5v-680h-174z" />
<glyph unicode="s" horiz-adv-x="858" d="M78 96q0 40 51 121q26 -22 59 -42.5t93 -41t120 -20.5q84 0 140.5 34t56.5 113q0 50 -28.5 83t-74 50.5t-100.5 31.5t-110 33t-100.5 46.5t-74 80t-28.5 126.5q0 87 50 151t127.5 93.5t170.5 29.5q156 0 246 -55q69 -39 69 -80q0 -47 -38 -111l-29 -2q-37 45 -104.5 76 t-139.5 31q-30 0 -59 -5.5t-58.5 -18t-47 -38.5t-17.5 -61q0 -40 28.5 -68t74.5 -45t101 -32t110 -36.5t101 -52t74.5 -85t28.5 -128.5q0 -97 -53 -167t-136.5 -103t-185.5 -33q-78 0 -141.5 12.5t-100 32.5t-56 40.5t-19.5 39.5z" />
<glyph unicode="t" horiz-adv-x="729" d="M147 299v958h13q3 0 11.5 1.5t12.5 1.5q61 0 99.5 -32t38.5 -102v-163h305v-148h-305v-528q0 -168 133 -168q56 0 106 33t64 55q59 -73 59 -115q0 -41 -73.5 -82t-182.5 -41q-204 0 -260 154q-21 59 -21 176z" />
<glyph unicode="u" horiz-adv-x="1099" d="M143 358v615h13q3 0 11.5 1t12.5 1q137 0 137 -135v-482q0 -76 13 -124t42 -72.5t63.5 -32.5t88.5 -8q102 0 176 50t74 97v705h12q3 0 12 1t13 1q137 0 137 -137v-838h-174v90q-106 -121 -305 -121q-66 0 -118 13.5t-85.5 33.5t-57.5 53.5t-36.5 63t-19 74.5t-8 75 t-1.5 76z" />
<glyph unicode="v" horiz-adv-x="968" d="M31 952q53 17 92 17q57 0 86 -34t57 -114l219 -651l224 643q29 86 57 121t90 35q48 0 82 -19l-369 -958h-178z" />
<glyph unicode="w" horiz-adv-x="1421" d="M31 954q58 15 90 15q95 0 129 -107l211 -676l196 482l-104 288q44 13 82 13q89 0 127 -99l246 -686l168 650q15 63 45.5 99t85.5 36q35 0 84 -17l-293 -960h-174l-193 497l-211 -497h-155z" />
<glyph unicode="x" horiz-adv-x="894" d="M20 0l326 477l-313 481q71 17 100 17q52 0 81 -19t56 -61l183 -291l184 277q32 50 65 72t82 22q46 0 90 -19l-327 -479l325 -475q-37 -16 -94 -16q-93 0 -139 69l-199 291l-186 -285q-28 -42 -64.5 -58.5t-87.5 -16.5q-50 0 -82 14z" />
<glyph unicode="y" horiz-adv-x="954" d="M23 -367q0 50 47 113q68 -53 135 -53q69 0 113.5 51.5t80.5 165.5l29 92h-70l-331 950q49 17 90 17q50 0 84.5 -33t50.5 -84l225 -698l225 680q37 135 146 135q40 0 76 -19l-373 -1083q-20 -60 -38 -101.5t-47.5 -87.5t-63 -73.5t-84.5 -45.5t-113 -18q-82 0 -132 23.5 t-50 68.5z" />
<glyph unicode="z" horiz-adv-x="876" d="M61 0v127l531 690h-522q0 77 32 114.5t103 37.5h520q86 0 86 -72v-49l-541 -696h424q71 0 103 -34.5t32 -117.5h-768z" />
<glyph unicode="&#xa3;" d="M123 586v145h143v254q0 102 33.5 178t93 120.5t132.5 65.5t159 21t170 -25.5t135 -65.5t51 -79q0 -47 -61 -108h-21q-110 125 -270 125q-53 0 -95 -11.5t-77.5 -38t-54.5 -77t-19 -121.5v-238h432v-145h-432v-432h478q62 0 92 -29.5t30 -77.5q0 -8 -1 -19t-1 -14v-14 h-772v586h-145z" />
<glyph unicode="&#xa8;" horiz-adv-x="784" d="M104 1245q0 47 30.5 79t74.5 32t74 -32t30 -79q0 -48 -28.5 -78t-75.5 -30t-76 30t-29 78zM471 1245q0 47 30 79t74 32t74.5 -32t30.5 -79q0 -48 -29 -78t-76 -30t-75.5 30t-28.5 78z" />
<glyph unicode="&#xb8;" horiz-adv-x="743" d="M233 -371q0 31 11 68q23 -10 53 -10q74 0 74 51q0 26 -20.5 49t-41 48t-20.5 56q0 12 3.5 26t8 24t12.5 24t12 20.5t13 19t10 13.5h121q-24 -24 -34 -35t-17.5 -25.5t-7.5 -29.5q0 -21 14 -39.5t31 -32t31 -41t14 -63.5q0 -85 -60 -135.5t-135 -50.5q-72 0 -72 63z" />
<glyph unicode="&#xc5;" horiz-adv-x="1280" d="M45 0l496 1358q40 18 100 18q89 0 121 -84l473 -1292h-186l-138 369h-553l-133 -369h-180zM403 514h461l-229 653zM424 1526q0 96 59.5 160.5t157.5 64.5q99 0 158 -61.5t59 -161.5q0 -95 -60 -159t-157 -64t-157 64t-60 157zM532 1528q0 -52 28.5 -87.5t80.5 -35.5 t81.5 34.5t29.5 86.5q0 55 -26 91t-87 36q-52 0 -79.5 -36.5t-27.5 -88.5z" />
<glyph unicode="&#xdf;" horiz-adv-x="1165" d="M152 0v1057q0 203 105 307t300 104q175 0 288 -82t113 -225q0 -51 -18.5 -99t-46 -82t-60 -68.5t-60 -61.5t-46 -59t-18.5 -62q0 -55 33.5 -88t121.5 -78q42 -22 68 -37t58.5 -41.5t50.5 -53.5t31 -67t13 -88q0 -136 -89.5 -220.5t-260.5 -84.5q-79 0 -143.5 13.5 t-101.5 34.5t-56.5 43t-19.5 42q0 17 9 37t19.5 35t32.5 45q125 -106 258 -106q185 0 185 145q0 40 -21.5 72t-55.5 53.5t-75.5 41.5t-83 43t-75.5 50.5t-55.5 70.5t-21.5 97q0 61 26 112.5t62.5 88.5t73 72.5t62.5 80.5t26 97q0 86 -57 132t-166 46q-121 0 -176 -60.5 t-55 -185.5v-1071h-174z" />
<glyph unicode="&#xe4;" horiz-adv-x="1032" d="M86 268q0 69 24.5 125t68 92.5t94.5 62.5t113.5 40.5t116 21t109.5 8.5q61 0 86 -2v31q0 97 -47 143t-166 46q-87 0 -150 -21.5t-128 -66.5h-21q-39 59 -39 106q0 52 115 91.5t244 39.5q202 0 283 -86t81 -272v-404q0 -65 9 -94t28 -37t64 -8v-82q-44 -14 -101 -14 q-152 0 -165 116q-58 -58 -131 -90t-181 -32q-57 0 -107.5 13t-97.5 43.5t-74.5 89t-27.5 140.5zM223 1245q0 47 30.5 79t74.5 32t74 -32t30 -79q0 -48 -28.5 -78t-75.5 -30t-76 30t-29 78zM260 279q0 -69 40.5 -112.5t133.5 -43.5q101 0 183.5 51.5t82.5 101.5v209h-59 q-381 0 -381 -206zM590 1245q0 47 30 79t74 32t74.5 -32t30.5 -79q0 -48 -29 -78t-76 -30t-75.5 30t-28.5 78z" />
<glyph unicode="&#xe7;" horiz-adv-x="948" d="M98 479q0 115 33 206.5t82.5 146t114.5 90.5t122.5 49.5t112.5 13.5q136 0 228 -51.5t92 -104.5q0 -42 -49 -108h-23q-97 113 -240 113q-148 0 -220 -97t-72 -256q0 -78 17 -142.5t51.5 -115t93.5 -78.5t137 -28q79 0 140 34t99 80q68 -68 68 -112q0 -49 -93.5 -99.5 t-238.5 -50.5q-40 0 -79.5 5.5t-86 20t-86.5 38t-78 63.5t-65 92t-43.5 126.5t-16.5 164.5zM385 -371q0 34 10 68q23 -10 54 -10q73 0 73 51q0 26 -20.5 49t-41 48t-20.5 56q0 12 3.5 25.5t8 24.5t12.5 24.5t13 20.5t13.5 18.5t9.5 13.5h121q-25 -25 -34.5 -35t-17.5 -25 t-8 -30q0 -21 14 -39.5t31 -32t31 -41t14 -63.5q0 -85 -59.5 -135.5t-134.5 -50.5q-72 0 -72 63z" />
<glyph unicode="&#xee;" horiz-adv-x="493" d="M-49 1126l180 238q44 57 102 57q32 0 53.5 -12.5t45.5 -42.5l188 -246q-39 -24 -76 -24q-50 0 -92 45l-121 131l-120 -135q-35 -41 -86 -41q-44 0 -74 30zM150 199v774h12q3 0 11.5 1t12.5 1q138 0 138 -137v-654q0 -63 18.5 -85.5t79.5 -22.5v-74q-44 -14 -113 -14 q-45 0 -76.5 13.5t-47 31t-24 50t-10 55t-1.5 61.5z" />
<glyph unicode="&#xf5;" horiz-adv-x="1097" d="M98 479q0 139 50 252t155.5 183.5t251.5 70.5q93 0 168.5 -26.5t126 -72.5t84.5 -110t49.5 -136.5t15.5 -154.5q0 -105 -25 -194.5t-77 -163t-141.5 -116t-208.5 -42.5q-118 0 -207 40.5t-140.5 112.5t-76.5 161t-25 196zM231 1194q0 48 72.5 91.5t134.5 43.5 q52 0 126 -33.5t118 -33.5q39 0 68 23t61 71q28 -16 50 -39.5t22 -46.5q0 -46 -59 -91.5t-132 -45.5q-54 0 -135.5 33.5t-122.5 33.5q-71 0 -145 -88q-58 42 -58 82zM281 483q0 -70 12 -130t40.5 -115.5t83 -88t130.5 -32.5q64 0 112.5 22t77.5 57t47 85t24.5 98t6.5 104 q0 351 -264 351q-60 0 -107.5 -20.5t-77.5 -54t-49.5 -80t-27.5 -94.5t-8 -102z" />
<glyph unicode="&#xf9;" horiz-adv-x="1097" d="M143 358v615h13q3 0 11.5 1t12.5 1q137 0 137 -135v-482q0 -76 13 -124t42 -72.5t63.5 -32.5t88.5 -8q102 0 176 50t74 97v705h12q3 0 12 1t13 1q137 0 137 -137v-838h-174v90q-106 -121 -305 -121q-66 0 -118 13.5t-85.5 33.5t-57.5 53.5t-36.5 63t-19 74.5t-8 75 t-1.5 76zM264 1382q62 50 117 50q35 0 57.5 -17.5t50.5 -54.5l173 -225q-47 -33 -87 -33q-54 0 -104 57z" />
<glyph unicode="&#x2000;" horiz-adv-x="875" />
<glyph unicode="&#x2001;" horiz-adv-x="1751" />
<glyph unicode="&#x2002;" horiz-adv-x="875" />
<glyph unicode="&#x2003;" horiz-adv-x="1751" />
<glyph unicode="&#x2004;" horiz-adv-x="583" />
<glyph unicode="&#x2005;" horiz-adv-x="437" />
<glyph unicode="&#x2006;" horiz-adv-x="291" />
<glyph unicode="&#x2007;" horiz-adv-x="291" />
<glyph unicode="&#x2008;" horiz-adv-x="218" />
<glyph unicode="&#x2009;" horiz-adv-x="350" />
<glyph unicode="&#x200a;" horiz-adv-x="97" />
<glyph unicode="&#x202f;" horiz-adv-x="350" />
<glyph unicode="&#x205f;" horiz-adv-x="437" />
<glyph unicode="&#x20ac;" d="M57 467v117h144q-2 23 -2 96q0 53 2 78h-144v108h156q41 230 182 367t357 137q145 0 255.5 -59.5t110.5 -120.5q0 -19 -18 -51.5t-37 -51.5h-27q-109 127 -282 127q-152 0 -242 -94.5t-117 -247.5h494v-114h-510q0 -4 -1 -32t-1 -48q0 -70 6 -94h506v-117h-492 q69 -348 353 -348q174 0 284 143q74 -93 74 -123q0 -58 -108.5 -113t-262.5 -55q-102 0 -185.5 29t-139.5 75.5t-97.5 112.5t-64.5 134t-35 145h-158z" />
<glyph unicode="&#x25fc;" horiz-adv-x="972" d="M0 0v973h973v-973h-973z" />
</font>
</defs>
</svg>
