<?xml version="1.0" encoding="utf-8"?>
<!-- Generator: Adobe Illustrator 19.0.0, SVG Export Plug-In . SVG Version: 6.00 Build 0)  -->
<svg version="1.1" id="Camada_2" xmlns="http://www.w3.org/2000/svg" xmlns:xlink="http://www.w3.org/1999/xlink" x="0px" y="0px"
	 viewBox="0 0 500 500" style="enable-background:new 0 0 500 500;" xml:space="preserve">
<style type="text/css">
	.st0{fill:#F29D20;}
</style>
<path id="XMLID_10_" class="st0" d="M360.1,165.9c-44.1,0-79.9,35.8-79.9,79.9c0,44.1,35.8,79.9,79.9,79.9s79.9-35.8,79.9-79.9
	C440,201.7,404.2,165.9,360.1,165.9z M358.8,294.5c-27.3,0-49.4-22.5-49.4-50.2c0-27.7,22.1-50.2,49.4-50.2s49.4,22.5,49.4,50.2
	C408.3,272,386.1,294.5,358.8,294.5z"/>
<path id="XMLID_12_" class="st0" d="M446.3,218.2c3.1,12.9,3.9,19.5,3.9,30.3c0,47-40.3,85.1-89.9,85.1s-89.9-38.1-89.9-85.1
	c-1.4-20.4,10-43,10-43c-10.1-0.1-28.8,0.2-28.8,0.2s-19.4,44.7-73.5,58.5c0,0-55.4,15-91.6-12.5l0.1,114.7
	c5.3,10.5,18.4,8.3,18.4,8.3l-0.4,49.9h39l8.3-37.9l263.1,1.1l9.4,36.8H463v-50.7c14.6,0,18-7.5,18-7.5V225.5
	C471.3,223,460.9,219.3,446.3,218.2z M259,341.4H116.8c-4.3,0-7.9-3.5-7.9-7.9c0-4.3,3.5-7.9,7.9-7.9H259c4.3,0,7.9,3.5,7.9,7.9
	C266.9,337.9,263.3,341.4,259,341.4z M259,318.9H116.8c-4.3,0-7.9-3.5-7.9-7.9s3.5-7.9,7.9-7.9H259c4.3,0,7.9,3.5,7.9,7.9
	S263.3,318.9,259,318.9z M259,294.7H116.8c-4.3,0-7.9-3.5-7.9-7.9s3.5-7.9,7.9-7.9H259c4.3,0,7.9,3.5,7.9,7.9S263.3,294.7,259,294.7
	z"/>
<path id="XMLID_3_" class="st0" d="M71.6,187.8l82.2,12c0,0,5.1,0.6,11.3-2.9l67.1-50.8l14.7,56.7c0,0-18.6,42.4-71.4,55.8
	c0,0-53.5,13.9-88.8-12.9L71.6,187.8z"/>
<path id="XMLID_2_" class="st0" d="M36.7,175.8l114.2,15c8-0.4,14.6-5,14.6-5l108.5-82.1c11.8-9.7-3.8-11.4-3.8-11.4L135.7,75.7
	c-8.5-0.5-15.1,3.7-15.1,3.7L9.4,161.3c-11.2,8.3,1.7,11.2,1.7,11.2L36.7,175.8"/>
<path id="XMLID_6_" class="st0" d="M50.4,208.5c3-2.1,5-5.7,5-9.6c0-4-2-7.6-5.2-9.7v-4.7L37,182.7v6.5c-3.1,2.1-5.2,5.7-5.2,9.7
	c0,4,2,7.5,5,9.6L31,279.6c0,0,12.5,15.2,25.3,0L50.4,208.5z"/>
</svg>
